ISO-10303-21;
HEADER;
FILE_DESCRIPTION(('FreeCAD Model'),'2;1');
FILE_NAME('Open CASCADE Shape Model','2026-07-04T21:00:10',('FreeCAD'),(
    'FreeCAD'),'Open CASCADE STEP processor 7.9','FreeCAD','Unknown');
FILE_SCHEMA(('AUTOMOTIVE_DESIGN { 1 0 10303 214 1 1 1 1 }'));
ENDSEC;
DATA;
#1 = APPLICATION_PROTOCOL_DEFINITION('international standard',
  'automotive_design',2000,#2);
#2 = APPLICATION_CONTEXT(
  'core data for automotive mechanical design processes');
#3 = SHAPE_DEFINITION_REPRESENTATION(#4,#10);
#4 = PRODUCT_DEFINITION_SHAPE('','',#5);
#5 = PRODUCT_DEFINITION('design','',#6,#9);
#6 = PRODUCT_DEFINITION_FORMATION('','',#7);
#7 = PRODUCT('Open CASCADE STEP translator 7.9 2',
  'Open CASCADE STEP translator 7.9 2','',(#8));
#8 = PRODUCT_CONTEXT('',#2,'mechanical');
#9 = PRODUCT_DEFINITION_CONTEXT('part definition',#2,'design');
#10 = ADVANCED_BREP_SHAPE_REPRESENTATION('',(#11,#15),#1339);
#11 = AXIS2_PLACEMENT_3D('',#12,#13,#14);
#12 = CARTESIAN_POINT('',(0.,0.,0.));
#13 = DIRECTION('',(0.,0.,1.));
#14 = DIRECTION('',(1.,0.,-0.));
#15 = MANIFOLD_SOLID_BREP('',#16);
#16 = CLOSED_SHELL('',(#17,#57,#88,#121,#359,#383,#480,#497,#719,#763,
    #818,#842,#866,#953,#1032,#1056,#1080,#1097,#1114,#1131,#1148,#1165,
    #1182,#1199,#1216,#1233,#1250,#1267,#1279,#1303,#1315,#1327));
#17 = ADVANCED_FACE('',(#18),#52,.T.);
#18 = FACE_BOUND('',#19,.T.);
#19 = EDGE_LOOP('',(#20,#30,#38,#46));
#20 = ORIENTED_EDGE('',*,*,#21,.F.);
#21 = EDGE_CURVE('',#22,#24,#26,.T.);
#22 = VERTEX_POINT('',#23);
#23 = CARTESIAN_POINT('',(151.4,0.,0.));
#24 = VERTEX_POINT('',#25);
#25 = CARTESIAN_POINT('',(151.4,0.,1.5));
#26 = LINE('',#27,#28);
#27 = CARTESIAN_POINT('',(151.4,0.,0.));
#28 = VECTOR('',#29,1.);
#29 = DIRECTION('',(0.,0.,1.));
#30 = ORIENTED_EDGE('',*,*,#31,.T.);
#31 = EDGE_CURVE('',#22,#32,#34,.T.);
#32 = VERTEX_POINT('',#33);
#33 = CARTESIAN_POINT('',(151.4,49.50184,0.));
#34 = LINE('',#35,#36);
#35 = CARTESIAN_POINT('',(151.4,0.,0.));
#36 = VECTOR('',#37,1.);
#37 = DIRECTION('',(-0.,1.,0.));
#38 = ORIENTED_EDGE('',*,*,#39,.T.);
#39 = EDGE_CURVE('',#32,#40,#42,.T.);
#40 = VERTEX_POINT('',#41);
#41 = CARTESIAN_POINT('',(151.4,49.50184,1.5));
#42 = LINE('',#43,#44);
#43 = CARTESIAN_POINT('',(151.4,49.50184,0.));
#44 = VECTOR('',#45,1.);
#45 = DIRECTION('',(0.,0.,1.));
#46 = ORIENTED_EDGE('',*,*,#47,.F.);
#47 = EDGE_CURVE('',#24,#40,#48,.T.);
#48 = LINE('',#49,#50);
#49 = CARTESIAN_POINT('',(151.4,0.,1.5));
#50 = VECTOR('',#51,1.);
#51 = DIRECTION('',(-0.,1.,0.));
#52 = PLANE('',#53);
#53 = AXIS2_PLACEMENT_3D('',#54,#55,#56);
#54 = CARTESIAN_POINT('',(151.4,0.,0.));
#55 = DIRECTION('',(1.,0.,-0.));
#56 = DIRECTION('',(0.,0.,1.));
#57 = ADVANCED_FACE('',(#58),#83,.F.);
#58 = FACE_BOUND('',#59,.F.);
#59 = EDGE_LOOP('',(#60,#70,#76,#77));
#60 = ORIENTED_EDGE('',*,*,#61,.T.);
#61 = EDGE_CURVE('',#62,#64,#66,.T.);
#62 = VERTEX_POINT('',#63);
#63 = CARTESIAN_POINT('',(142.09897948556,-1.036948305E-13,0.));
#64 = VERTEX_POINT('',#65);
#65 = CARTESIAN_POINT('',(142.09897948556,-1.110223024625E-16,1.5));
#66 = LINE('',#67,#68);
#67 = CARTESIAN_POINT('',(142.09897948556,0.,0.));
#68 = VECTOR('',#69,1.);
#69 = DIRECTION('',(0.,0.,1.));
#70 = ORIENTED_EDGE('',*,*,#71,.T.);
#71 = EDGE_CURVE('',#64,#24,#72,.T.);
#72 = LINE('',#73,#74);
#73 = CARTESIAN_POINT('',(0.,-1.110223024625E-16,1.5));
#74 = VECTOR('',#75,1.);
#75 = DIRECTION('',(1.,0.,-0.));
#76 = ORIENTED_EDGE('',*,*,#21,.F.);
#77 = ORIENTED_EDGE('',*,*,#78,.F.);
#78 = EDGE_CURVE('',#62,#22,#79,.T.);
#79 = LINE('',#80,#81);
#80 = CARTESIAN_POINT('',(0.,0.,0.));
#81 = VECTOR('',#82,1.);
#82 = DIRECTION('',(1.,0.,-0.));
#83 = PLANE('',#84);
#84 = AXIS2_PLACEMENT_3D('',#85,#86,#87);
#85 = CARTESIAN_POINT('',(0.,0.,0.));
#86 = DIRECTION('',(-0.,1.,0.));
#87 = DIRECTION('',(0.,0.,1.));
#88 = ADVANCED_FACE('',(#89),#116,.T.);
#89 = FACE_BOUND('',#90,.F.);
#90 = EDGE_LOOP('',(#91,#100,#108,#115));
#91 = ORIENTED_EDGE('',*,*,#92,.T.);
#92 = EDGE_CURVE('',#24,#93,#95,.T.);
#93 = VERTEX_POINT('',#94);
#94 = CARTESIAN_POINT('',(150.5,0.9,2.4));
#95 = ELLIPSE('',#96,1.272792206136,0.9);
#96 = AXIS2_PLACEMENT_3D('',#97,#98,#99);
#97 = CARTESIAN_POINT('',(150.5,0.9,1.5));
#98 = DIRECTION('',(-0.707106781187,-0.707106781187,-0.));
#99 = DIRECTION('',(-0.707106781187,0.707106781187,0.));
#100 = ORIENTED_EDGE('',*,*,#101,.T.);
#101 = EDGE_CURVE('',#93,#102,#104,.T.);
#102 = VERTEX_POINT('',#103);
#103 = CARTESIAN_POINT('',(150.5,48.60184,2.4));
#104 = LINE('',#105,#106);
#105 = CARTESIAN_POINT('',(150.5,0.,2.4));
#106 = VECTOR('',#107,1.);
#107 = DIRECTION('',(-0.,1.,0.));
#108 = ORIENTED_EDGE('',*,*,#109,.F.);
#109 = EDGE_CURVE('',#40,#102,#110,.T.);
#110 = ELLIPSE('',#111,1.272792206136,0.9);
#111 = AXIS2_PLACEMENT_3D('',#112,#113,#114);
#112 = CARTESIAN_POINT('',(150.5,48.60184,1.5));
#113 = DIRECTION('',(0.707106781187,-0.707106781187,-0.));
#114 = DIRECTION('',(0.707106781187,0.707106781187,0.));
#115 = ORIENTED_EDGE('',*,*,#47,.F.);
#116 = CYLINDRICAL_SURFACE('',#117,0.9);
#117 = AXIS2_PLACEMENT_3D('',#118,#119,#120);
#118 = CARTESIAN_POINT('',(150.5,0.,1.5));
#119 = DIRECTION('',(-0.,1.,0.));
#120 = DIRECTION('',(1.,0.,-0.));
#121 = ADVANCED_FACE('',(#122,#244,#255,#266,#277,#288,#299,#310,#321,
    #332,#343),#354,.T.);
#122 = FACE_BOUND('',#123,.T.);
#123 = EDGE_LOOP('',(#124,#125,#126,#135,#144,#152,#161,#170,#178,#186,
    #194,#203,#212,#220,#229,#238));
#124 = ORIENTED_EDGE('',*,*,#31,.F.);
#125 = ORIENTED_EDGE('',*,*,#78,.F.);
#126 = ORIENTED_EDGE('',*,*,#127,.F.);
#127 = EDGE_CURVE('',#128,#62,#130,.T.);
#128 = VERTEX_POINT('',#129);
#129 = CARTESIAN_POINT('',(143.4,-3.8,0.));
#130 = CIRCLE('',#131,6.2);
#131 = AXIS2_PLACEMENT_3D('',#132,#133,#134);
#132 = CARTESIAN_POINT('',(137.2,-3.8,0.));
#133 = DIRECTION('',(0.,0.,1.));
#134 = DIRECTION('',(1.,0.,-0.));
#135 = ORIENTED_EDGE('',*,*,#136,.F.);
#136 = EDGE_CURVE('',#137,#128,#139,.T.);
#137 = VERTEX_POINT('',#138);
#138 = CARTESIAN_POINT('',(132.30102051443,-1.7763568394E-15,0.));
#139 = CIRCLE('',#140,6.2);
#140 = AXIS2_PLACEMENT_3D('',#141,#142,#143);
#141 = CARTESIAN_POINT('',(137.2,-3.8,0.));
#142 = DIRECTION('',(0.,0.,1.));
#143 = DIRECTION('',(1.,0.,-0.));
#144 = ORIENTED_EDGE('',*,*,#145,.F.);
#145 = EDGE_CURVE('',#146,#137,#148,.T.);
#146 = VERTEX_POINT('',#147);
#147 = CARTESIAN_POINT('',(19.098979485567,-1.036948305E-13,0.));
#148 = LINE('',#149,#150);
#149 = CARTESIAN_POINT('',(0.,0.,0.));
#150 = VECTOR('',#151,1.);
#151 = DIRECTION('',(1.,0.,-0.));
#152 = ORIENTED_EDGE('',*,*,#153,.F.);
#153 = EDGE_CURVE('',#154,#146,#156,.T.);
#154 = VERTEX_POINT('',#155);
#155 = CARTESIAN_POINT('',(20.4,-3.8,0.));
#156 = CIRCLE('',#157,6.2);
#157 = AXIS2_PLACEMENT_3D('',#158,#159,#160);
#158 = CARTESIAN_POINT('',(14.2,-3.8,0.));
#159 = DIRECTION('',(0.,0.,1.));
#160 = DIRECTION('',(1.,0.,-0.));
#161 = ORIENTED_EDGE('',*,*,#162,.F.);
#162 = EDGE_CURVE('',#163,#154,#165,.T.);
#163 = VERTEX_POINT('',#164);
#164 = CARTESIAN_POINT('',(9.301020514434,-1.7763568394E-15,0.));
#165 = CIRCLE('',#166,6.2);
#166 = AXIS2_PLACEMENT_3D('',#167,#168,#169);
#167 = CARTESIAN_POINT('',(14.2,-3.8,0.));
#168 = DIRECTION('',(0.,0.,1.));
#169 = DIRECTION('',(1.,0.,-0.));
#170 = ORIENTED_EDGE('',*,*,#171,.F.);
#171 = EDGE_CURVE('',#172,#163,#174,.T.);
#172 = VERTEX_POINT('',#173);
#173 = CARTESIAN_POINT('',(0.,0.,0.));
#174 = LINE('',#175,#176);
#175 = CARTESIAN_POINT('',(0.,0.,0.));
#176 = VECTOR('',#177,1.);
#177 = DIRECTION('',(1.,0.,-0.));
#178 = ORIENTED_EDGE('',*,*,#179,.T.);
#179 = EDGE_CURVE('',#172,#180,#182,.T.);
#180 = VERTEX_POINT('',#181);
#181 = CARTESIAN_POINT('',(0.,49.50184,0.));
#182 = LINE('',#183,#184);
#183 = CARTESIAN_POINT('',(0.,0.,0.));
#184 = VECTOR('',#185,1.);
#185 = DIRECTION('',(-0.,1.,0.));
#186 = ORIENTED_EDGE('',*,*,#187,.T.);
#187 = EDGE_CURVE('',#180,#188,#190,.T.);
#188 = VERTEX_POINT('',#189);
#189 = CARTESIAN_POINT('',(9.301020514434,49.50184,0.));
#190 = LINE('',#191,#192);
#191 = CARTESIAN_POINT('',(0.,49.50184,0.));
#192 = VECTOR('',#193,1.);
#193 = DIRECTION('',(1.,0.,-0.));
#194 = ORIENTED_EDGE('',*,*,#195,.F.);
#195 = EDGE_CURVE('',#196,#188,#198,.T.);
#196 = VERTEX_POINT('',#197);
#197 = CARTESIAN_POINT('',(20.4,53.30184,0.));
#198 = CIRCLE('',#199,6.2);
#199 = AXIS2_PLACEMENT_3D('',#200,#201,#202);
#200 = CARTESIAN_POINT('',(14.2,53.30184,0.));
#201 = DIRECTION('',(0.,0.,1.));
#202 = DIRECTION('',(1.,0.,-0.));
#203 = ORIENTED_EDGE('',*,*,#204,.F.);
#204 = EDGE_CURVE('',#205,#196,#207,.T.);
#205 = VERTEX_POINT('',#206);
#206 = CARTESIAN_POINT('',(19.098979485567,49.50184,0.));
#207 = CIRCLE('',#208,6.2);
#208 = AXIS2_PLACEMENT_3D('',#209,#210,#211);
#209 = CARTESIAN_POINT('',(14.2,53.30184,0.));
#210 = DIRECTION('',(0.,0.,1.));
#211 = DIRECTION('',(1.,0.,-0.));
#212 = ORIENTED_EDGE('',*,*,#213,.T.);
#213 = EDGE_CURVE('',#205,#214,#216,.T.);
#214 = VERTEX_POINT('',#215);
#215 = CARTESIAN_POINT('',(132.30102051443,49.50184,0.));
#216 = LINE('',#217,#218);
#217 = CARTESIAN_POINT('',(0.,49.50184,0.));
#218 = VECTOR('',#219,1.);
#219 = DIRECTION('',(1.,0.,-0.));
#220 = ORIENTED_EDGE('',*,*,#221,.F.);
#221 = EDGE_CURVE('',#222,#214,#224,.T.);
#222 = VERTEX_POINT('',#223);
#223 = CARTESIAN_POINT('',(143.4,53.30184,0.));
#224 = CIRCLE('',#225,6.2);
#225 = AXIS2_PLACEMENT_3D('',#226,#227,#228);
#226 = CARTESIAN_POINT('',(137.2,53.30184,0.));
#227 = DIRECTION('',(0.,0.,1.));
#228 = DIRECTION('',(1.,0.,-0.));
#229 = ORIENTED_EDGE('',*,*,#230,.F.);
#230 = EDGE_CURVE('',#231,#222,#233,.T.);
#231 = VERTEX_POINT('',#232);
#232 = CARTESIAN_POINT('',(142.09897948556,49.50184,0.));
#233 = CIRCLE('',#234,6.2);
#234 = AXIS2_PLACEMENT_3D('',#235,#236,#237);
#235 = CARTESIAN_POINT('',(137.2,53.30184,0.));
#236 = DIRECTION('',(0.,0.,1.));
#237 = DIRECTION('',(1.,0.,-0.));
#238 = ORIENTED_EDGE('',*,*,#239,.T.);
#239 = EDGE_CURVE('',#231,#32,#240,.T.);
#240 = LINE('',#241,#242);
#241 = CARTESIAN_POINT('',(0.,49.50184,0.));
#242 = VECTOR('',#243,1.);
#243 = DIRECTION('',(1.,0.,-0.));
#244 = FACE_BOUND('',#245,.T.);
#245 = EDGE_LOOP('',(#246));
#246 = ORIENTED_EDGE('',*,*,#247,.T.);
#247 = EDGE_CURVE('',#248,#248,#250,.T.);
#248 = VERTEX_POINT('',#249);
#249 = CARTESIAN_POINT('',(138.7,-3.8,0.));
#250 = CIRCLE('',#251,1.5);
#251 = AXIS2_PLACEMENT_3D('',#252,#253,#254);
#252 = CARTESIAN_POINT('',(137.2,-3.8,0.));
#253 = DIRECTION('',(0.,0.,1.));
#254 = DIRECTION('',(1.,0.,-0.));
#255 = FACE_BOUND('',#256,.T.);
#256 = EDGE_LOOP('',(#257));
#257 = ORIENTED_EDGE('',*,*,#258,.T.);
#258 = EDGE_CURVE('',#259,#259,#261,.T.);
#259 = VERTEX_POINT('',#260);
#260 = CARTESIAN_POINT('',(59.375,7.55184,0.));
#261 = CIRCLE('',#262,2.5);
#262 = AXIS2_PLACEMENT_3D('',#263,#264,#265);
#263 = CARTESIAN_POINT('',(56.875,7.55184,0.));
#264 = DIRECTION('',(0.,0.,1.));
#265 = DIRECTION('',(1.,0.,-0.));
#266 = FACE_BOUND('',#267,.T.);
#267 = EDGE_LOOP('',(#268));
#268 = ORIENTED_EDGE('',*,*,#269,.T.);
#269 = EDGE_CURVE('',#270,#270,#272,.T.);
#270 = VERTEX_POINT('',#271);
#271 = CARTESIAN_POINT('',(15.7,-3.8,0.));
#272 = CIRCLE('',#273,1.5);
#273 = AXIS2_PLACEMENT_3D('',#274,#275,#276);
#274 = CARTESIAN_POINT('',(14.2,-3.8,0.));
#275 = DIRECTION('',(0.,0.,1.));
#276 = DIRECTION('',(1.,0.,-0.));
#277 = FACE_BOUND('',#278,.T.);
#278 = EDGE_LOOP('',(#279));
#279 = ORIENTED_EDGE('',*,*,#280,.T.);
#280 = EDGE_CURVE('',#281,#281,#283,.T.);
#281 = VERTEX_POINT('',#282);
#282 = CARTESIAN_POINT('',(59.25,13.35184,0.));
#283 = CIRCLE('',#284,2.5);
#284 = AXIS2_PLACEMENT_3D('',#285,#286,#287);
#285 = CARTESIAN_POINT('',(56.75,13.35184,0.));
#286 = DIRECTION('',(0.,0.,1.));
#287 = DIRECTION('',(1.,0.,-0.));
#288 = FACE_BOUND('',#289,.T.);
#289 = EDGE_LOOP('',(#290));
#290 = ORIENTED_EDGE('',*,*,#291,.T.);
#291 = EDGE_CURVE('',#292,#292,#294,.T.);
#292 = VERTEX_POINT('',#293);
#293 = CARTESIAN_POINT('',(59.25,19.15184,0.));
#294 = CIRCLE('',#295,2.5);
#295 = AXIS2_PLACEMENT_3D('',#296,#297,#298);
#296 = CARTESIAN_POINT('',(56.75,19.15184,0.));
#297 = DIRECTION('',(0.,0.,1.));
#298 = DIRECTION('',(1.,0.,-0.));
#299 = FACE_BOUND('',#300,.T.);
#300 = EDGE_LOOP('',(#301));
#301 = ORIENTED_EDGE('',*,*,#302,.T.);
#302 = EDGE_CURVE('',#303,#303,#305,.T.);
#303 = VERTEX_POINT('',#304);
#304 = CARTESIAN_POINT('',(34.68,14.75184,0.));
#305 = CIRCLE('',#306,1.2);
#306 = AXIS2_PLACEMENT_3D('',#307,#308,#309);
#307 = CARTESIAN_POINT('',(33.48,14.75184,0.));
#308 = DIRECTION('',(0.,0.,1.));
#309 = DIRECTION('',(1.,0.,-0.));
#310 = FACE_BOUND('',#311,.T.);
#311 = EDGE_LOOP('',(#312));
#312 = ORIENTED_EDGE('',*,*,#313,.T.);
#313 = EDGE_CURVE('',#314,#314,#316,.T.);
#314 = VERTEX_POINT('',#315);
#315 = CARTESIAN_POINT('',(34.68,17.25184,0.));
#316 = CIRCLE('',#317,1.2);
#317 = AXIS2_PLACEMENT_3D('',#318,#319,#320);
#318 = CARTESIAN_POINT('',(33.48,17.25184,0.));
#319 = DIRECTION('',(0.,0.,1.));
#320 = DIRECTION('',(1.,0.,-0.));
#321 = FACE_BOUND('',#322,.T.);
#322 = EDGE_LOOP('',(#323));
#323 = ORIENTED_EDGE('',*,*,#324,.T.);
#324 = EDGE_CURVE('',#325,#325,#327,.T.);
#325 = VERTEX_POINT('',#326);
#326 = CARTESIAN_POINT('',(138.7,53.30184,0.));
#327 = CIRCLE('',#328,1.5);
#328 = AXIS2_PLACEMENT_3D('',#329,#330,#331);
#329 = CARTESIAN_POINT('',(137.2,53.30184,0.));
#330 = DIRECTION('',(0.,0.,1.));
#331 = DIRECTION('',(1.,0.,-0.));
#332 = FACE_BOUND('',#333,.T.);
#333 = EDGE_LOOP('',(#334));
#334 = ORIENTED_EDGE('',*,*,#335,.T.);
#335 = EDGE_CURVE('',#336,#336,#338,.T.);
#336 = VERTEX_POINT('',#337);
#337 = CARTESIAN_POINT('',(63.62,24.75184,0.));
#338 = CIRCLE('',#339,1.2);
#339 = AXIS2_PLACEMENT_3D('',#340,#341,#342);
#340 = CARTESIAN_POINT('',(62.42,24.75184,0.));
#341 = DIRECTION('',(0.,0.,1.));
#342 = DIRECTION('',(1.,0.,-0.));
#343 = FACE_BOUND('',#344,.T.);
#344 = EDGE_LOOP('',(#345));
#345 = ORIENTED_EDGE('',*,*,#346,.T.);
#346 = EDGE_CURVE('',#347,#347,#349,.T.);
#347 = VERTEX_POINT('',#348);
#348 = CARTESIAN_POINT('',(15.7,53.30184,0.));
#349 = CIRCLE('',#350,1.5);
#350 = AXIS2_PLACEMENT_3D('',#351,#352,#353);
#351 = CARTESIAN_POINT('',(14.2,53.30184,0.));
#352 = DIRECTION('',(0.,0.,1.));
#353 = DIRECTION('',(1.,0.,-0.));
#354 = PLANE('',#355);
#355 = AXIS2_PLACEMENT_3D('',#356,#357,#358);
#356 = CARTESIAN_POINT('',(75.737942101485,24.75092,0.));
#357 = DIRECTION('',(-0.,-0.,-1.));
#358 = DIRECTION('',(-1.,0.,0.));
#359 = ADVANCED_FACE('',(#360),#378,.T.);
#360 = FACE_BOUND('',#361,.T.);
#361 = EDGE_LOOP('',(#362,#370,#376,#377));
#362 = ORIENTED_EDGE('',*,*,#363,.T.);
#363 = EDGE_CURVE('',#231,#364,#366,.T.);
#364 = VERTEX_POINT('',#365);
#365 = CARTESIAN_POINT('',(142.09897948556,49.50184,1.5));
#366 = LINE('',#367,#368);
#367 = CARTESIAN_POINT('',(142.09897948556,49.50184,0.));
#368 = VECTOR('',#369,1.);
#369 = DIRECTION('',(0.,0.,1.));
#370 = ORIENTED_EDGE('',*,*,#371,.T.);
#371 = EDGE_CURVE('',#364,#40,#372,.T.);
#372 = LINE('',#373,#374);
#373 = CARTESIAN_POINT('',(0.,49.50184,1.5));
#374 = VECTOR('',#375,1.);
#375 = DIRECTION('',(1.,0.,-0.));
#376 = ORIENTED_EDGE('',*,*,#39,.F.);
#377 = ORIENTED_EDGE('',*,*,#239,.F.);
#378 = PLANE('',#379);
#379 = AXIS2_PLACEMENT_3D('',#380,#381,#382);
#380 = CARTESIAN_POINT('',(0.,49.50184,0.));
#381 = DIRECTION('',(-0.,1.,0.));
#382 = DIRECTION('',(0.,0.,1.));
#383 = ADVANCED_FACE('',(#384),#475,.T.);
#384 = FACE_BOUND('',#385,.T.);
#385 = EDGE_LOOP('',(#386,#397,#428,#434,#435,#436,#437,#468));
#386 = ORIENTED_EDGE('',*,*,#387,.F.);
#387 = EDGE_CURVE('',#388,#390,#392,.T.);
#388 = VERTEX_POINT('',#389);
#389 = CARTESIAN_POINT('',(133.15648667616,0.9,2.4));
#390 = VERTEX_POINT('',#391);
#391 = CARTESIAN_POINT('',(143.4,-3.8,2.4));
#392 = CIRCLE('',#393,6.2);
#393 = AXIS2_PLACEMENT_3D('',#394,#395,#396);
#394 = CARTESIAN_POINT('',(137.2,-3.8,2.4));
#395 = DIRECTION('',(0.,0.,1.));
#396 = DIRECTION('',(1.,0.,-0.));
#397 = ORIENTED_EDGE('',*,*,#398,.F.);
#398 = EDGE_CURVE('',#399,#388,#401,.T.);
#399 = VERTEX_POINT('',#400);
#400 = CARTESIAN_POINT('',(132.30102051443,-1.110223024625E-16,1.5));
#401 = B_SPLINE_CURVE_WITH_KNOTS('',5,(#402,#403,#404,#405,#406,#407,
    #408,#409,#410,#411,#412,#413,#414,#415,#416,#417,#418,#419,#420,
    #421,#422,#423,#424,#425,#426,#427),.UNSPECIFIED.,.F.,.F.,(6,4,4,4,4
    ,4,6),(0.,0.177590449115,0.337788593337,0.486782737574,
    0.625910545423,0.755575409371,1.),.UNSPECIFIED.);
#402 = CARTESIAN_POINT('',(132.30102051443,1.665334536938E-16,1.5));
#403 = CARTESIAN_POINT('',(132.30102051443,1.665334536938E-16,
    1.553783178625));
#404 = CARTESIAN_POINT('',(132.30413695985,4.017624679993E-03,
    1.607575399582));
#405 = CARTESIAN_POINT('',(132.31037100646,1.205506210475E-02,
    1.660931792996));
#406 = CARTESIAN_POINT('',(132.31971360513,2.403025904725E-02,
    1.713420524457));
#407 = CARTESIAN_POINT('',(132.34335326713,5.399924914602E-02,
    1.810836249237));
#408 = CARTESIAN_POINT('',(132.35707654921,7.129010694702E-02,
    1.856004832297));
#409 = CARTESIAN_POINT('',(132.37328790745,9.153512734062E-02,
    1.899814382785));
#410 = CARTESIAN_POINT('',(132.39194450592,0.114549511283,1.941975318324
    ));
#411 = CARTESIAN_POINT('',(132.43254165331,0.163872922423,2.019696577874
    ));
#412 = CARTESIAN_POINT('',(132.45415875494,0.189835928944,2.055507575525
    ));
#413 = CARTESIAN_POINT('',(132.47776551229,0.217798459197,2.08946580722)
  );
#414 = CARTESIAN_POINT('',(132.5032740076,0.247528399599,2.121406091766)
  );
#415 = CARTESIAN_POINT('',(132.5560528546,0.307950303727,2.179045721642)
  );
#416 = CARTESIAN_POINT('',(132.58309068552,0.338443633403,2.205013937865
    ));
#417 = CARTESIAN_POINT('',(132.6115907303,0.370055339476,2.229031533451)
  );
#418 = CARTESIAN_POINT('',(132.64144454092,0.402575554469,2.251047423876
    ));
#419 = CARTESIAN_POINT('',(132.70148499863,0.466750525395,2.289683898907
    ));
#420 = CARTESIAN_POINT('',(132.73150967314,0.498312614926,2.306568836952
    ));
#421 = CARTESIAN_POINT('',(132.76250981878,0.530327889894,2.321700672313
    ));
#422 = CARTESIAN_POINT('',(132.79438892686,0.562649711377,2.335096954645
    ));
#423 = CARTESIAN_POINT('',(132.88858836772,0.65637386807,2.368839727335)
  );
#424 = CARTESIAN_POINT('',(132.95282516544,0.718142717529,2.384824778693
    ));
#425 = CARTESIAN_POINT('',(133.01924945039,0.779718333952,2.395083349633
    ));
#426 = CARTESIAN_POINT('',(133.08732842733,0.840501638164,2.4));
#427 = CARTESIAN_POINT('',(133.15648667616,0.9,2.4));
#428 = ORIENTED_EDGE('',*,*,#429,.F.);
#429 = EDGE_CURVE('',#137,#399,#430,.T.);
#430 = LINE('',#431,#432);
#431 = CARTESIAN_POINT('',(132.30102051443,0.,0.));
#432 = VECTOR('',#433,1.);
#433 = DIRECTION('',(0.,0.,1.));
#434 = ORIENTED_EDGE('',*,*,#136,.T.);
#435 = ORIENTED_EDGE('',*,*,#127,.T.);
#436 = ORIENTED_EDGE('',*,*,#61,.T.);
#437 = ORIENTED_EDGE('',*,*,#438,.T.);
#438 = EDGE_CURVE('',#64,#439,#441,.T.);
#439 = VERTEX_POINT('',#440);
#440 = CARTESIAN_POINT('',(141.24351332383,0.9,2.4));
#441 = B_SPLINE_CURVE_WITH_KNOTS('',5,(#442,#443,#444,#445,#446,#447,
    #448,#449,#450,#451,#452,#453,#454,#455,#456,#457,#458,#459,#460,
    #461,#462,#463,#464,#465,#466,#467),.UNSPECIFIED.,.F.,.F.,(6,4,4,4,4
    ,4,6),(0.,0.177590438414,0.337788572984,0.486782708243,
    0.625910507709,0.755575376487,1.),.UNSPECIFIED.);
#442 = CARTESIAN_POINT('',(142.09897948556,8.326672684689E-16,1.5));
#443 = CARTESIAN_POINT('',(142.09897948556,8.326672684689E-16,
    1.553783178625));
#444 = CARTESIAN_POINT('',(142.09586304014,4.017624679991E-03,
    1.607575399582));
#445 = CARTESIAN_POINT('',(142.08962899353,1.205506210475E-02,
    1.660931792996));
#446 = CARTESIAN_POINT('',(142.08028639486,2.403025904725E-02,
    1.713420524457));
#447 = CARTESIAN_POINT('',(142.05664673286,5.399924914601E-02,
    1.810836249237));
#448 = CARTESIAN_POINT('',(142.04292345078,7.129010694702E-02,
    1.856004832297));
#449 = CARTESIAN_POINT('',(142.02671209254,9.153512734063E-02,
    1.899814382785));
#450 = CARTESIAN_POINT('',(142.00805549407,0.114549511283,1.941975318324
    ));
#451 = CARTESIAN_POINT('',(141.96745834668,0.163872922423,2.019696577874
    ));
#452 = CARTESIAN_POINT('',(141.94584124505,0.189835928944,2.055507575525
    ));
#453 = CARTESIAN_POINT('',(141.9222344877,0.217798459197,2.08946580722)
  );
#454 = CARTESIAN_POINT('',(141.89672599239,0.247528399599,2.121406091766
    ));
#455 = CARTESIAN_POINT('',(141.84394714539,0.307950303727,2.179045721642
    ));
#456 = CARTESIAN_POINT('',(141.81690931447,0.338443633403,2.205013937865
    ));
#457 = CARTESIAN_POINT('',(141.78840926969,0.370055339476,2.229031533451
    ));
#458 = CARTESIAN_POINT('',(141.75855545907,0.402575554469,2.251047423876
    ));
#459 = CARTESIAN_POINT('',(141.69851499854,0.466750528413,2.289683900724
    ));
#460 = CARTESIAN_POINT('',(141.66849032944,0.498312612311,2.306568835888
    ));
#461 = CARTESIAN_POINT('',(141.63749018363,0.530327887348,2.321700670909
    ));
#462 = CARTESIAN_POINT('',(141.60561106996,0.562649714534,2.335096955782
    ));
#463 = CARTESIAN_POINT('',(141.51141163227,0.656373868076,2.368839727337
    ));
#464 = CARTESIAN_POINT('',(141.44717483456,0.718142717524,2.38482477869)
  );
#465 = CARTESIAN_POINT('',(141.38075054961,0.779718333948,2.395083349634
    ));
#466 = CARTESIAN_POINT('',(141.31267157266,0.840501638169,2.4));
#467 = CARTESIAN_POINT('',(141.24351332383,0.9,2.4));
#468 = ORIENTED_EDGE('',*,*,#469,.F.);
#469 = EDGE_CURVE('',#390,#439,#470,.T.);
#470 = CIRCLE('',#471,6.2);
#471 = AXIS2_PLACEMENT_3D('',#472,#473,#474);
#472 = CARTESIAN_POINT('',(137.2,-3.8,2.4));
#473 = DIRECTION('',(0.,0.,1.));
#474 = DIRECTION('',(1.,0.,-0.));
#475 = CYLINDRICAL_SURFACE('',#476,6.2);
#476 = AXIS2_PLACEMENT_3D('',#477,#478,#479);
#477 = CARTESIAN_POINT('',(137.2,-3.8,0.));
#478 = DIRECTION('',(0.,0.,1.));
#479 = DIRECTION('',(1.,0.,-0.));
#480 = ADVANCED_FACE('',(#481),#492,.T.);
#481 = FACE_BOUND('',#482,.F.);
#482 = EDGE_LOOP('',(#483,#484,#485,#491));
#483 = ORIENTED_EDGE('',*,*,#71,.F.);
#484 = ORIENTED_EDGE('',*,*,#438,.T.);
#485 = ORIENTED_EDGE('',*,*,#486,.T.);
#486 = EDGE_CURVE('',#439,#93,#487,.T.);
#487 = LINE('',#488,#489);
#488 = CARTESIAN_POINT('',(0.,0.9,2.4));
#489 = VECTOR('',#490,1.);
#490 = DIRECTION('',(1.,0.,-0.));
#491 = ORIENTED_EDGE('',*,*,#92,.F.);
#492 = CYLINDRICAL_SURFACE('',#493,0.9);
#493 = AXIS2_PLACEMENT_3D('',#494,#495,#496);
#494 = CARTESIAN_POINT('',(0.,0.9,1.5));
#495 = DIRECTION('',(1.,0.,-0.));
#496 = DIRECTION('',(0.,-1.,0.));
#497 = ADVANCED_FACE('',(#498,#604,#615,#626,#637,#648,#659,#670,#681,
    #692,#703),#714,.T.);
#498 = FACE_BOUND('',#499,.T.);
#499 = EDGE_LOOP('',(#500,#510,#518,#527,#536,#542,#543,#544,#545,#546,
    #554,#563,#572,#580,#589,#598));
#500 = ORIENTED_EDGE('',*,*,#501,.F.);
#501 = EDGE_CURVE('',#502,#504,#506,.T.);
#502 = VERTEX_POINT('',#503);
#503 = CARTESIAN_POINT('',(0.9,0.9,2.4));
#504 = VERTEX_POINT('',#505);
#505 = CARTESIAN_POINT('',(0.9,48.60184,2.4));
#506 = LINE('',#507,#508);
#507 = CARTESIAN_POINT('',(0.9,0.,2.4));
#508 = VECTOR('',#509,1.);
#509 = DIRECTION('',(-0.,1.,0.));
#510 = ORIENTED_EDGE('',*,*,#511,.T.);
#511 = EDGE_CURVE('',#502,#512,#514,.T.);
#512 = VERTEX_POINT('',#513);
#513 = CARTESIAN_POINT('',(10.156486676169,0.9,2.4));
#514 = LINE('',#515,#516);
#515 = CARTESIAN_POINT('',(0.,0.9,2.4));
#516 = VECTOR('',#517,1.);
#517 = DIRECTION('',(1.,0.,-0.));
#518 = ORIENTED_EDGE('',*,*,#519,.T.);
#519 = EDGE_CURVE('',#512,#520,#522,.T.);
#520 = VERTEX_POINT('',#521);
#521 = CARTESIAN_POINT('',(20.4,-3.8,2.4));
#522 = CIRCLE('',#523,6.2);
#523 = AXIS2_PLACEMENT_3D('',#524,#525,#526);
#524 = CARTESIAN_POINT('',(14.2,-3.8,2.4));
#525 = DIRECTION('',(0.,0.,1.));
#526 = DIRECTION('',(1.,0.,-0.));
#527 = ORIENTED_EDGE('',*,*,#528,.T.);
#528 = EDGE_CURVE('',#520,#529,#531,.T.);
#529 = VERTEX_POINT('',#530);
#530 = CARTESIAN_POINT('',(18.243513323831,0.9,2.4));
#531 = CIRCLE('',#532,6.2);
#532 = AXIS2_PLACEMENT_3D('',#533,#534,#535);
#533 = CARTESIAN_POINT('',(14.2,-3.8,2.4));
#534 = DIRECTION('',(0.,0.,1.));
#535 = DIRECTION('',(1.,0.,-0.));
#536 = ORIENTED_EDGE('',*,*,#537,.T.);
#537 = EDGE_CURVE('',#529,#388,#538,.T.);
#538 = LINE('',#539,#540);
#539 = CARTESIAN_POINT('',(0.,0.9,2.4));
#540 = VECTOR('',#541,1.);
#541 = DIRECTION('',(1.,0.,-0.));
#542 = ORIENTED_EDGE('',*,*,#387,.T.);
#543 = ORIENTED_EDGE('',*,*,#469,.T.);
#544 = ORIENTED_EDGE('',*,*,#486,.T.);
#545 = ORIENTED_EDGE('',*,*,#101,.T.);
#546 = ORIENTED_EDGE('',*,*,#547,.F.);
#547 = EDGE_CURVE('',#548,#102,#550,.T.);
#548 = VERTEX_POINT('',#549);
#549 = CARTESIAN_POINT('',(141.24351332383,48.60184,2.4));
#550 = LINE('',#551,#552);
#551 = CARTESIAN_POINT('',(0.,48.60184,2.4));
#552 = VECTOR('',#553,1.);
#553 = DIRECTION('',(1.,0.,-0.));
#554 = ORIENTED_EDGE('',*,*,#555,.T.);
#555 = EDGE_CURVE('',#548,#556,#558,.T.);
#556 = VERTEX_POINT('',#557);
#557 = CARTESIAN_POINT('',(143.4,53.30184,2.4));
#558 = CIRCLE('',#559,6.2);
#559 = AXIS2_PLACEMENT_3D('',#560,#561,#562);
#560 = CARTESIAN_POINT('',(137.2,53.30184,2.4));
#561 = DIRECTION('',(0.,0.,1.));
#562 = DIRECTION('',(1.,0.,-0.));
#563 = ORIENTED_EDGE('',*,*,#564,.T.);
#564 = EDGE_CURVE('',#556,#565,#567,.T.);
#565 = VERTEX_POINT('',#566);
#566 = CARTESIAN_POINT('',(133.15648667616,48.60184,2.4));
#567 = CIRCLE('',#568,6.2);
#568 = AXIS2_PLACEMENT_3D('',#569,#570,#571);
#569 = CARTESIAN_POINT('',(137.2,53.30184,2.4));
#570 = DIRECTION('',(0.,0.,1.));
#571 = DIRECTION('',(1.,0.,-0.));
#572 = ORIENTED_EDGE('',*,*,#573,.F.);
#573 = EDGE_CURVE('',#574,#565,#576,.T.);
#574 = VERTEX_POINT('',#575);
#575 = CARTESIAN_POINT('',(18.243513323831,48.60184,2.4));
#576 = LINE('',#577,#578);
#577 = CARTESIAN_POINT('',(0.,48.60184,2.4));
#578 = VECTOR('',#579,1.);
#579 = DIRECTION('',(1.,0.,-0.));
#580 = ORIENTED_EDGE('',*,*,#581,.T.);
#581 = EDGE_CURVE('',#574,#582,#584,.T.);
#582 = VERTEX_POINT('',#583);
#583 = CARTESIAN_POINT('',(20.4,53.30184,2.4));
#584 = CIRCLE('',#585,6.2);
#585 = AXIS2_PLACEMENT_3D('',#586,#587,#588);
#586 = CARTESIAN_POINT('',(14.2,53.30184,2.4));
#587 = DIRECTION('',(0.,0.,1.));
#588 = DIRECTION('',(1.,0.,-0.));
#589 = ORIENTED_EDGE('',*,*,#590,.T.);
#590 = EDGE_CURVE('',#582,#591,#593,.T.);
#591 = VERTEX_POINT('',#592);
#592 = CARTESIAN_POINT('',(10.156486676169,48.60184,2.4));
#593 = CIRCLE('',#594,6.2);
#594 = AXIS2_PLACEMENT_3D('',#595,#596,#597);
#595 = CARTESIAN_POINT('',(14.2,53.30184,2.4));
#596 = DIRECTION('',(0.,0.,1.));
#597 = DIRECTION('',(1.,0.,-0.));
#598 = ORIENTED_EDGE('',*,*,#599,.F.);
#599 = EDGE_CURVE('',#504,#591,#600,.T.);
#600 = LINE('',#601,#602);
#601 = CARTESIAN_POINT('',(0.,48.60184,2.4));
#602 = VECTOR('',#603,1.);
#603 = DIRECTION('',(1.,0.,-0.));
#604 = FACE_BOUND('',#605,.T.);
#605 = EDGE_LOOP('',(#606));
#606 = ORIENTED_EDGE('',*,*,#607,.F.);
#607 = EDGE_CURVE('',#608,#608,#610,.T.);
#608 = VERTEX_POINT('',#609);
#609 = CARTESIAN_POINT('',(15.7,-3.8,2.4));
#610 = CIRCLE('',#611,1.5);
#611 = AXIS2_PLACEMENT_3D('',#612,#613,#614);
#612 = CARTESIAN_POINT('',(14.2,-3.8,2.4));
#613 = DIRECTION('',(0.,0.,1.));
#614 = DIRECTION('',(1.,0.,-0.));
#615 = FACE_BOUND('',#616,.T.);
#616 = EDGE_LOOP('',(#617));
#617 = ORIENTED_EDGE('',*,*,#618,.F.);
#618 = EDGE_CURVE('',#619,#619,#621,.T.);
#619 = VERTEX_POINT('',#620);
#620 = CARTESIAN_POINT('',(59.375,7.55184,2.4));
#621 = CIRCLE('',#622,2.5);
#622 = AXIS2_PLACEMENT_3D('',#623,#624,#625);
#623 = CARTESIAN_POINT('',(56.875,7.55184,2.4));
#624 = DIRECTION('',(0.,0.,1.));
#625 = DIRECTION('',(1.,0.,-0.));
#626 = FACE_BOUND('',#627,.T.);
#627 = EDGE_LOOP('',(#628));
#628 = ORIENTED_EDGE('',*,*,#629,.F.);
#629 = EDGE_CURVE('',#630,#630,#632,.T.);
#630 = VERTEX_POINT('',#631);
#631 = CARTESIAN_POINT('',(34.68,14.75184,2.4));
#632 = CIRCLE('',#633,1.2);
#633 = AXIS2_PLACEMENT_3D('',#634,#635,#636);
#634 = CARTESIAN_POINT('',(33.48,14.75184,2.4));
#635 = DIRECTION('',(0.,0.,1.));
#636 = DIRECTION('',(1.,0.,-0.));
#637 = FACE_BOUND('',#638,.T.);
#638 = EDGE_LOOP('',(#639));
#639 = ORIENTED_EDGE('',*,*,#640,.F.);
#640 = EDGE_CURVE('',#641,#641,#643,.T.);
#641 = VERTEX_POINT('',#642);
#642 = CARTESIAN_POINT('',(34.68,17.25184,2.4));
#643 = CIRCLE('',#644,1.2);
#644 = AXIS2_PLACEMENT_3D('',#645,#646,#647);
#645 = CARTESIAN_POINT('',(33.48,17.25184,2.4));
#646 = DIRECTION('',(0.,0.,1.));
#647 = DIRECTION('',(1.,0.,-0.));
#648 = FACE_BOUND('',#649,.T.);
#649 = EDGE_LOOP('',(#650));
#650 = ORIENTED_EDGE('',*,*,#651,.F.);
#651 = EDGE_CURVE('',#652,#652,#654,.T.);
#652 = VERTEX_POINT('',#653);
#653 = CARTESIAN_POINT('',(59.25,13.35184,2.4));
#654 = CIRCLE('',#655,2.5);
#655 = AXIS2_PLACEMENT_3D('',#656,#657,#658);
#656 = CARTESIAN_POINT('',(56.75,13.35184,2.4));
#657 = DIRECTION('',(0.,0.,1.));
#658 = DIRECTION('',(1.,0.,-0.));
#659 = FACE_BOUND('',#660,.T.);
#660 = EDGE_LOOP('',(#661));
#661 = ORIENTED_EDGE('',*,*,#662,.F.);
#662 = EDGE_CURVE('',#663,#663,#665,.T.);
#663 = VERTEX_POINT('',#664);
#664 = CARTESIAN_POINT('',(59.25,19.15184,2.4));
#665 = CIRCLE('',#666,2.5);
#666 = AXIS2_PLACEMENT_3D('',#667,#668,#669);
#667 = CARTESIAN_POINT('',(56.75,19.15184,2.4));
#668 = DIRECTION('',(0.,0.,1.));
#669 = DIRECTION('',(1.,0.,-0.));
#670 = FACE_BOUND('',#671,.T.);
#671 = EDGE_LOOP('',(#672));
#672 = ORIENTED_EDGE('',*,*,#673,.F.);
#673 = EDGE_CURVE('',#674,#674,#676,.T.);
#674 = VERTEX_POINT('',#675);
#675 = CARTESIAN_POINT('',(138.7,-3.8,2.4));
#676 = CIRCLE('',#677,1.5);
#677 = AXIS2_PLACEMENT_3D('',#678,#679,#680);
#678 = CARTESIAN_POINT('',(137.2,-3.8,2.4));
#679 = DIRECTION('',(0.,0.,1.));
#680 = DIRECTION('',(1.,0.,-0.));
#681 = FACE_BOUND('',#682,.T.);
#682 = EDGE_LOOP('',(#683));
#683 = ORIENTED_EDGE('',*,*,#684,.F.);
#684 = EDGE_CURVE('',#685,#685,#687,.T.);
#685 = VERTEX_POINT('',#686);
#686 = CARTESIAN_POINT('',(63.62,24.75184,2.4));
#687 = CIRCLE('',#688,1.2);
#688 = AXIS2_PLACEMENT_3D('',#689,#690,#691);
#689 = CARTESIAN_POINT('',(62.42,24.75184,2.4));
#690 = DIRECTION('',(0.,0.,1.));
#691 = DIRECTION('',(1.,0.,-0.));
#692 = FACE_BOUND('',#693,.T.);
#693 = EDGE_LOOP('',(#694));
#694 = ORIENTED_EDGE('',*,*,#695,.F.);
#695 = EDGE_CURVE('',#696,#696,#698,.T.);
#696 = VERTEX_POINT('',#697);
#697 = CARTESIAN_POINT('',(15.7,53.30184,2.4));
#698 = CIRCLE('',#699,1.5);
#699 = AXIS2_PLACEMENT_3D('',#700,#701,#702);
#700 = CARTESIAN_POINT('',(14.2,53.30184,2.4));
#701 = DIRECTION('',(0.,0.,1.));
#702 = DIRECTION('',(1.,0.,-0.));
#703 = FACE_BOUND('',#704,.T.);
#704 = EDGE_LOOP('',(#705));
#705 = ORIENTED_EDGE('',*,*,#706,.F.);
#706 = EDGE_CURVE('',#707,#707,#709,.T.);
#707 = VERTEX_POINT('',#708);
#708 = CARTESIAN_POINT('',(138.7,53.30184,2.4));
#709 = CIRCLE('',#710,1.5);
#710 = AXIS2_PLACEMENT_3D('',#711,#712,#713);
#711 = CARTESIAN_POINT('',(137.2,53.30184,2.4));
#712 = DIRECTION('',(0.,0.,1.));
#713 = DIRECTION('',(1.,0.,-0.));
#714 = PLANE('',#715);
#715 = AXIS2_PLACEMENT_3D('',#716,#717,#718);
#716 = CARTESIAN_POINT('',(75.750011514608,24.75092,2.4));
#717 = DIRECTION('',(0.,0.,1.));
#718 = DIRECTION('',(1.,0.,-0.));
#719 = ADVANCED_FACE('',(#720),#758,.T.);
#720 = FACE_BOUND('',#721,.T.);
#721 = EDGE_LOOP('',(#722,#723,#756,#757));
#722 = ORIENTED_EDGE('',*,*,#371,.F.);
#723 = ORIENTED_EDGE('',*,*,#724,.T.);
#724 = EDGE_CURVE('',#364,#548,#725,.T.);
#725 = B_SPLINE_CURVE_WITH_KNOTS('',5,(#726,#727,#728,#729,#730,#731,
    #732,#733,#734,#735,#736,#737,#738,#739,#740,#741,#742,#743,#744,
    #745,#746,#747,#748,#749,#750,#751,#752,#753,#754,#755),
  .UNSPECIFIED.,.F.,.F.,(6,4,4,4,4,4,4,6),(0.,0.177600245466,
    0.335432120201,0.486809400066,0.545775483629,0.628474911302,
    0.755593392613,1.),.UNSPECIFIED.);
#726 = CARTESIAN_POINT('',(142.09897948556,49.50184,1.5));
#727 = CARTESIAN_POINT('',(142.09897948556,49.50184,1.553783485106));
#728 = CARTESIAN_POINT('',(142.09586301795,49.497822336776,
    1.607575546619));
#729 = CARTESIAN_POINT('',(142.08962898567,49.489784934667,
    1.660931699701));
#730 = CARTESIAN_POINT('',(142.08028643563,49.47780979264,1.713420356445
    ));
#731 = CARTESIAN_POINT('',(142.05681290596,49.448051415454,
    1.810151473252));
#732 = CARTESIAN_POINT('',(142.04332967125,49.43106173513,1.854665797955
    ));
#733 = CARTESIAN_POINT('',(142.02743116302,49.411202960791,
    1.897865873678));
#734 = CARTESIAN_POINT('',(142.0091581026,49.388650965462,1.939474142752
    ));
#735 = CARTESIAN_POINT('',(141.96883296024,49.339618635313,
    2.017411557654));
#736 = CARTESIAN_POINT('',(141.9469681238,49.313339243126,2.053882941249
    ));
#737 = CARTESIAN_POINT('',(141.92304687133,49.284988511706,
    2.088447469544));
#738 = CARTESIAN_POINT('',(141.89716086803,49.254809451633,2.12093116531
    ));
#739 = CARTESIAN_POINT('',(141.85863200741,49.210701115527,
    2.163008425276));
#740 = CARTESIAN_POINT('',(141.84755164113,49.198098768641,
    2.174469901282));
#741 = CARTESIAN_POINT('',(141.83619902963,49.185274685663,
    2.185590127408));
#742 = CARTESIAN_POINT('',(141.82458191482,49.172244637205,
    2.196363364833));
#743 = CARTESIAN_POINT('',(141.79605626166,49.140483501329,
    2.221401825448));
#744 = CARTESIAN_POINT('',(141.77889985387,49.121568514924,
    2.235327274449));
#745 = CARTESIAN_POINT('',(141.76126220083,49.102323684202,
    2.248549632357));
#746 = CARTESIAN_POINT('',(141.74316730428,49.082792098462,
    2.261062044683));
#747 = CARTESIAN_POINT('',(141.69616216306,49.032617486738,
    2.291001796504));
#748 = CARTESIAN_POINT('',(141.66666905404,49.00164716169,2.30745534601)
  );
#749 = CARTESIAN_POINT('',(141.63624209235,48.970246917189,
    2.322224352649));
#750 = CARTESIAN_POINT('',(141.60497221507,48.938554653928,
    2.335325797217));
#751 = CARTESIAN_POINT('',(141.51141164932,48.845466148886,2.36883972123
    ));
#752 = CARTESIAN_POINT('',(141.44717485734,48.783697303967,2.38482477436
    ));
#753 = CARTESIAN_POINT('',(141.38075056902,48.722121683346,
    2.395083348309));
#754 = CARTESIAN_POINT('',(141.31267158162,48.661338369544,2.4));
#755 = CARTESIAN_POINT('',(141.24351332383,48.60184,2.4));
#756 = ORIENTED_EDGE('',*,*,#547,.T.);
#757 = ORIENTED_EDGE('',*,*,#109,.F.);
#758 = CYLINDRICAL_SURFACE('',#759,0.9);
#759 = AXIS2_PLACEMENT_3D('',#760,#761,#762);
#760 = CARTESIAN_POINT('',(0.,48.60184,1.5));
#761 = DIRECTION('',(1.,0.,-0.));
#762 = DIRECTION('',(0.,1.,0.));
#763 = ADVANCED_FACE('',(#764),#813,.T.);
#764 = FACE_BOUND('',#765,.T.);
#765 = EDGE_LOOP('',(#766,#767,#768,#769,#770,#771,#779,#812));
#766 = ORIENTED_EDGE('',*,*,#555,.F.);
#767 = ORIENTED_EDGE('',*,*,#724,.F.);
#768 = ORIENTED_EDGE('',*,*,#363,.F.);
#769 = ORIENTED_EDGE('',*,*,#230,.T.);
#770 = ORIENTED_EDGE('',*,*,#221,.T.);
#771 = ORIENTED_EDGE('',*,*,#772,.T.);
#772 = EDGE_CURVE('',#214,#773,#775,.T.);
#773 = VERTEX_POINT('',#774);
#774 = CARTESIAN_POINT('',(132.30102051443,49.50184,1.5));
#775 = LINE('',#776,#777);
#776 = CARTESIAN_POINT('',(132.30102051443,49.50184,0.));
#777 = VECTOR('',#778,1.);
#778 = DIRECTION('',(0.,0.,1.));
#779 = ORIENTED_EDGE('',*,*,#780,.T.);
#780 = EDGE_CURVE('',#773,#565,#781,.T.);
#781 = B_SPLINE_CURVE_WITH_KNOTS('',5,(#782,#783,#784,#785,#786,#787,
    #788,#789,#790,#791,#792,#793,#794,#795,#796,#797,#798,#799,#800,
    #801,#802,#803,#804,#805,#806,#807,#808,#809,#810,#811),
  .UNSPECIFIED.,.F.,.F.,(6,4,4,4,4,4,4,6),(0.,0.177600245467,
    0.335432120204,0.486809400069,0.545775483633,0.628474911307,
    0.755593392617,1.),.UNSPECIFIED.);
#782 = CARTESIAN_POINT('',(132.30102051443,49.50184,1.5));
#783 = CARTESIAN_POINT('',(132.30102051443,49.50184,1.553783485106));
#784 = CARTESIAN_POINT('',(132.30413698204,49.497822336776,
    1.607575546619));
#785 = CARTESIAN_POINT('',(132.31037101432,49.489784934667,
    1.660931699701));
#786 = CARTESIAN_POINT('',(132.31971356436,49.47780979264,1.713420356445
    ));
#787 = CARTESIAN_POINT('',(132.34318709403,49.448051415454,
    1.810151473252));
#788 = CARTESIAN_POINT('',(132.35667032874,49.43106173513,1.854665797955
    ));
#789 = CARTESIAN_POINT('',(132.37256883697,49.411202960791,
    1.897865873678));
#790 = CARTESIAN_POINT('',(132.3908418974,49.388650965462,1.939474142752
    ));
#791 = CARTESIAN_POINT('',(132.43116703975,49.339618635313,
    2.017411557654));
#792 = CARTESIAN_POINT('',(132.45303187619,49.313339243126,
    2.053882941249));
#793 = CARTESIAN_POINT('',(132.47695312866,49.284988511706,
    2.088447469544));
#794 = CARTESIAN_POINT('',(132.50283913196,49.254809451633,2.12093116531
    ));
#795 = CARTESIAN_POINT('',(132.54136799259,49.210701115527,
    2.163008425276));
#796 = CARTESIAN_POINT('',(132.55244835886,49.198098768641,
    2.174469901282));
#797 = CARTESIAN_POINT('',(132.56380097036,49.185274685663,
    2.185590127408));
#798 = CARTESIAN_POINT('',(132.57541808517,49.172244637205,
    2.196363364833));
#799 = CARTESIAN_POINT('',(132.60394373833,49.140483501329,
    2.221401825448));
#800 = CARTESIAN_POINT('',(132.62110014612,49.121568514924,
    2.235327274449));
#801 = CARTESIAN_POINT('',(132.63873779916,49.102323684202,
    2.248549632357));
#802 = CARTESIAN_POINT('',(132.65683269571,49.082792098462,
    2.261062044683));
#803 = CARTESIAN_POINT('',(132.70383783693,49.032617486739,
    2.291001796504));
#804 = CARTESIAN_POINT('',(132.73333094595,49.00164716169,2.30745534601)
  );
#805 = CARTESIAN_POINT('',(132.76375790764,48.970246917189,
    2.322224352649));
#806 = CARTESIAN_POINT('',(132.79502778492,48.938554653928,
    2.335325797216));
#807 = CARTESIAN_POINT('',(132.88858835067,48.845466148886,2.36883972123
    ));
#808 = CARTESIAN_POINT('',(132.95282514265,48.783697303967,2.38482477436
    ));
#809 = CARTESIAN_POINT('',(133.01924943097,48.722121683346,
    2.395083348309));
#810 = CARTESIAN_POINT('',(133.08732841837,48.661338369544,2.4));
#811 = CARTESIAN_POINT('',(133.15648667616,48.60184,2.4));
#812 = ORIENTED_EDGE('',*,*,#564,.F.);
#813 = CYLINDRICAL_SURFACE('',#814,6.2);
#814 = AXIS2_PLACEMENT_3D('',#815,#816,#817);
#815 = CARTESIAN_POINT('',(137.2,53.30184,0.));
#816 = DIRECTION('',(0.,0.,1.));
#817 = DIRECTION('',(1.,0.,-0.));
#818 = ADVANCED_FACE('',(#819),#837,.T.);
#819 = FACE_BOUND('',#820,.T.);
#820 = EDGE_LOOP('',(#821,#829,#835,#836));
#821 = ORIENTED_EDGE('',*,*,#822,.T.);
#822 = EDGE_CURVE('',#205,#823,#825,.T.);
#823 = VERTEX_POINT('',#824);
#824 = CARTESIAN_POINT('',(19.098979485566,49.50184,1.5));
#825 = LINE('',#826,#827);
#826 = CARTESIAN_POINT('',(19.098979485566,49.50184,0.));
#827 = VECTOR('',#828,1.);
#828 = DIRECTION('',(0.,0.,1.));
#829 = ORIENTED_EDGE('',*,*,#830,.T.);
#830 = EDGE_CURVE('',#823,#773,#831,.T.);
#831 = LINE('',#832,#833);
#832 = CARTESIAN_POINT('',(0.,49.50184,1.5));
#833 = VECTOR('',#834,1.);
#834 = DIRECTION('',(1.,0.,-0.));
#835 = ORIENTED_EDGE('',*,*,#772,.F.);
#836 = ORIENTED_EDGE('',*,*,#213,.F.);
#837 = PLANE('',#838);
#838 = AXIS2_PLACEMENT_3D('',#839,#840,#841);
#839 = CARTESIAN_POINT('',(0.,49.50184,0.));
#840 = DIRECTION('',(-0.,1.,0.));
#841 = DIRECTION('',(0.,0.,1.));
#842 = ADVANCED_FACE('',(#843),#861,.F.);
#843 = FACE_BOUND('',#844,.F.);
#844 = EDGE_LOOP('',(#845,#853,#859,#860));
#845 = ORIENTED_EDGE('',*,*,#846,.T.);
#846 = EDGE_CURVE('',#146,#847,#849,.T.);
#847 = VERTEX_POINT('',#848);
#848 = CARTESIAN_POINT('',(19.098979485566,-1.110223024625E-16,1.5));
#849 = LINE('',#850,#851);
#850 = CARTESIAN_POINT('',(19.098979485566,0.,0.));
#851 = VECTOR('',#852,1.);
#852 = DIRECTION('',(0.,0.,1.));
#853 = ORIENTED_EDGE('',*,*,#854,.T.);
#854 = EDGE_CURVE('',#847,#399,#855,.T.);
#855 = LINE('',#856,#857);
#856 = CARTESIAN_POINT('',(0.,-1.110223024625E-16,1.5));
#857 = VECTOR('',#858,1.);
#858 = DIRECTION('',(1.,0.,-0.));
#859 = ORIENTED_EDGE('',*,*,#429,.F.);
#860 = ORIENTED_EDGE('',*,*,#145,.F.);
#861 = PLANE('',#862);
#862 = AXIS2_PLACEMENT_3D('',#863,#864,#865);
#863 = CARTESIAN_POINT('',(0.,0.,0.));
#864 = DIRECTION('',(-0.,1.,0.));
#865 = DIRECTION('',(0.,0.,1.));
#866 = ADVANCED_FACE('',(#867),#948,.T.);
#867 = FACE_BOUND('',#868,.T.);
#868 = EDGE_LOOP('',(#869,#870,#903,#904,#905,#906,#914,#947));
#869 = ORIENTED_EDGE('',*,*,#581,.F.);
#870 = ORIENTED_EDGE('',*,*,#871,.F.);
#871 = EDGE_CURVE('',#823,#574,#872,.T.);
#872 = B_SPLINE_CURVE_WITH_KNOTS('',5,(#873,#874,#875,#876,#877,#878,
    #879,#880,#881,#882,#883,#884,#885,#886,#887,#888,#889,#890,#891,
    #892,#893,#894,#895,#896,#897,#898,#899,#900,#901,#902),
  .UNSPECIFIED.,.F.,.F.,(6,4,4,4,4,4,4,6),(0.,0.177600253755,
    0.335432135856,0.486809422785,0.545775509101,0.628474940634,
    0.755593418233,1.),.UNSPECIFIED.);
#873 = CARTESIAN_POINT('',(19.098979485566,49.50184,1.5));
#874 = CARTESIAN_POINT('',(19.098979485566,49.50184,1.553783485106));
#875 = CARTESIAN_POINT('',(19.095863017957,49.497822336776,
    1.607575546619));
#876 = CARTESIAN_POINT('',(19.089628985672,49.489784934667,
    1.660931699701));
#877 = CARTESIAN_POINT('',(19.080286435636,49.47780979264,1.713420356445
    ));
#878 = CARTESIAN_POINT('',(19.056812905964,49.448051415454,
    1.810151473252));
#879 = CARTESIAN_POINT('',(19.043329671255,49.43106173513,1.854665797955
    ));
#880 = CARTESIAN_POINT('',(19.027431163021,49.411202960791,
    1.897865873678));
#881 = CARTESIAN_POINT('',(19.0091581026,49.388650965462,1.939474142752)
  );
#882 = CARTESIAN_POINT('',(18.968832960246,49.339618635313,
    2.017411557654));
#883 = CARTESIAN_POINT('',(18.946968123803,49.313339243126,
    2.053882941249));
#884 = CARTESIAN_POINT('',(18.923046871332,49.284988511706,
    2.088447469544));
#885 = CARTESIAN_POINT('',(18.897160868031,49.254809451633,2.12093116531
    ));
#886 = CARTESIAN_POINT('',(18.85863200741,49.210701115527,2.163008425276
    ));
#887 = CARTESIAN_POINT('',(18.847551641136,49.198098768641,
    2.174469901282));
#888 = CARTESIAN_POINT('',(18.836199029638,49.185274685663,
    2.185590127408));
#889 = CARTESIAN_POINT('',(18.824581914824,49.172244637205,
    2.196363364833));
#890 = CARTESIAN_POINT('',(18.796056261664,49.140483501329,
    2.221401825448));
#891 = CARTESIAN_POINT('',(18.778899853879,49.121568514924,
    2.235327274449));
#892 = CARTESIAN_POINT('',(18.761262200831,49.102323684202,
    2.248549632357));
#893 = CARTESIAN_POINT('',(18.743167304282,49.082792098462,
    2.261062044683));
#894 = CARTESIAN_POINT('',(18.696162165228,49.032617489044,
    2.291001795128));
#895 = CARTESIAN_POINT('',(18.666669052066,49.001647159694,2.30745534682
    ));
#896 = CARTESIAN_POINT('',(18.636242090505,48.970246915245,
    2.322224353713));
#897 = CARTESIAN_POINT('',(18.6049722175,48.938554656337,2.335325796349)
  );
#898 = CARTESIAN_POINT('',(18.511411649321,48.845466148886,2.36883972123
    ));
#899 = CARTESIAN_POINT('',(18.447174857341,48.783697303967,2.38482477436
    ));
#900 = CARTESIAN_POINT('',(18.380750569026,48.722121683346,
    2.395083348309));
#901 = CARTESIAN_POINT('',(18.312671581629,48.661338369544,2.4));
#902 = CARTESIAN_POINT('',(18.243513323831,48.60184,2.4));
#903 = ORIENTED_EDGE('',*,*,#822,.F.);
#904 = ORIENTED_EDGE('',*,*,#204,.T.);
#905 = ORIENTED_EDGE('',*,*,#195,.T.);
#906 = ORIENTED_EDGE('',*,*,#907,.T.);
#907 = EDGE_CURVE('',#188,#908,#910,.T.);
#908 = VERTEX_POINT('',#909);
#909 = CARTESIAN_POINT('',(9.301020514434,49.50184,1.5));
#910 = LINE('',#911,#912);
#911 = CARTESIAN_POINT('',(9.301020514434,49.50184,0.));
#912 = VECTOR('',#913,1.);
#913 = DIRECTION('',(0.,0.,1.));
#914 = ORIENTED_EDGE('',*,*,#915,.T.);
#915 = EDGE_CURVE('',#908,#591,#916,.T.);
#916 = B_SPLINE_CURVE_WITH_KNOTS('',5,(#917,#918,#919,#920,#921,#922,
    #923,#924,#925,#926,#927,#928,#929,#930,#931,#932,#933,#934,#935,
    #936,#937,#938,#939,#940,#941,#942,#943,#944,#945,#946),
  .UNSPECIFIED.,.F.,.F.,(6,4,4,4,4,4,4,6),(0.,0.177600255642,
    0.33543213942,0.486809427958,0.5457755149,0.628474947312,
    0.755593424065,1.),.UNSPECIFIED.);
#917 = CARTESIAN_POINT('',(9.301020514434,49.50184,1.5));
#918 = CARTESIAN_POINT('',(9.301020514434,49.50184,1.553783485106));
#919 = CARTESIAN_POINT('',(9.304136982043,49.497822336776,1.607575546619
    ));
#920 = CARTESIAN_POINT('',(9.310371014328,49.489784934667,1.660931699701
    ));
#921 = CARTESIAN_POINT('',(9.319713564364,49.47780979264,1.713420356445)
  );
#922 = CARTESIAN_POINT('',(9.343187094036,49.448051415454,1.810151473252
    ));
#923 = CARTESIAN_POINT('',(9.356670328745,49.43106173513,1.854665797955)
  );
#924 = CARTESIAN_POINT('',(9.372568836979,49.411202960791,1.897865873678
    ));
#925 = CARTESIAN_POINT('',(9.3908418974,49.388650965462,1.939474142752)
  );
#926 = CARTESIAN_POINT('',(9.431167039754,49.339618635313,2.017411557654
    ));
#927 = CARTESIAN_POINT('',(9.453031876197,49.313339243126,2.053882941249
    ));
#928 = CARTESIAN_POINT('',(9.476953128668,49.284988511706,2.088447469544
    ));
#929 = CARTESIAN_POINT('',(9.502839131969,49.254809451633,2.12093116531)
  );
#930 = CARTESIAN_POINT('',(9.54136799259,49.210701115527,2.163008425276)
  );
#931 = CARTESIAN_POINT('',(9.552448358864,49.198098768641,2.174469901282
    ));
#932 = CARTESIAN_POINT('',(9.563800970362,49.185274685663,2.185590127408
    ));
#933 = CARTESIAN_POINT('',(9.575418085176,49.172244637205,2.196363364833
    ));
#934 = CARTESIAN_POINT('',(9.603943738336,49.140483501329,2.221401825448
    ));
#935 = CARTESIAN_POINT('',(9.621100146121,49.121568514924,2.235327274449
    ));
#936 = CARTESIAN_POINT('',(9.638737799169,49.102323684202,2.248549632357
    ));
#937 = CARTESIAN_POINT('',(9.656832695718,49.082792098462,2.261062044683
    ));
#938 = CARTESIAN_POINT('',(9.70383783428,49.03261748957,2.291001794815)
  );
#939 = CARTESIAN_POINT('',(9.733330948385,49.001647159239,2.307455347004
    ));
#940 = CARTESIAN_POINT('',(9.763757909916,48.970246914802,2.322224353956
    ));
#941 = CARTESIAN_POINT('',(9.795027781948,48.938554656886,2.335325796152
    ));
#942 = CARTESIAN_POINT('',(9.888588350681,48.845466148884,2.368839721231
    ));
#943 = CARTESIAN_POINT('',(9.952825142658,48.783697303969,2.384824774359
    ));
#944 = CARTESIAN_POINT('',(10.019249430972,48.722121683347,
    2.395083348309));
#945 = CARTESIAN_POINT('',(10.087328418373,48.661338369542,2.4));
#946 = CARTESIAN_POINT('',(10.156486676169,48.60184,2.4));
#947 = ORIENTED_EDGE('',*,*,#590,.F.);
#948 = CYLINDRICAL_SURFACE('',#949,6.2);
#949 = AXIS2_PLACEMENT_3D('',#950,#951,#952);
#950 = CARTESIAN_POINT('',(14.2,53.30184,0.));
#951 = DIRECTION('',(0.,0.,1.));
#952 = DIRECTION('',(1.,0.,-0.));
#953 = ADVANCED_FACE('',(#954),#1027,.T.);
#954 = FACE_BOUND('',#955,.T.);
#955 = EDGE_LOOP('',(#956,#957,#958,#987,#988,#989,#1020,#1026));
#956 = ORIENTED_EDGE('',*,*,#153,.T.);
#957 = ORIENTED_EDGE('',*,*,#846,.T.);
#958 = ORIENTED_EDGE('',*,*,#959,.T.);
#959 = EDGE_CURVE('',#847,#529,#960,.T.);
#960 = B_SPLINE_CURVE_WITH_KNOTS('',5,(#961,#962,#963,#964,#965,#966,
    #967,#968,#969,#970,#971,#972,#973,#974,#975,#976,#977,#978,#979,
    #980,#981,#982,#983,#984,#985,#986),.UNSPECIFIED.,.F.,.F.,(6,4,4,4,4
    ,4,6),(0.,0.177590447223,0.337788589739,0.486782732389,
    0.625910538755,0.755575403558,1.),.UNSPECIFIED.);
#961 = CARTESIAN_POINT('',(19.098979485566,8.326672684689E-16,1.5));
#962 = CARTESIAN_POINT('',(19.098979485566,8.326672684689E-16,
    1.553783178625));
#963 = CARTESIAN_POINT('',(19.095863040145,4.017624679994E-03,
    1.607575399582));
#964 = CARTESIAN_POINT('',(19.089628993539,1.205506210474E-02,
    1.660931792996));
#965 = CARTESIAN_POINT('',(19.080286394864,2.403025904726E-02,
    1.713420524457));
#966 = CARTESIAN_POINT('',(19.056646732865,5.399924914599E-02,
    1.810836249237));
#967 = CARTESIAN_POINT('',(19.042923450789,7.129010694702E-02,
    1.856004832297));
#968 = CARTESIAN_POINT('',(19.026712092546,9.153512734067E-02,
    1.899814382785));
#969 = CARTESIAN_POINT('',(19.008055494077,0.114549511283,1.941975318324
    ));
#970 = CARTESIAN_POINT('',(18.967458346685,0.163872922423,2.019696577874
    ));
#971 = CARTESIAN_POINT('',(18.945841245051,0.189835928944,2.055507575525
    ));
#972 = CARTESIAN_POINT('',(18.922234487706,0.217798459197,2.08946580722)
  );
#973 = CARTESIAN_POINT('',(18.896725992394,0.247528399599,2.121406091766
    ));
#974 = CARTESIAN_POINT('',(18.843947145399,0.307950303727,2.179045721642
    ));
#975 = CARTESIAN_POINT('',(18.816909314478,0.338443633403,2.205013937865
    ));
#976 = CARTESIAN_POINT('',(18.788409269695,0.370055339476,2.22903153345)
  );
#977 = CARTESIAN_POINT('',(18.758555459072,0.402575554469,2.251047423876
    ));
#978 = CARTESIAN_POINT('',(18.698515000865,0.466750525929,2.289683899228
    ));
#979 = CARTESIAN_POINT('',(18.668490327309,0.498312614464,2.306568836764
    ));
#980 = CARTESIAN_POINT('',(18.637490181648,0.530327889443,2.321700672065
    ));
#981 = CARTESIAN_POINT('',(18.605611072578,0.562649711935,2.335096954846
    ));
#982 = CARTESIAN_POINT('',(18.511411632279,0.65637386807,2.368839727335)
  );
#983 = CARTESIAN_POINT('',(18.44717483456,0.718142717529,2.384824778693)
  );
#984 = CARTESIAN_POINT('',(18.380750549605,0.779718333952,2.395083349633
    ));
#985 = CARTESIAN_POINT('',(18.312671572669,0.840501638164,2.4));
#986 = CARTESIAN_POINT('',(18.243513323831,0.9,2.4));
#987 = ORIENTED_EDGE('',*,*,#528,.F.);
#988 = ORIENTED_EDGE('',*,*,#519,.F.);
#989 = ORIENTED_EDGE('',*,*,#990,.F.);
#990 = EDGE_CURVE('',#991,#512,#993,.T.);
#991 = VERTEX_POINT('',#992);
#992 = CARTESIAN_POINT('',(9.301020514434,-1.110223024625E-16,1.5));
#993 = B_SPLINE_CURVE_WITH_KNOTS('',5,(#994,#995,#996,#997,#998,#999,
    #1000,#1001,#1002,#1003,#1004,#1005,#1006,#1007,#1008,#1009,#1010,
    #1011,#1012,#1013,#1014,#1015,#1016,#1017,#1018,#1019),
  .UNSPECIFIED.,.F.,.F.,(6,4,4,4,4,4,6),(0.,0.177590438415,
    0.337788572985,0.486782708245,0.625910507711,0.755575376489,1.),
  .UNSPECIFIED.);
#994 = CARTESIAN_POINT('',(9.301020514434,1.665334536938E-16,1.5));
#995 = CARTESIAN_POINT('',(9.301020514434,1.665334536938E-16,
    1.553783178625));
#996 = CARTESIAN_POINT('',(9.304136959855,4.017624679994E-03,
    1.607575399582));
#997 = CARTESIAN_POINT('',(9.310371006461,1.205506210475E-02,
    1.660931792996));
#998 = CARTESIAN_POINT('',(9.319713605136,2.403025904725E-02,
    1.713420524457));
#999 = CARTESIAN_POINT('',(9.343353267135,5.3999249146E-02,
    1.810836249237));
#1000 = CARTESIAN_POINT('',(9.357076549211,7.129010694702E-02,
    1.856004832297));
#1001 = CARTESIAN_POINT('',(9.373287907454,9.153512734066E-02,
    1.899814382785));
#1002 = CARTESIAN_POINT('',(9.391944505923,0.114549511283,1.941975318324
    ));
#1003 = CARTESIAN_POINT('',(9.432541653315,0.163872922423,2.019696577874
    ));
#1004 = CARTESIAN_POINT('',(9.454158754949,0.189835928944,2.055507575525
    ));
#1005 = CARTESIAN_POINT('',(9.477765512294,0.217798459197,2.08946580722)
  );
#1006 = CARTESIAN_POINT('',(9.503274007606,0.247528399599,2.121406091766
    ));
#1007 = CARTESIAN_POINT('',(9.556052854601,0.307950303727,2.179045721642
    ));
#1008 = CARTESIAN_POINT('',(9.583090685522,0.338443633403,2.205013937865
    ));
#1009 = CARTESIAN_POINT('',(9.611590730305,0.370055339476,2.22903153345)
  );
#1010 = CARTESIAN_POINT('',(9.641444540928,0.402575554469,2.251047423876
    ));
#1011 = CARTESIAN_POINT('',(9.70148500146,0.466750528413,2.289683900724)
  );
#1012 = CARTESIAN_POINT('',(9.731509670557,0.498312612311,2.306568835888
    ));
#1013 = CARTESIAN_POINT('',(9.762509816362,0.530327887348,2.321700670909
    ));
#1014 = CARTESIAN_POINT('',(9.794388930034,0.562649714534,2.335096955782
    ));
#1015 = CARTESIAN_POINT('',(9.888588367727,0.656373868076,2.368839727337
    ));
#1016 = CARTESIAN_POINT('',(9.952825165436,0.718142717524,2.38482477869)
  );
#1017 = CARTESIAN_POINT('',(10.01924945039,0.779718333948,2.395083349634
    ));
#1018 = CARTESIAN_POINT('',(10.087328427337,0.840501638169,2.4));
#1019 = CARTESIAN_POINT('',(10.156486676169,0.9,2.4));
#1020 = ORIENTED_EDGE('',*,*,#1021,.F.);
#1021 = EDGE_CURVE('',#163,#991,#1022,.T.);
#1022 = LINE('',#1023,#1024);
#1023 = CARTESIAN_POINT('',(9.301020514434,0.,0.));
#1024 = VECTOR('',#1025,1.);
#1025 = DIRECTION('',(0.,0.,1.));
#1026 = ORIENTED_EDGE('',*,*,#162,.T.);
#1027 = CYLINDRICAL_SURFACE('',#1028,6.2);
#1028 = AXIS2_PLACEMENT_3D('',#1029,#1030,#1031);
#1029 = CARTESIAN_POINT('',(14.2,-3.8,0.));
#1030 = DIRECTION('',(0.,0.,1.));
#1031 = DIRECTION('',(1.,0.,-0.));
#1032 = ADVANCED_FACE('',(#1033),#1051,.T.);
#1033 = FACE_BOUND('',#1034,.T.);
#1034 = EDGE_LOOP('',(#1035,#1043,#1044,#1045));
#1035 = ORIENTED_EDGE('',*,*,#1036,.T.);
#1036 = EDGE_CURVE('',#1037,#908,#1039,.T.);
#1037 = VERTEX_POINT('',#1038);
#1038 = CARTESIAN_POINT('',(-1.110223024625E-16,49.50184,1.5));
#1039 = LINE('',#1040,#1041);
#1040 = CARTESIAN_POINT('',(0.,49.50184,1.5));
#1041 = VECTOR('',#1042,1.);
#1042 = DIRECTION('',(1.,0.,-0.));
#1043 = ORIENTED_EDGE('',*,*,#907,.F.);
#1044 = ORIENTED_EDGE('',*,*,#187,.F.);
#1045 = ORIENTED_EDGE('',*,*,#1046,.T.);
#1046 = EDGE_CURVE('',#180,#1037,#1047,.T.);
#1047 = LINE('',#1048,#1049);
#1048 = CARTESIAN_POINT('',(0.,49.50184,0.));
#1049 = VECTOR('',#1050,1.);
#1050 = DIRECTION('',(0.,0.,1.));
#1051 = PLANE('',#1052);
#1052 = AXIS2_PLACEMENT_3D('',#1053,#1054,#1055);
#1053 = CARTESIAN_POINT('',(0.,49.50184,0.));
#1054 = DIRECTION('',(-0.,1.,0.));
#1055 = DIRECTION('',(0.,0.,1.));
#1056 = ADVANCED_FACE('',(#1057),#1075,.F.);
#1057 = FACE_BOUND('',#1058,.F.);
#1058 = EDGE_LOOP('',(#1059,#1067,#1068,#1069));
#1059 = ORIENTED_EDGE('',*,*,#1060,.T.);
#1060 = EDGE_CURVE('',#1061,#991,#1063,.T.);
#1061 = VERTEX_POINT('',#1062);
#1062 = CARTESIAN_POINT('',(-1.110223024625E-16,0.,1.5));
#1063 = LINE('',#1064,#1065);
#1064 = CARTESIAN_POINT('',(0.,-1.110223024625E-16,1.5));
#1065 = VECTOR('',#1066,1.);
#1066 = DIRECTION('',(1.,0.,-0.));
#1067 = ORIENTED_EDGE('',*,*,#1021,.F.);
#1068 = ORIENTED_EDGE('',*,*,#171,.F.);
#1069 = ORIENTED_EDGE('',*,*,#1070,.T.);
#1070 = EDGE_CURVE('',#172,#1061,#1071,.T.);
#1071 = LINE('',#1072,#1073);
#1072 = CARTESIAN_POINT('',(0.,0.,0.));
#1073 = VECTOR('',#1074,1.);
#1074 = DIRECTION('',(0.,0.,1.));
#1075 = PLANE('',#1076);
#1076 = AXIS2_PLACEMENT_3D('',#1077,#1078,#1079);
#1077 = CARTESIAN_POINT('',(0.,0.,0.));
#1078 = DIRECTION('',(-0.,1.,0.));
#1079 = DIRECTION('',(0.,0.,1.));
#1080 = ADVANCED_FACE('',(#1081),#1092,.F.);
#1081 = FACE_BOUND('',#1082,.F.);
#1082 = EDGE_LOOP('',(#1083,#1084,#1085,#1086));
#1083 = ORIENTED_EDGE('',*,*,#1070,.F.);
#1084 = ORIENTED_EDGE('',*,*,#179,.T.);
#1085 = ORIENTED_EDGE('',*,*,#1046,.T.);
#1086 = ORIENTED_EDGE('',*,*,#1087,.F.);
#1087 = EDGE_CURVE('',#1061,#1037,#1088,.T.);
#1088 = LINE('',#1089,#1090);
#1089 = CARTESIAN_POINT('',(-1.110223024625E-16,0.,1.5));
#1090 = VECTOR('',#1091,1.);
#1091 = DIRECTION('',(-0.,1.,0.));
#1092 = PLANE('',#1093);
#1093 = AXIS2_PLACEMENT_3D('',#1094,#1095,#1096);
#1094 = CARTESIAN_POINT('',(0.,0.,0.));
#1095 = DIRECTION('',(1.,0.,-0.));
#1096 = DIRECTION('',(0.,0.,1.));
#1097 = ADVANCED_FACE('',(#1098),#1109,.F.);
#1098 = FACE_BOUND('',#1099,.F.);
#1099 = EDGE_LOOP('',(#1100,#1101,#1107,#1108));
#1100 = ORIENTED_EDGE('',*,*,#673,.F.);
#1101 = ORIENTED_EDGE('',*,*,#1102,.F.);
#1102 = EDGE_CURVE('',#248,#674,#1103,.T.);
#1103 = LINE('',#1104,#1105);
#1104 = CARTESIAN_POINT('',(138.7,-3.8,-0.5));
#1105 = VECTOR('',#1106,1.);
#1106 = DIRECTION('',(0.,0.,1.));
#1107 = ORIENTED_EDGE('',*,*,#247,.T.);
#1108 = ORIENTED_EDGE('',*,*,#1102,.T.);
#1109 = CYLINDRICAL_SURFACE('',#1110,1.5);
#1110 = AXIS2_PLACEMENT_3D('',#1111,#1112,#1113);
#1111 = CARTESIAN_POINT('',(137.2,-3.8,-0.5));
#1112 = DIRECTION('',(0.,0.,1.));
#1113 = DIRECTION('',(1.,0.,-0.));
#1114 = ADVANCED_FACE('',(#1115),#1126,.F.);
#1115 = FACE_BOUND('',#1116,.F.);
#1116 = EDGE_LOOP('',(#1117,#1118,#1124,#1125));
#1117 = ORIENTED_EDGE('',*,*,#618,.F.);
#1118 = ORIENTED_EDGE('',*,*,#1119,.F.);
#1119 = EDGE_CURVE('',#259,#619,#1120,.T.);
#1120 = LINE('',#1121,#1122);
#1121 = CARTESIAN_POINT('',(59.375,7.55184,-0.5));
#1122 = VECTOR('',#1123,1.);
#1123 = DIRECTION('',(0.,0.,1.));
#1124 = ORIENTED_EDGE('',*,*,#258,.T.);
#1125 = ORIENTED_EDGE('',*,*,#1119,.T.);
#1126 = CYLINDRICAL_SURFACE('',#1127,2.5);
#1127 = AXIS2_PLACEMENT_3D('',#1128,#1129,#1130);
#1128 = CARTESIAN_POINT('',(56.875,7.55184,-0.5));
#1129 = DIRECTION('',(0.,0.,1.));
#1130 = DIRECTION('',(1.,0.,-0.));
#1131 = ADVANCED_FACE('',(#1132),#1143,.F.);
#1132 = FACE_BOUND('',#1133,.F.);
#1133 = EDGE_LOOP('',(#1134,#1135,#1141,#1142));
#1134 = ORIENTED_EDGE('',*,*,#607,.F.);
#1135 = ORIENTED_EDGE('',*,*,#1136,.F.);
#1136 = EDGE_CURVE('',#270,#608,#1137,.T.);
#1137 = LINE('',#1138,#1139);
#1138 = CARTESIAN_POINT('',(15.7,-3.8,-0.5));
#1139 = VECTOR('',#1140,1.);
#1140 = DIRECTION('',(0.,0.,1.));
#1141 = ORIENTED_EDGE('',*,*,#269,.T.);
#1142 = ORIENTED_EDGE('',*,*,#1136,.T.);
#1143 = CYLINDRICAL_SURFACE('',#1144,1.5);
#1144 = AXIS2_PLACEMENT_3D('',#1145,#1146,#1147);
#1145 = CARTESIAN_POINT('',(14.2,-3.8,-0.5));
#1146 = DIRECTION('',(0.,0.,1.));
#1147 = DIRECTION('',(1.,0.,-0.));
#1148 = ADVANCED_FACE('',(#1149),#1160,.F.);
#1149 = FACE_BOUND('',#1150,.F.);
#1150 = EDGE_LOOP('',(#1151,#1152,#1158,#1159));
#1151 = ORIENTED_EDGE('',*,*,#651,.F.);
#1152 = ORIENTED_EDGE('',*,*,#1153,.F.);
#1153 = EDGE_CURVE('',#281,#652,#1154,.T.);
#1154 = LINE('',#1155,#1156);
#1155 = CARTESIAN_POINT('',(59.25,13.35184,-0.5));
#1156 = VECTOR('',#1157,1.);
#1157 = DIRECTION('',(0.,0.,1.));
#1158 = ORIENTED_EDGE('',*,*,#280,.T.);
#1159 = ORIENTED_EDGE('',*,*,#1153,.T.);
#1160 = CYLINDRICAL_SURFACE('',#1161,2.5);
#1161 = AXIS2_PLACEMENT_3D('',#1162,#1163,#1164);
#1162 = CARTESIAN_POINT('',(56.75,13.35184,-0.5));
#1163 = DIRECTION('',(0.,0.,1.));
#1164 = DIRECTION('',(1.,0.,-0.));
#1165 = ADVANCED_FACE('',(#1166),#1177,.F.);
#1166 = FACE_BOUND('',#1167,.F.);
#1167 = EDGE_LOOP('',(#1168,#1169,#1175,#1176));
#1168 = ORIENTED_EDGE('',*,*,#662,.F.);
#1169 = ORIENTED_EDGE('',*,*,#1170,.F.);
#1170 = EDGE_CURVE('',#292,#663,#1171,.T.);
#1171 = LINE('',#1172,#1173);
#1172 = CARTESIAN_POINT('',(59.25,19.15184,-0.5));
#1173 = VECTOR('',#1174,1.);
#1174 = DIRECTION('',(0.,0.,1.));
#1175 = ORIENTED_EDGE('',*,*,#291,.T.);
#1176 = ORIENTED_EDGE('',*,*,#1170,.T.);
#1177 = CYLINDRICAL_SURFACE('',#1178,2.5);
#1178 = AXIS2_PLACEMENT_3D('',#1179,#1180,#1181);
#1179 = CARTESIAN_POINT('',(56.75,19.15184,-0.5));
#1180 = DIRECTION('',(0.,0.,1.));
#1181 = DIRECTION('',(1.,0.,-0.));
#1182 = ADVANCED_FACE('',(#1183),#1194,.F.);
#1183 = FACE_BOUND('',#1184,.F.);
#1184 = EDGE_LOOP('',(#1185,#1186,#1192,#1193));
#1185 = ORIENTED_EDGE('',*,*,#629,.F.);
#1186 = ORIENTED_EDGE('',*,*,#1187,.F.);
#1187 = EDGE_CURVE('',#303,#630,#1188,.T.);
#1188 = LINE('',#1189,#1190);
#1189 = CARTESIAN_POINT('',(34.68,14.75184,-0.5));
#1190 = VECTOR('',#1191,1.);
#1191 = DIRECTION('',(0.,0.,1.));
#1192 = ORIENTED_EDGE('',*,*,#302,.T.);
#1193 = ORIENTED_EDGE('',*,*,#1187,.T.);
#1194 = CYLINDRICAL_SURFACE('',#1195,1.2);
#1195 = AXIS2_PLACEMENT_3D('',#1196,#1197,#1198);
#1196 = CARTESIAN_POINT('',(33.48,14.75184,-0.5));
#1197 = DIRECTION('',(0.,0.,1.));
#1198 = DIRECTION('',(1.,0.,-0.));
#1199 = ADVANCED_FACE('',(#1200),#1211,.F.);
#1200 = FACE_BOUND('',#1201,.F.);
#1201 = EDGE_LOOP('',(#1202,#1203,#1209,#1210));
#1202 = ORIENTED_EDGE('',*,*,#640,.F.);
#1203 = ORIENTED_EDGE('',*,*,#1204,.F.);
#1204 = EDGE_CURVE('',#314,#641,#1205,.T.);
#1205 = LINE('',#1206,#1207);
#1206 = CARTESIAN_POINT('',(34.68,17.25184,-0.5));
#1207 = VECTOR('',#1208,1.);
#1208 = DIRECTION('',(0.,0.,1.));
#1209 = ORIENTED_EDGE('',*,*,#313,.T.);
#1210 = ORIENTED_EDGE('',*,*,#1204,.T.);
#1211 = CYLINDRICAL_SURFACE('',#1212,1.2);
#1212 = AXIS2_PLACEMENT_3D('',#1213,#1214,#1215);
#1213 = CARTESIAN_POINT('',(33.48,17.25184,-0.5));
#1214 = DIRECTION('',(0.,0.,1.));
#1215 = DIRECTION('',(1.,0.,-0.));
#1216 = ADVANCED_FACE('',(#1217),#1228,.F.);
#1217 = FACE_BOUND('',#1218,.F.);
#1218 = EDGE_LOOP('',(#1219,#1220,#1226,#1227));
#1219 = ORIENTED_EDGE('',*,*,#706,.F.);
#1220 = ORIENTED_EDGE('',*,*,#1221,.F.);
#1221 = EDGE_CURVE('',#325,#707,#1222,.T.);
#1222 = LINE('',#1223,#1224);
#1223 = CARTESIAN_POINT('',(138.7,53.30184,-0.5));
#1224 = VECTOR('',#1225,1.);
#1225 = DIRECTION('',(0.,0.,1.));
#1226 = ORIENTED_EDGE('',*,*,#324,.T.);
#1227 = ORIENTED_EDGE('',*,*,#1221,.T.);
#1228 = CYLINDRICAL_SURFACE('',#1229,1.5);
#1229 = AXIS2_PLACEMENT_3D('',#1230,#1231,#1232);
#1230 = CARTESIAN_POINT('',(137.2,53.30184,-0.5));
#1231 = DIRECTION('',(0.,0.,1.));
#1232 = DIRECTION('',(1.,0.,-0.));
#1233 = ADVANCED_FACE('',(#1234),#1245,.F.);
#1234 = FACE_BOUND('',#1235,.F.);
#1235 = EDGE_LOOP('',(#1236,#1237,#1243,#1244));
#1236 = ORIENTED_EDGE('',*,*,#684,.F.);
#1237 = ORIENTED_EDGE('',*,*,#1238,.F.);
#1238 = EDGE_CURVE('',#336,#685,#1239,.T.);
#1239 = LINE('',#1240,#1241);
#1240 = CARTESIAN_POINT('',(63.62,24.75184,-0.5));
#1241 = VECTOR('',#1242,1.);
#1242 = DIRECTION('',(0.,0.,1.));
#1243 = ORIENTED_EDGE('',*,*,#335,.T.);
#1244 = ORIENTED_EDGE('',*,*,#1238,.T.);
#1245 = CYLINDRICAL_SURFACE('',#1246,1.2);
#1246 = AXIS2_PLACEMENT_3D('',#1247,#1248,#1249);
#1247 = CARTESIAN_POINT('',(62.42,24.75184,-0.5));
#1248 = DIRECTION('',(0.,0.,1.));
#1249 = DIRECTION('',(1.,0.,-0.));
#1250 = ADVANCED_FACE('',(#1251),#1262,.F.);
#1251 = FACE_BOUND('',#1252,.F.);
#1252 = EDGE_LOOP('',(#1253,#1254,#1260,#1261));
#1253 = ORIENTED_EDGE('',*,*,#695,.F.);
#1254 = ORIENTED_EDGE('',*,*,#1255,.F.);
#1255 = EDGE_CURVE('',#347,#696,#1256,.T.);
#1256 = LINE('',#1257,#1258);
#1257 = CARTESIAN_POINT('',(15.7,53.30184,-0.5));
#1258 = VECTOR('',#1259,1.);
#1259 = DIRECTION('',(0.,0.,1.));
#1260 = ORIENTED_EDGE('',*,*,#346,.T.);
#1261 = ORIENTED_EDGE('',*,*,#1255,.T.);
#1262 = CYLINDRICAL_SURFACE('',#1263,1.5);
#1263 = AXIS2_PLACEMENT_3D('',#1264,#1265,#1266);
#1264 = CARTESIAN_POINT('',(14.2,53.30184,-0.5));
#1265 = DIRECTION('',(0.,0.,1.));
#1266 = DIRECTION('',(1.,0.,-0.));
#1267 = ADVANCED_FACE('',(#1268),#1274,.T.);
#1268 = FACE_BOUND('',#1269,.F.);
#1269 = EDGE_LOOP('',(#1270,#1271,#1272,#1273));
#1270 = ORIENTED_EDGE('',*,*,#854,.F.);
#1271 = ORIENTED_EDGE('',*,*,#959,.T.);
#1272 = ORIENTED_EDGE('',*,*,#537,.T.);
#1273 = ORIENTED_EDGE('',*,*,#398,.F.);
#1274 = CYLINDRICAL_SURFACE('',#1275,0.9);
#1275 = AXIS2_PLACEMENT_3D('',#1276,#1277,#1278);
#1276 = CARTESIAN_POINT('',(0.,0.9,1.5));
#1277 = DIRECTION('',(1.,0.,-0.));
#1278 = DIRECTION('',(0.,-1.,0.));
#1279 = ADVANCED_FACE('',(#1280),#1298,.T.);
#1280 = FACE_BOUND('',#1281,.T.);
#1281 = EDGE_LOOP('',(#1282,#1289,#1290,#1297));
#1282 = ORIENTED_EDGE('',*,*,#1283,.T.);
#1283 = EDGE_CURVE('',#1061,#502,#1284,.T.);
#1284 = ELLIPSE('',#1285,1.272792206136,0.9);
#1285 = AXIS2_PLACEMENT_3D('',#1286,#1287,#1288);
#1286 = CARTESIAN_POINT('',(0.9,0.9,1.5));
#1287 = DIRECTION('',(-0.707106781187,0.707106781187,0.));
#1288 = DIRECTION('',(0.707106781187,0.707106781187,0.));
#1289 = ORIENTED_EDGE('',*,*,#501,.T.);
#1290 = ORIENTED_EDGE('',*,*,#1291,.F.);
#1291 = EDGE_CURVE('',#1037,#504,#1292,.T.);
#1292 = ELLIPSE('',#1293,1.272792206136,0.9);
#1293 = AXIS2_PLACEMENT_3D('',#1294,#1295,#1296);
#1294 = CARTESIAN_POINT('',(0.9,48.60184,1.5));
#1295 = DIRECTION('',(0.707106781187,0.707106781187,0.));
#1296 = DIRECTION('',(-0.707106781187,0.707106781187,0.));
#1297 = ORIENTED_EDGE('',*,*,#1087,.F.);
#1298 = CYLINDRICAL_SURFACE('',#1299,0.9);
#1299 = AXIS2_PLACEMENT_3D('',#1300,#1301,#1302);
#1300 = CARTESIAN_POINT('',(0.9,0.,1.5));
#1301 = DIRECTION('',(-0.,1.,0.));
#1302 = DIRECTION('',(-1.,-0.,0.));
#1303 = ADVANCED_FACE('',(#1304),#1310,.T.);
#1304 = FACE_BOUND('',#1305,.F.);
#1305 = EDGE_LOOP('',(#1306,#1307,#1308,#1309));
#1306 = ORIENTED_EDGE('',*,*,#1060,.F.);
#1307 = ORIENTED_EDGE('',*,*,#1283,.T.);
#1308 = ORIENTED_EDGE('',*,*,#511,.T.);
#1309 = ORIENTED_EDGE('',*,*,#990,.F.);
#1310 = CYLINDRICAL_SURFACE('',#1311,0.9);
#1311 = AXIS2_PLACEMENT_3D('',#1312,#1313,#1314);
#1312 = CARTESIAN_POINT('',(0.,0.9,1.5));
#1313 = DIRECTION('',(1.,0.,-0.));
#1314 = DIRECTION('',(0.,-1.,0.));
#1315 = ADVANCED_FACE('',(#1316),#1322,.T.);
#1316 = FACE_BOUND('',#1317,.T.);
#1317 = EDGE_LOOP('',(#1318,#1319,#1320,#1321));
#1318 = ORIENTED_EDGE('',*,*,#1036,.F.);
#1319 = ORIENTED_EDGE('',*,*,#1291,.T.);
#1320 = ORIENTED_EDGE('',*,*,#599,.T.);
#1321 = ORIENTED_EDGE('',*,*,#915,.F.);
#1322 = CYLINDRICAL_SURFACE('',#1323,0.9);
#1323 = AXIS2_PLACEMENT_3D('',#1324,#1325,#1326);
#1324 = CARTESIAN_POINT('',(0.,48.60184,1.5));
#1325 = DIRECTION('',(1.,0.,-0.));
#1326 = DIRECTION('',(0.,1.,0.));
#1327 = ADVANCED_FACE('',(#1328),#1334,.T.);
#1328 = FACE_BOUND('',#1329,.T.);
#1329 = EDGE_LOOP('',(#1330,#1331,#1332,#1333));
#1330 = ORIENTED_EDGE('',*,*,#830,.F.);
#1331 = ORIENTED_EDGE('',*,*,#871,.T.);
#1332 = ORIENTED_EDGE('',*,*,#573,.T.);
#1333 = ORIENTED_EDGE('',*,*,#780,.F.);
#1334 = CYLINDRICAL_SURFACE('',#1335,0.9);
#1335 = AXIS2_PLACEMENT_3D('',#1336,#1337,#1338);
#1336 = CARTESIAN_POINT('',(0.,48.60184,1.5));
#1337 = DIRECTION('',(1.,0.,-0.));
#1338 = DIRECTION('',(0.,1.,0.));
#1339 = ( GEOMETRIC_REPRESENTATION_CONTEXT(3) 
GLOBAL_UNCERTAINTY_ASSIGNED_CONTEXT((#1343)) 
GLOBAL_UNIT_ASSIGNED_CONTEXT((#1340,#1341,#1342)) REPRESENTATION_CONTEXT
('Context #1','3D Context with UNIT and UNCERTAINTY') );
#1340 = ( LENGTH_UNIT() NAMED_UNIT(*) SI_UNIT(.MILLI.,.METRE.) );
#1341 = ( NAMED_UNIT(*) PLANE_ANGLE_UNIT() SI_UNIT($,.RADIAN.) );
#1342 = ( NAMED_UNIT(*) SI_UNIT($,.STERADIAN.) SOLID_ANGLE_UNIT() );
#1343 = UNCERTAINTY_MEASURE_WITH_UNIT(LENGTH_MEASURE(1.E-07),#1340,
  'distance_accuracy_value','confusion accuracy');
#1344 = PRODUCT_RELATED_PRODUCT_CATEGORY('part',$,(#7));
ENDSEC;
END-ISO-10303-21;
