ISO-10303-21;
HEADER;
FILE_DESCRIPTION(('FreeCAD Model'),'2;1');
FILE_NAME('Open CASCADE Shape Model','2026-07-04T21:00:12',('FreeCAD'),(
    'FreeCAD'),'Open CASCADE STEP processor 7.9','FreeCAD','Unknown');
FILE_SCHEMA(('AUTOMOTIVE_DESIGN { 1 0 10303 214 1 1 1 1 }'));
ENDSEC;
DATA;
#1 = APPLICATION_PROTOCOL_DEFINITION('international standard',
  'automotive_design',2000,#2);
#2 = APPLICATION_CONTEXT(
  'core data for automotive mechanical design processes');
#3 = SHAPE_DEFINITION_REPRESENTATION(#4,#10);
#4 = PRODUCT_DEFINITION_SHAPE('','',#5);
#5 = PRODUCT_DEFINITION('design','',#6,#9);
#6 = PRODUCT_DEFINITION_FORMATION('','',#7);
#7 = PRODUCT('Open CASCADE STEP translator 7.9 10',
  'Open CASCADE STEP translator 7.9 10','',(#8));
#8 = PRODUCT_CONTEXT('',#2,'mechanical');
#9 = PRODUCT_DEFINITION_CONTEXT('part definition',#2,'design');
#10 = ADVANCED_BREP_SHAPE_REPRESENTATION('',(#11,#15),#2097);
#11 = AXIS2_PLACEMENT_3D('',#12,#13,#14);
#12 = CARTESIAN_POINT('',(0.,0.,0.));
#13 = DIRECTION('',(0.,0.,1.));
#14 = DIRECTION('',(1.,0.,-0.));
#15 = MANIFOLD_SOLID_BREP('',#16);
#16 = CLOSED_SHELL('',(#17,#89,#184,#224,#248,#272,#296,#352,#408,#441,
    #520,#560,#584,#608,#632,#656,#680,#736,#753,#778,#813,#873,#897,
    #976,#1093,#1118,#1167,#1191,#1241,#1266,#1283,#1300,#1317,#1334,
    #1351,#1363,#1380,#1444,#1468,#1492,#1509,#1548,#1571,#1595,#1612,
    #1623,#1647,#1671,#1688,#1711,#1735,#1752,#1763,#1786,#1810,#1826,
    #1838,#1878,#1913,#1939,#1965,#1988,#2012,#2029,#2040,#2052,#2069,
    #2081));
#17 = ADVANCED_FACE('',(#18),#84,.F.);
#18 = FACE_BOUND('',#19,.F.);
#19 = EDGE_LOOP('',(#20,#30,#38,#46,#54,#62,#70,#78));
#20 = ORIENTED_EDGE('',*,*,#21,.F.);
#21 = EDGE_CURVE('',#22,#24,#26,.T.);
#22 = VERTEX_POINT('',#23);
#23 = CARTESIAN_POINT('',(-2.22044604925E-16,0.,1.3));
#24 = VERTEX_POINT('',#25);
#25 = CARTESIAN_POINT('',(0.,0.,10.6));
#26 = LINE('',#27,#28);
#27 = CARTESIAN_POINT('',(0.,0.,0.));
#28 = VECTOR('',#29,1.);
#29 = DIRECTION('',(0.,0.,1.));
#30 = ORIENTED_EDGE('',*,*,#31,.T.);
#31 = EDGE_CURVE('',#22,#32,#34,.T.);
#32 = VERTEX_POINT('',#33);
#33 = CARTESIAN_POINT('',(-2.22044604925E-16,49.50184,1.3));
#34 = LINE('',#35,#36);
#35 = CARTESIAN_POINT('',(-2.22044604925E-16,0.,1.3));
#36 = VECTOR('',#37,1.);
#37 = DIRECTION('',(-0.,1.,0.));
#38 = ORIENTED_EDGE('',*,*,#39,.T.);
#39 = EDGE_CURVE('',#32,#40,#42,.T.);
#40 = VERTEX_POINT('',#41);
#41 = CARTESIAN_POINT('',(0.,49.50184,10.6));
#42 = LINE('',#43,#44);
#43 = CARTESIAN_POINT('',(0.,49.50184,0.));
#44 = VECTOR('',#45,1.);
#45 = DIRECTION('',(0.,0.,1.));
#46 = ORIENTED_EDGE('',*,*,#47,.F.);
#47 = EDGE_CURVE('',#48,#40,#50,.T.);
#48 = VERTEX_POINT('',#49);
#49 = CARTESIAN_POINT('',(0.,35.88934,10.6));
#50 = LINE('',#51,#52);
#51 = CARTESIAN_POINT('',(0.,0.,10.6));
#52 = VECTOR('',#53,1.);
#53 = DIRECTION('',(-0.,1.,0.));
#54 = ORIENTED_EDGE('',*,*,#55,.F.);
#55 = EDGE_CURVE('',#56,#48,#58,.T.);
#56 = VERTEX_POINT('',#57);
#57 = CARTESIAN_POINT('',(0.,35.88934,2.2));
#58 = LINE('',#59,#60);
#59 = CARTESIAN_POINT('',(0.,35.88934,1.1));
#60 = VECTOR('',#61,1.);
#61 = DIRECTION('',(0.,0.,1.));
#62 = ORIENTED_EDGE('',*,*,#63,.T.);
#63 = EDGE_CURVE('',#56,#64,#66,.T.);
#64 = VERTEX_POINT('',#65);
#65 = CARTESIAN_POINT('',(0.,18.61434,2.2));
#66 = LINE('',#67,#68);
#67 = CARTESIAN_POINT('',(0.,9.30717,2.2));
#68 = VECTOR('',#69,1.);
#69 = DIRECTION('',(0.,-1.,0.));
#70 = ORIENTED_EDGE('',*,*,#71,.T.);
#71 = EDGE_CURVE('',#64,#72,#74,.T.);
#72 = VERTEX_POINT('',#73);
#73 = CARTESIAN_POINT('',(0.,18.61434,10.6));
#74 = LINE('',#75,#76);
#75 = CARTESIAN_POINT('',(0.,18.61434,1.1));
#76 = VECTOR('',#77,1.);
#77 = DIRECTION('',(0.,0.,1.));
#78 = ORIENTED_EDGE('',*,*,#79,.F.);
#79 = EDGE_CURVE('',#24,#72,#80,.T.);
#80 = LINE('',#81,#82);
#81 = CARTESIAN_POINT('',(0.,0.,10.6));
#82 = VECTOR('',#83,1.);
#83 = DIRECTION('',(-0.,1.,0.));
#84 = PLANE('',#85);
#85 = AXIS2_PLACEMENT_3D('',#86,#87,#88);
#86 = CARTESIAN_POINT('',(0.,0.,0.));
#87 = DIRECTION('',(1.,0.,-0.));
#88 = DIRECTION('',(0.,0.,1.));
#89 = ADVANCED_FACE('',(#90),#179,.F.);
#90 = FACE_BOUND('',#91,.F.);
#91 = EDGE_LOOP('',(#92,#102,#108,#109,#117,#125,#133,#141,#149,#157,
    #165,#173));
#92 = ORIENTED_EDGE('',*,*,#93,.F.);
#93 = EDGE_CURVE('',#94,#96,#98,.T.);
#94 = VERTEX_POINT('',#95);
#95 = CARTESIAN_POINT('',(151.4,0.,1.3));
#96 = VERTEX_POINT('',#97);
#97 = CARTESIAN_POINT('',(151.4,0.,10.6));
#98 = LINE('',#99,#100);
#99 = CARTESIAN_POINT('',(151.4,0.,0.));
#100 = VECTOR('',#101,1.);
#101 = DIRECTION('',(0.,0.,1.));
#102 = ORIENTED_EDGE('',*,*,#103,.F.);
#103 = EDGE_CURVE('',#22,#94,#104,.T.);
#104 = LINE('',#105,#106);
#105 = CARTESIAN_POINT('',(0.,-2.22044604925E-16,1.3));
#106 = VECTOR('',#107,1.);
#107 = DIRECTION('',(1.,0.,-0.));
#108 = ORIENTED_EDGE('',*,*,#21,.T.);
#109 = ORIENTED_EDGE('',*,*,#110,.T.);
#110 = EDGE_CURVE('',#24,#111,#113,.T.);
#111 = VERTEX_POINT('',#112);
#112 = CARTESIAN_POINT('',(60.97,0.,10.6));
#113 = LINE('',#114,#115);
#114 = CARTESIAN_POINT('',(0.,0.,10.6));
#115 = VECTOR('',#116,1.);
#116 = DIRECTION('',(1.,0.,-0.));
#117 = ORIENTED_EDGE('',*,*,#118,.T.);
#118 = EDGE_CURVE('',#111,#119,#121,.T.);
#119 = VERTEX_POINT('',#120);
#120 = CARTESIAN_POINT('',(60.97,0.,4.8));
#121 = LINE('',#122,#123);
#122 = CARTESIAN_POINT('',(60.97,0.,2.4));
#123 = VECTOR('',#124,1.);
#124 = DIRECTION('',(-0.,0.,-1.));
#125 = ORIENTED_EDGE('',*,*,#126,.T.);
#126 = EDGE_CURVE('',#119,#127,#129,.T.);
#127 = VERTEX_POINT('',#128);
#128 = CARTESIAN_POINT('',(74.93,0.,4.8));
#129 = LINE('',#130,#131);
#130 = CARTESIAN_POINT('',(30.485,0.,4.8));
#131 = VECTOR('',#132,1.);
#132 = DIRECTION('',(1.,0.,-0.));
#133 = ORIENTED_EDGE('',*,*,#134,.F.);
#134 = EDGE_CURVE('',#135,#127,#137,.T.);
#135 = VERTEX_POINT('',#136);
#136 = CARTESIAN_POINT('',(74.93,0.,10.6));
#137 = LINE('',#138,#139);
#138 = CARTESIAN_POINT('',(74.93,0.,2.4));
#139 = VECTOR('',#140,1.);
#140 = DIRECTION('',(-0.,0.,-1.));
#141 = ORIENTED_EDGE('',*,*,#142,.T.);
#142 = EDGE_CURVE('',#135,#143,#145,.T.);
#143 = VERTEX_POINT('',#144);
#144 = CARTESIAN_POINT('',(83.8125,0.,10.6));
#145 = LINE('',#146,#147);
#146 = CARTESIAN_POINT('',(0.,0.,10.6));
#147 = VECTOR('',#148,1.);
#148 = DIRECTION('',(1.,0.,-0.));
#149 = ORIENTED_EDGE('',*,*,#150,.T.);
#150 = EDGE_CURVE('',#143,#151,#153,.T.);
#151 = VERTEX_POINT('',#152);
#152 = CARTESIAN_POINT('',(83.8125,0.,6.2));
#153 = LINE('',#154,#155);
#154 = CARTESIAN_POINT('',(83.8125,0.,3.1));
#155 = VECTOR('',#156,1.);
#156 = DIRECTION('',(-0.,0.,-1.));
#157 = ORIENTED_EDGE('',*,*,#158,.T.);
#158 = EDGE_CURVE('',#151,#159,#161,.T.);
#159 = VERTEX_POINT('',#160);
#160 = CARTESIAN_POINT('',(93.8125,0.,6.2));
#161 = LINE('',#162,#163);
#162 = CARTESIAN_POINT('',(41.90625,0.,6.2));
#163 = VECTOR('',#164,1.);
#164 = DIRECTION('',(1.,0.,-0.));
#165 = ORIENTED_EDGE('',*,*,#166,.F.);
#166 = EDGE_CURVE('',#167,#159,#169,.T.);
#167 = VERTEX_POINT('',#168);
#168 = CARTESIAN_POINT('',(93.8125,0.,10.6));
#169 = LINE('',#170,#171);
#170 = CARTESIAN_POINT('',(93.8125,0.,3.1));
#171 = VECTOR('',#172,1.);
#172 = DIRECTION('',(-0.,0.,-1.));
#173 = ORIENTED_EDGE('',*,*,#174,.T.);
#174 = EDGE_CURVE('',#167,#96,#175,.T.);
#175 = LINE('',#176,#177);
#176 = CARTESIAN_POINT('',(0.,0.,10.6));
#177 = VECTOR('',#178,1.);
#178 = DIRECTION('',(1.,0.,-0.));
#179 = PLANE('',#180);
#180 = AXIS2_PLACEMENT_3D('',#181,#182,#183);
#181 = CARTESIAN_POINT('',(0.,0.,0.));
#182 = DIRECTION('',(-0.,1.,0.));
#183 = DIRECTION('',(0.,0.,1.));
#184 = ADVANCED_FACE('',(#185),#219,.T.);
#185 = FACE_BOUND('',#186,.T.);
#186 = EDGE_LOOP('',(#187,#188,#189,#197,#205,#213));
#187 = ORIENTED_EDGE('',*,*,#79,.F.);
#188 = ORIENTED_EDGE('',*,*,#110,.T.);
#189 = ORIENTED_EDGE('',*,*,#190,.T.);
#190 = EDGE_CURVE('',#111,#191,#193,.T.);
#191 = VERTEX_POINT('',#192);
#192 = CARTESIAN_POINT('',(60.97,2.4,10.6));
#193 = LINE('',#194,#195);
#194 = CARTESIAN_POINT('',(60.97,-0.5,10.6));
#195 = VECTOR('',#196,1.);
#196 = DIRECTION('',(-0.,1.,0.));
#197 = ORIENTED_EDGE('',*,*,#198,.T.);
#198 = EDGE_CURVE('',#191,#199,#201,.T.);
#199 = VERTEX_POINT('',#200);
#200 = CARTESIAN_POINT('',(2.4,2.4,10.6));
#201 = LINE('',#202,#203);
#202 = CARTESIAN_POINT('',(1.2,2.4,10.6));
#203 = VECTOR('',#204,1.);
#204 = DIRECTION('',(-1.,-0.,0.));
#205 = ORIENTED_EDGE('',*,*,#206,.T.);
#206 = EDGE_CURVE('',#199,#207,#209,.T.);
#207 = VERTEX_POINT('',#208);
#208 = CARTESIAN_POINT('',(2.4,18.61434,10.6));
#209 = LINE('',#210,#211);
#210 = CARTESIAN_POINT('',(2.4,1.2,10.6));
#211 = VECTOR('',#212,1.);
#212 = DIRECTION('',(-0.,1.,0.));
#213 = ORIENTED_EDGE('',*,*,#214,.T.);
#214 = EDGE_CURVE('',#207,#72,#215,.T.);
#215 = LINE('',#216,#217);
#216 = CARTESIAN_POINT('',(-0.5,18.61434,10.6));
#217 = VECTOR('',#218,1.);
#218 = DIRECTION('',(-1.,-0.,0.));
#219 = PLANE('',#220);
#220 = AXIS2_PLACEMENT_3D('',#221,#222,#223);
#221 = CARTESIAN_POINT('',(0.,0.,10.6));
#222 = DIRECTION('',(0.,0.,1.));
#223 = DIRECTION('',(1.,0.,-0.));
#224 = ADVANCED_FACE('',(#225),#243,.T.);
#225 = FACE_BOUND('',#226,.T.);
#226 = EDGE_LOOP('',(#227,#235,#236,#237));
#227 = ORIENTED_EDGE('',*,*,#228,.F.);
#228 = EDGE_CURVE('',#64,#229,#231,.T.);
#229 = VERTEX_POINT('',#230);
#230 = CARTESIAN_POINT('',(2.4,18.61434,2.2));
#231 = LINE('',#232,#233);
#232 = CARTESIAN_POINT('',(-1.,18.61434,2.2));
#233 = VECTOR('',#234,1.);
#234 = DIRECTION('',(1.,0.,-0.));
#235 = ORIENTED_EDGE('',*,*,#71,.T.);
#236 = ORIENTED_EDGE('',*,*,#214,.F.);
#237 = ORIENTED_EDGE('',*,*,#238,.F.);
#238 = EDGE_CURVE('',#229,#207,#239,.T.);
#239 = LINE('',#240,#241);
#240 = CARTESIAN_POINT('',(2.4,18.61434,2.1));
#241 = VECTOR('',#242,1.);
#242 = DIRECTION('',(0.,0.,1.));
#243 = PLANE('',#244);
#244 = AXIS2_PLACEMENT_3D('',#245,#246,#247);
#245 = CARTESIAN_POINT('',(-1.,18.61434,2.2));
#246 = DIRECTION('',(-0.,1.,0.));
#247 = DIRECTION('',(0.,0.,1.));
#248 = ADVANCED_FACE('',(#249),#267,.T.);
#249 = FACE_BOUND('',#250,.T.);
#250 = EDGE_LOOP('',(#251,#259,#260,#261));
#251 = ORIENTED_EDGE('',*,*,#252,.F.);
#252 = EDGE_CURVE('',#56,#253,#255,.T.);
#253 = VERTEX_POINT('',#254);
#254 = CARTESIAN_POINT('',(2.4,35.88934,2.2));
#255 = LINE('',#256,#257);
#256 = CARTESIAN_POINT('',(-1.,35.88934,2.2));
#257 = VECTOR('',#258,1.);
#258 = DIRECTION('',(1.,0.,-0.));
#259 = ORIENTED_EDGE('',*,*,#63,.T.);
#260 = ORIENTED_EDGE('',*,*,#228,.T.);
#261 = ORIENTED_EDGE('',*,*,#262,.F.);
#262 = EDGE_CURVE('',#253,#229,#263,.T.);
#263 = LINE('',#264,#265);
#264 = CARTESIAN_POINT('',(2.4,10.50717,2.2));
#265 = VECTOR('',#266,1.);
#266 = DIRECTION('',(0.,-1.,0.));
#267 = PLANE('',#268);
#268 = AXIS2_PLACEMENT_3D('',#269,#270,#271);
#269 = CARTESIAN_POINT('',(-1.,18.61434,2.2));
#270 = DIRECTION('',(0.,0.,1.));
#271 = DIRECTION('',(1.,0.,-0.));
#272 = ADVANCED_FACE('',(#273),#291,.F.);
#273 = FACE_BOUND('',#274,.F.);
#274 = EDGE_LOOP('',(#275,#276,#277,#285));
#275 = ORIENTED_EDGE('',*,*,#252,.F.);
#276 = ORIENTED_EDGE('',*,*,#55,.T.);
#277 = ORIENTED_EDGE('',*,*,#278,.F.);
#278 = EDGE_CURVE('',#279,#48,#281,.T.);
#279 = VERTEX_POINT('',#280);
#280 = CARTESIAN_POINT('',(2.4,35.88934,10.6));
#281 = LINE('',#282,#283);
#282 = CARTESIAN_POINT('',(-0.5,35.88934,10.6));
#283 = VECTOR('',#284,1.);
#284 = DIRECTION('',(-1.,-0.,0.));
#285 = ORIENTED_EDGE('',*,*,#286,.F.);
#286 = EDGE_CURVE('',#253,#279,#287,.T.);
#287 = LINE('',#288,#289);
#288 = CARTESIAN_POINT('',(2.4,35.88934,2.1));
#289 = VECTOR('',#290,1.);
#290 = DIRECTION('',(0.,0.,1.));
#291 = PLANE('',#292);
#292 = AXIS2_PLACEMENT_3D('',#293,#294,#295);
#293 = CARTESIAN_POINT('',(-1.,35.88934,2.2));
#294 = DIRECTION('',(-0.,1.,0.));
#295 = DIRECTION('',(0.,0.,1.));
#296 = ADVANCED_FACE('',(#297),#347,.T.);
#297 = FACE_BOUND('',#298,.T.);
#298 = EDGE_LOOP('',(#299,#309,#317,#323,#324,#325,#333,#341));
#299 = ORIENTED_EDGE('',*,*,#300,.F.);
#300 = EDGE_CURVE('',#301,#303,#305,.T.);
#301 = VERTEX_POINT('',#302);
#302 = CARTESIAN_POINT('',(151.4,44.90184,10.6));
#303 = VERTEX_POINT('',#304);
#304 = CARTESIAN_POINT('',(149.,44.90184,10.6));
#305 = LINE('',#306,#307);
#306 = CARTESIAN_POINT('',(74.225,44.90184,10.6));
#307 = VECTOR('',#308,1.);
#308 = DIRECTION('',(-1.,-0.,0.));
#309 = ORIENTED_EDGE('',*,*,#310,.T.);
#310 = EDGE_CURVE('',#301,#311,#313,.T.);
#311 = VERTEX_POINT('',#312);
#312 = CARTESIAN_POINT('',(151.4,49.50184,10.6));
#313 = LINE('',#314,#315);
#314 = CARTESIAN_POINT('',(151.4,0.,10.6));
#315 = VECTOR('',#316,1.);
#316 = DIRECTION('',(-0.,1.,0.));
#317 = ORIENTED_EDGE('',*,*,#318,.F.);
#318 = EDGE_CURVE('',#40,#311,#319,.T.);
#319 = LINE('',#320,#321);
#320 = CARTESIAN_POINT('',(0.,49.50184,10.6));
#321 = VECTOR('',#322,1.);
#322 = DIRECTION('',(1.,0.,-0.));
#323 = ORIENTED_EDGE('',*,*,#47,.F.);
#324 = ORIENTED_EDGE('',*,*,#278,.F.);
#325 = ORIENTED_EDGE('',*,*,#326,.T.);
#326 = EDGE_CURVE('',#279,#327,#329,.T.);
#327 = VERTEX_POINT('',#328);
#328 = CARTESIAN_POINT('',(2.4,47.10184,10.6));
#329 = LINE('',#330,#331);
#330 = CARTESIAN_POINT('',(2.4,1.2,10.6));
#331 = VECTOR('',#332,1.);
#332 = DIRECTION('',(-0.,1.,0.));
#333 = ORIENTED_EDGE('',*,*,#334,.F.);
#334 = EDGE_CURVE('',#335,#327,#337,.T.);
#335 = VERTEX_POINT('',#336);
#336 = CARTESIAN_POINT('',(149.,47.10184,10.6));
#337 = LINE('',#338,#339);
#338 = CARTESIAN_POINT('',(1.2,47.10184,10.6));
#339 = VECTOR('',#340,1.);
#340 = DIRECTION('',(-1.,-0.,0.));
#341 = ORIENTED_EDGE('',*,*,#342,.F.);
#342 = EDGE_CURVE('',#303,#335,#343,.T.);
#343 = LINE('',#344,#345);
#344 = CARTESIAN_POINT('',(149.,1.2,10.6));
#345 = VECTOR('',#346,1.);
#346 = DIRECTION('',(-0.,1.,0.));
#347 = PLANE('',#348);
#348 = AXIS2_PLACEMENT_3D('',#349,#350,#351);
#349 = CARTESIAN_POINT('',(0.,0.,10.6));
#350 = DIRECTION('',(0.,0.,1.));
#351 = DIRECTION('',(1.,0.,-0.));
#352 = ADVANCED_FACE('',(#353),#403,.T.);
#353 = FACE_BOUND('',#354,.T.);
#354 = EDGE_LOOP('',(#355,#363,#371,#379,#387,#395,#401,#402));
#355 = ORIENTED_EDGE('',*,*,#356,.F.);
#356 = EDGE_CURVE('',#357,#311,#359,.T.);
#357 = VERTEX_POINT('',#358);
#358 = CARTESIAN_POINT('',(151.4,49.50184,1.3));
#359 = LINE('',#360,#361);
#360 = CARTESIAN_POINT('',(151.4,49.50184,0.));
#361 = VECTOR('',#362,1.);
#362 = DIRECTION('',(0.,0.,1.));
#363 = ORIENTED_EDGE('',*,*,#364,.F.);
#364 = EDGE_CURVE('',#365,#357,#367,.T.);
#365 = VERTEX_POINT('',#366);
#366 = CARTESIAN_POINT('',(133.4,49.50184,1.3));
#367 = LINE('',#368,#369);
#368 = CARTESIAN_POINT('',(0.,49.50184,1.3));
#369 = VECTOR('',#370,1.);
#370 = DIRECTION('',(1.,0.,-0.));
#371 = ORIENTED_EDGE('',*,*,#372,.F.);
#372 = EDGE_CURVE('',#373,#365,#375,.T.);
#373 = VERTEX_POINT('',#374);
#374 = CARTESIAN_POINT('',(133.4,49.50184,7.5));
#375 = LINE('',#376,#377);
#376 = CARTESIAN_POINT('',(133.4,49.50184,2.231817086665));
#377 = VECTOR('',#378,1.);
#378 = DIRECTION('',(0.,0.,-1.));
#379 = ORIENTED_EDGE('',*,*,#380,.F.);
#380 = EDGE_CURVE('',#381,#373,#383,.T.);
#381 = VERTEX_POINT('',#382);
#382 = CARTESIAN_POINT('',(18.,49.50184,7.5));
#383 = LINE('',#384,#385);
#384 = CARTESIAN_POINT('',(18.,49.50184,7.5));
#385 = VECTOR('',#386,1.);
#386 = DIRECTION('',(1.,0.,0.));
#387 = ORIENTED_EDGE('',*,*,#388,.T.);
#388 = EDGE_CURVE('',#381,#389,#391,.T.);
#389 = VERTEX_POINT('',#390);
#390 = CARTESIAN_POINT('',(18.,49.50184,1.3));
#391 = LINE('',#392,#393);
#392 = CARTESIAN_POINT('',(18.,49.50184,7.5));
#393 = VECTOR('',#394,1.);
#394 = DIRECTION('',(0.,0.,-1.));
#395 = ORIENTED_EDGE('',*,*,#396,.F.);
#396 = EDGE_CURVE('',#32,#389,#397,.T.);
#397 = LINE('',#398,#399);
#398 = CARTESIAN_POINT('',(0.,49.50184,1.3));
#399 = VECTOR('',#400,1.);
#400 = DIRECTION('',(1.,0.,-0.));
#401 = ORIENTED_EDGE('',*,*,#39,.T.);
#402 = ORIENTED_EDGE('',*,*,#318,.T.);
#403 = PLANE('',#404);
#404 = AXIS2_PLACEMENT_3D('',#405,#406,#407);
#405 = CARTESIAN_POINT('',(0.,49.50184,0.));
#406 = DIRECTION('',(-0.,1.,0.));
#407 = DIRECTION('',(0.,0.,1.));
#408 = ADVANCED_FACE('',(#409),#436,.T.);
#409 = FACE_BOUND('',#410,.F.);
#410 = EDGE_LOOP('',(#411,#420,#428,#435));
#411 = ORIENTED_EDGE('',*,*,#412,.T.);
#412 = EDGE_CURVE('',#22,#413,#415,.T.);
#413 = VERTEX_POINT('',#414);
#414 = CARTESIAN_POINT('',(1.3,1.3,-2.22044604925E-16));
#415 = ELLIPSE('',#416,1.838477631085,1.3);
#416 = AXIS2_PLACEMENT_3D('',#417,#418,#419);
#417 = CARTESIAN_POINT('',(1.3,1.3,1.3));
#418 = DIRECTION('',(0.707106781187,-0.707106781187,-0.));
#419 = DIRECTION('',(0.707106781187,0.707106781187,0.));
#420 = ORIENTED_EDGE('',*,*,#421,.T.);
#421 = EDGE_CURVE('',#413,#422,#424,.T.);
#422 = VERTEX_POINT('',#423);
#423 = CARTESIAN_POINT('',(1.3,48.20184,-2.22044604925E-16));
#424 = LINE('',#425,#426);
#425 = CARTESIAN_POINT('',(1.3,0.,-2.22044604925E-16));
#426 = VECTOR('',#427,1.);
#427 = DIRECTION('',(-0.,1.,0.));
#428 = ORIENTED_EDGE('',*,*,#429,.F.);
#429 = EDGE_CURVE('',#32,#422,#430,.T.);
#430 = ELLIPSE('',#431,1.838477631085,1.3);
#431 = AXIS2_PLACEMENT_3D('',#432,#433,#434);
#432 = CARTESIAN_POINT('',(1.3,48.20184,1.3));
#433 = DIRECTION('',(-0.707106781187,-0.707106781187,-0.));
#434 = DIRECTION('',(-0.707106781187,0.707106781187,0.));
#435 = ORIENTED_EDGE('',*,*,#31,.F.);
#436 = CYLINDRICAL_SURFACE('',#437,1.3);
#437 = AXIS2_PLACEMENT_3D('',#438,#439,#440);
#438 = CARTESIAN_POINT('',(1.3,0.,1.3));
#439 = DIRECTION('',(-0.,1.,0.));
#440 = DIRECTION('',(-1.,-0.,0.));
#441 = ADVANCED_FACE('',(#442),#515,.T.);
#442 = FACE_BOUND('',#443,.T.);
#443 = EDGE_LOOP('',(#444,#445,#451,#452,#453,#461,#469,#477,#485,#493,
    #501,#509));
#444 = ORIENTED_EDGE('',*,*,#93,.F.);
#445 = ORIENTED_EDGE('',*,*,#446,.T.);
#446 = EDGE_CURVE('',#94,#357,#447,.T.);
#447 = LINE('',#448,#449);
#448 = CARTESIAN_POINT('',(151.4,0.,1.3));
#449 = VECTOR('',#450,1.);
#450 = DIRECTION('',(-0.,1.,0.));
#451 = ORIENTED_EDGE('',*,*,#356,.T.);
#452 = ORIENTED_EDGE('',*,*,#310,.F.);
#453 = ORIENTED_EDGE('',*,*,#454,.F.);
#454 = EDGE_CURVE('',#455,#301,#457,.T.);
#455 = VERTEX_POINT('',#456);
#456 = CARTESIAN_POINT('',(151.4,44.90184,2.2));
#457 = LINE('',#458,#459);
#458 = CARTESIAN_POINT('',(151.4,44.90184,1.1));
#459 = VECTOR('',#460,1.);
#460 = DIRECTION('',(0.,0.,1.));
#461 = ORIENTED_EDGE('',*,*,#462,.T.);
#462 = EDGE_CURVE('',#455,#463,#465,.T.);
#463 = VERTEX_POINT('',#464);
#464 = CARTESIAN_POINT('',(151.4,31.72684,2.2));
#465 = LINE('',#466,#467);
#466 = CARTESIAN_POINT('',(151.4,15.86342,2.2));
#467 = VECTOR('',#468,1.);
#468 = DIRECTION('',(0.,-1.,0.));
#469 = ORIENTED_EDGE('',*,*,#470,.T.);
#470 = EDGE_CURVE('',#463,#471,#473,.T.);
#471 = VERTEX_POINT('',#472);
#472 = CARTESIAN_POINT('',(151.4,31.72684,10.6));
#473 = LINE('',#474,#475);
#474 = CARTESIAN_POINT('',(151.4,31.72684,1.1));
#475 = VECTOR('',#476,1.);
#476 = DIRECTION('',(0.,0.,1.));
#477 = ORIENTED_EDGE('',*,*,#478,.F.);
#478 = EDGE_CURVE('',#479,#471,#481,.T.);
#479 = VERTEX_POINT('',#480);
#480 = CARTESIAN_POINT('',(151.4,25.271839,10.6));
#481 = LINE('',#482,#483);
#482 = CARTESIAN_POINT('',(151.4,0.,10.6));
#483 = VECTOR('',#484,1.);
#484 = DIRECTION('',(-0.,1.,0.));
#485 = ORIENTED_EDGE('',*,*,#486,.F.);
#486 = EDGE_CURVE('',#487,#479,#489,.T.);
#487 = VERTEX_POINT('',#488);
#488 = CARTESIAN_POINT('',(151.4,25.271839,2.2));
#489 = LINE('',#490,#491);
#490 = CARTESIAN_POINT('',(151.4,25.271839,1.1));
#491 = VECTOR('',#492,1.);
#492 = DIRECTION('',(0.,0.,1.));
#493 = ORIENTED_EDGE('',*,*,#494,.T.);
#494 = EDGE_CURVE('',#487,#495,#497,.T.);
#495 = VERTEX_POINT('',#496);
#496 = CARTESIAN_POINT('',(151.4,4.291839,2.2));
#497 = LINE('',#498,#499);
#498 = CARTESIAN_POINT('',(151.4,2.1459195,2.2));
#499 = VECTOR('',#500,1.);
#500 = DIRECTION('',(0.,-1.,0.));
#501 = ORIENTED_EDGE('',*,*,#502,.T.);
#502 = EDGE_CURVE('',#495,#503,#505,.T.);
#503 = VERTEX_POINT('',#504);
#504 = CARTESIAN_POINT('',(151.4,4.291839,10.6));
#505 = LINE('',#506,#507);
#506 = CARTESIAN_POINT('',(151.4,4.291839,1.1));
#507 = VECTOR('',#508,1.);
#508 = DIRECTION('',(0.,0.,1.));
#509 = ORIENTED_EDGE('',*,*,#510,.F.);
#510 = EDGE_CURVE('',#96,#503,#511,.T.);
#511 = LINE('',#512,#513);
#512 = CARTESIAN_POINT('',(151.4,0.,10.6));
#513 = VECTOR('',#514,1.);
#514 = DIRECTION('',(-0.,1.,0.));
#515 = PLANE('',#516);
#516 = AXIS2_PLACEMENT_3D('',#517,#518,#519);
#517 = CARTESIAN_POINT('',(151.4,0.,0.));
#518 = DIRECTION('',(1.,0.,-0.));
#519 = DIRECTION('',(0.,0.,1.));
#520 = ADVANCED_FACE('',(#521),#555,.T.);
#521 = FACE_BOUND('',#522,.T.);
#522 = EDGE_LOOP('',(#523,#531,#532,#533,#541,#549));
#523 = ORIENTED_EDGE('',*,*,#524,.F.);
#524 = EDGE_CURVE('',#167,#525,#527,.T.);
#525 = VERTEX_POINT('',#526);
#526 = CARTESIAN_POINT('',(93.8125,2.4,10.6));
#527 = LINE('',#528,#529);
#528 = CARTESIAN_POINT('',(93.8125,-0.5,10.6));
#529 = VECTOR('',#530,1.);
#530 = DIRECTION('',(-0.,1.,0.));
#531 = ORIENTED_EDGE('',*,*,#174,.T.);
#532 = ORIENTED_EDGE('',*,*,#510,.T.);
#533 = ORIENTED_EDGE('',*,*,#534,.T.);
#534 = EDGE_CURVE('',#503,#535,#537,.T.);
#535 = VERTEX_POINT('',#536);
#536 = CARTESIAN_POINT('',(149.,4.291839,10.6));
#537 = LINE('',#538,#539);
#538 = CARTESIAN_POINT('',(74.225,4.291839,10.6));
#539 = VECTOR('',#540,1.);
#540 = DIRECTION('',(-1.,-0.,0.));
#541 = ORIENTED_EDGE('',*,*,#542,.F.);
#542 = EDGE_CURVE('',#543,#535,#545,.T.);
#543 = VERTEX_POINT('',#544);
#544 = CARTESIAN_POINT('',(149.,2.4,10.6));
#545 = LINE('',#546,#547);
#546 = CARTESIAN_POINT('',(149.,1.2,10.6));
#547 = VECTOR('',#548,1.);
#548 = DIRECTION('',(-0.,1.,0.));
#549 = ORIENTED_EDGE('',*,*,#550,.T.);
#550 = EDGE_CURVE('',#543,#525,#551,.T.);
#551 = LINE('',#552,#553);
#552 = CARTESIAN_POINT('',(1.2,2.4,10.6));
#553 = VECTOR('',#554,1.);
#554 = DIRECTION('',(-1.,-0.,0.));
#555 = PLANE('',#556);
#556 = AXIS2_PLACEMENT_3D('',#557,#558,#559);
#557 = CARTESIAN_POINT('',(0.,0.,10.6));
#558 = DIRECTION('',(0.,0.,1.));
#559 = DIRECTION('',(1.,0.,-0.));
#560 = ADVANCED_FACE('',(#561),#579,.F.);
#561 = FACE_BOUND('',#562,.F.);
#562 = EDGE_LOOP('',(#563,#564,#572,#578));
#563 = ORIENTED_EDGE('',*,*,#166,.T.);
#564 = ORIENTED_EDGE('',*,*,#565,.T.);
#565 = EDGE_CURVE('',#159,#566,#568,.T.);
#566 = VERTEX_POINT('',#567);
#567 = CARTESIAN_POINT('',(93.8125,2.4,6.2));
#568 = LINE('',#569,#570);
#569 = CARTESIAN_POINT('',(93.8125,-1.,6.2));
#570 = VECTOR('',#571,1.);
#571 = DIRECTION('',(-0.,1.,0.));
#572 = ORIENTED_EDGE('',*,*,#573,.F.);
#573 = EDGE_CURVE('',#525,#566,#574,.T.);
#574 = LINE('',#575,#576);
#575 = CARTESIAN_POINT('',(93.8125,2.4,4.1));
#576 = VECTOR('',#577,1.);
#577 = DIRECTION('',(-0.,0.,-1.));
#578 = ORIENTED_EDGE('',*,*,#524,.F.);
#579 = PLANE('',#580);
#580 = AXIS2_PLACEMENT_3D('',#581,#582,#583);
#581 = CARTESIAN_POINT('',(93.8125,-1.,6.2));
#582 = DIRECTION('',(1.,0.,-0.));
#583 = DIRECTION('',(0.,0.,1.));
#584 = ADVANCED_FACE('',(#585),#603,.T.);
#585 = FACE_BOUND('',#586,.T.);
#586 = EDGE_LOOP('',(#587,#595,#596,#597));
#587 = ORIENTED_EDGE('',*,*,#588,.F.);
#588 = EDGE_CURVE('',#151,#589,#591,.T.);
#589 = VERTEX_POINT('',#590);
#590 = CARTESIAN_POINT('',(83.8125,2.4,6.2));
#591 = LINE('',#592,#593);
#592 = CARTESIAN_POINT('',(83.8125,-1.,6.2));
#593 = VECTOR('',#594,1.);
#594 = DIRECTION('',(-0.,1.,0.));
#595 = ORIENTED_EDGE('',*,*,#158,.T.);
#596 = ORIENTED_EDGE('',*,*,#565,.T.);
#597 = ORIENTED_EDGE('',*,*,#598,.F.);
#598 = EDGE_CURVE('',#589,#566,#599,.T.);
#599 = LINE('',#600,#601);
#600 = CARTESIAN_POINT('',(43.10625,2.4,6.2));
#601 = VECTOR('',#602,1.);
#602 = DIRECTION('',(1.,0.,-0.));
#603 = PLANE('',#604);
#604 = AXIS2_PLACEMENT_3D('',#605,#606,#607);
#605 = CARTESIAN_POINT('',(83.8125,-1.,6.2));
#606 = DIRECTION('',(0.,0.,1.));
#607 = DIRECTION('',(1.,0.,-0.));
#608 = ADVANCED_FACE('',(#609),#627,.T.);
#609 = FACE_BOUND('',#610,.T.);
#610 = EDGE_LOOP('',(#611,#612,#613,#621));
#611 = ORIENTED_EDGE('',*,*,#150,.T.);
#612 = ORIENTED_EDGE('',*,*,#588,.T.);
#613 = ORIENTED_EDGE('',*,*,#614,.F.);
#614 = EDGE_CURVE('',#615,#589,#617,.T.);
#615 = VERTEX_POINT('',#616);
#616 = CARTESIAN_POINT('',(83.8125,2.4,10.6));
#617 = LINE('',#618,#619);
#618 = CARTESIAN_POINT('',(83.8125,2.4,4.1));
#619 = VECTOR('',#620,1.);
#620 = DIRECTION('',(-0.,0.,-1.));
#621 = ORIENTED_EDGE('',*,*,#622,.F.);
#622 = EDGE_CURVE('',#143,#615,#623,.T.);
#623 = LINE('',#624,#625);
#624 = CARTESIAN_POINT('',(83.8125,-0.5,10.6));
#625 = VECTOR('',#626,1.);
#626 = DIRECTION('',(-0.,1.,0.));
#627 = PLANE('',#628);
#628 = AXIS2_PLACEMENT_3D('',#629,#630,#631);
#629 = CARTESIAN_POINT('',(83.8125,-1.,6.2));
#630 = DIRECTION('',(1.,0.,-0.));
#631 = DIRECTION('',(0.,0.,1.));
#632 = ADVANCED_FACE('',(#633),#651,.T.);
#633 = FACE_BOUND('',#634,.T.);
#634 = EDGE_LOOP('',(#635,#643,#644,#645));
#635 = ORIENTED_EDGE('',*,*,#636,.F.);
#636 = EDGE_CURVE('',#135,#637,#639,.T.);
#637 = VERTEX_POINT('',#638);
#638 = CARTESIAN_POINT('',(74.93,2.4,10.6));
#639 = LINE('',#640,#641);
#640 = CARTESIAN_POINT('',(74.93,-0.5,10.6));
#641 = VECTOR('',#642,1.);
#642 = DIRECTION('',(-0.,1.,0.));
#643 = ORIENTED_EDGE('',*,*,#142,.T.);
#644 = ORIENTED_EDGE('',*,*,#622,.T.);
#645 = ORIENTED_EDGE('',*,*,#646,.T.);
#646 = EDGE_CURVE('',#615,#637,#647,.T.);
#647 = LINE('',#648,#649);
#648 = CARTESIAN_POINT('',(1.2,2.4,10.6));
#649 = VECTOR('',#650,1.);
#650 = DIRECTION('',(-1.,-0.,0.));
#651 = PLANE('',#652);
#652 = AXIS2_PLACEMENT_3D('',#653,#654,#655);
#653 = CARTESIAN_POINT('',(0.,0.,10.6));
#654 = DIRECTION('',(0.,0.,1.));
#655 = DIRECTION('',(1.,0.,-0.));
#656 = ADVANCED_FACE('',(#657),#675,.F.);
#657 = FACE_BOUND('',#658,.F.);
#658 = EDGE_LOOP('',(#659,#660,#668,#674));
#659 = ORIENTED_EDGE('',*,*,#134,.T.);
#660 = ORIENTED_EDGE('',*,*,#661,.T.);
#661 = EDGE_CURVE('',#127,#662,#664,.T.);
#662 = VERTEX_POINT('',#663);
#663 = CARTESIAN_POINT('',(74.93,2.4,4.8));
#664 = LINE('',#665,#666);
#665 = CARTESIAN_POINT('',(74.93,-1.,4.8));
#666 = VECTOR('',#667,1.);
#667 = DIRECTION('',(-0.,1.,0.));
#668 = ORIENTED_EDGE('',*,*,#669,.F.);
#669 = EDGE_CURVE('',#637,#662,#670,.T.);
#670 = LINE('',#671,#672);
#671 = CARTESIAN_POINT('',(74.93,2.4,3.4));
#672 = VECTOR('',#673,1.);
#673 = DIRECTION('',(-0.,0.,-1.));
#674 = ORIENTED_EDGE('',*,*,#636,.F.);
#675 = PLANE('',#676);
#676 = AXIS2_PLACEMENT_3D('',#677,#678,#679);
#677 = CARTESIAN_POINT('',(74.93,-1.,4.8));
#678 = DIRECTION('',(1.,0.,-0.));
#679 = DIRECTION('',(0.,0.,1.));
#680 = ADVANCED_FACE('',(#681),#731,.T.);
#681 = FACE_BOUND('',#682,.T.);
#682 = EDGE_LOOP('',(#683,#684,#692,#700,#708,#716,#724,#730));
#683 = ORIENTED_EDGE('',*,*,#661,.T.);
#684 = ORIENTED_EDGE('',*,*,#685,.T.);
#685 = EDGE_CURVE('',#662,#686,#688,.T.);
#686 = VERTEX_POINT('',#687);
#687 = CARTESIAN_POINT('',(134.45,2.4,4.8));
#688 = LINE('',#689,#690);
#689 = CARTESIAN_POINT('',(16.95,2.4,4.8));
#690 = VECTOR('',#691,1.);
#691 = DIRECTION('',(1.,0.,-0.));
#692 = ORIENTED_EDGE('',*,*,#693,.T.);
#693 = EDGE_CURVE('',#686,#694,#696,.T.);
#694 = VERTEX_POINT('',#695);
#695 = CARTESIAN_POINT('',(134.45,4.35,4.8));
#696 = LINE('',#697,#698);
#697 = CARTESIAN_POINT('',(134.45,2.4,4.8));
#698 = VECTOR('',#699,1.);
#699 = DIRECTION('',(-0.,1.,0.));
#700 = ORIENTED_EDGE('',*,*,#701,.F.);
#701 = EDGE_CURVE('',#702,#694,#704,.T.);
#702 = VERTEX_POINT('',#703);
#703 = CARTESIAN_POINT('',(16.95,4.35,4.8));
#704 = LINE('',#705,#706);
#705 = CARTESIAN_POINT('',(16.95,4.35,4.8));
#706 = VECTOR('',#707,1.);
#707 = DIRECTION('',(1.,0.,-0.));
#708 = ORIENTED_EDGE('',*,*,#709,.F.);
#709 = EDGE_CURVE('',#710,#702,#712,.T.);
#710 = VERTEX_POINT('',#711);
#711 = CARTESIAN_POINT('',(16.95,2.4,4.8));
#712 = LINE('',#713,#714);
#713 = CARTESIAN_POINT('',(16.95,2.4,4.8));
#714 = VECTOR('',#715,1.);
#715 = DIRECTION('',(-0.,1.,0.));
#716 = ORIENTED_EDGE('',*,*,#717,.T.);
#717 = EDGE_CURVE('',#710,#718,#720,.T.);
#718 = VERTEX_POINT('',#719);
#719 = CARTESIAN_POINT('',(60.97,2.4,4.8));
#720 = LINE('',#721,#722);
#721 = CARTESIAN_POINT('',(16.95,2.4,4.8));
#722 = VECTOR('',#723,1.);
#723 = DIRECTION('',(1.,0.,-0.));
#724 = ORIENTED_EDGE('',*,*,#725,.F.);
#725 = EDGE_CURVE('',#119,#718,#726,.T.);
#726 = LINE('',#727,#728);
#727 = CARTESIAN_POINT('',(60.97,-1.,4.8));
#728 = VECTOR('',#729,1.);
#729 = DIRECTION('',(-0.,1.,0.));
#730 = ORIENTED_EDGE('',*,*,#126,.T.);
#731 = PLANE('',#732);
#732 = AXIS2_PLACEMENT_3D('',#733,#734,#735);
#733 = CARTESIAN_POINT('',(75.547353303242,3.194679934346,4.8));
#734 = DIRECTION('',(0.,0.,1.));
#735 = DIRECTION('',(1.,0.,-0.));
#736 = ADVANCED_FACE('',(#737),#748,.T.);
#737 = FACE_BOUND('',#738,.T.);
#738 = EDGE_LOOP('',(#739,#740,#741,#747));
#739 = ORIENTED_EDGE('',*,*,#118,.T.);
#740 = ORIENTED_EDGE('',*,*,#725,.T.);
#741 = ORIENTED_EDGE('',*,*,#742,.F.);
#742 = EDGE_CURVE('',#191,#718,#743,.T.);
#743 = LINE('',#744,#745);
#744 = CARTESIAN_POINT('',(60.97,2.4,3.4));
#745 = VECTOR('',#746,1.);
#746 = DIRECTION('',(-0.,0.,-1.));
#747 = ORIENTED_EDGE('',*,*,#190,.F.);
#748 = PLANE('',#749);
#749 = AXIS2_PLACEMENT_3D('',#750,#751,#752);
#750 = CARTESIAN_POINT('',(60.97,-1.,4.8));
#751 = DIRECTION('',(1.,0.,-0.));
#752 = DIRECTION('',(0.,0.,1.));
#753 = ADVANCED_FACE('',(#754),#773,.T.);
#754 = FACE_BOUND('',#755,.T.);
#755 = EDGE_LOOP('',(#756,#757,#765,#772));
#756 = ORIENTED_EDGE('',*,*,#412,.T.);
#757 = ORIENTED_EDGE('',*,*,#758,.T.);
#758 = EDGE_CURVE('',#413,#759,#761,.T.);
#759 = VERTEX_POINT('',#760);
#760 = CARTESIAN_POINT('',(150.1,1.3,-2.22044604925E-16));
#761 = LINE('',#762,#763);
#762 = CARTESIAN_POINT('',(0.,1.3,-2.22044604925E-16));
#763 = VECTOR('',#764,1.);
#764 = DIRECTION('',(1.,0.,-0.));
#765 = ORIENTED_EDGE('',*,*,#766,.F.);
#766 = EDGE_CURVE('',#94,#759,#767,.T.);
#767 = ELLIPSE('',#768,1.838477631085,1.3);
#768 = AXIS2_PLACEMENT_3D('',#769,#770,#771);
#769 = CARTESIAN_POINT('',(150.1,1.3,1.3));
#770 = DIRECTION('',(0.707106781187,0.707106781187,0.));
#771 = DIRECTION('',(-0.707106781187,0.707106781187,0.));
#772 = ORIENTED_EDGE('',*,*,#103,.F.);
#773 = CYLINDRICAL_SURFACE('',#774,1.3);
#774 = AXIS2_PLACEMENT_3D('',#775,#776,#777);
#775 = CARTESIAN_POINT('',(0.,1.3,1.3));
#776 = DIRECTION('',(1.,0.,-0.));
#777 = DIRECTION('',(0.,-1.,0.));
#778 = ADVANCED_FACE('',(#779),#808,.T.);
#779 = FACE_BOUND('',#780,.T.);
#780 = EDGE_LOOP('',(#781,#789,#797,#803,#804,#805,#806,#807));
#781 = ORIENTED_EDGE('',*,*,#782,.F.);
#782 = EDGE_CURVE('',#783,#199,#785,.T.);
#783 = VERTEX_POINT('',#784);
#784 = CARTESIAN_POINT('',(2.4,2.4,2.));
#785 = LINE('',#786,#787);
#786 = CARTESIAN_POINT('',(2.4,2.4,2.));
#787 = VECTOR('',#788,1.);
#788 = DIRECTION('',(0.,0.,1.));
#789 = ORIENTED_EDGE('',*,*,#790,.T.);
#790 = EDGE_CURVE('',#783,#791,#793,.T.);
#791 = VERTEX_POINT('',#792);
#792 = CARTESIAN_POINT('',(2.4,47.10184,2.));
#793 = LINE('',#794,#795);
#794 = CARTESIAN_POINT('',(2.4,2.4,2.));
#795 = VECTOR('',#796,1.);
#796 = DIRECTION('',(-0.,1.,0.));
#797 = ORIENTED_EDGE('',*,*,#798,.T.);
#798 = EDGE_CURVE('',#791,#327,#799,.T.);
#799 = LINE('',#800,#801);
#800 = CARTESIAN_POINT('',(2.4,47.10184,2.));
#801 = VECTOR('',#802,1.);
#802 = DIRECTION('',(0.,0.,1.));
#803 = ORIENTED_EDGE('',*,*,#326,.F.);
#804 = ORIENTED_EDGE('',*,*,#286,.F.);
#805 = ORIENTED_EDGE('',*,*,#262,.T.);
#806 = ORIENTED_EDGE('',*,*,#238,.T.);
#807 = ORIENTED_EDGE('',*,*,#206,.F.);
#808 = PLANE('',#809);
#809 = AXIS2_PLACEMENT_3D('',#810,#811,#812);
#810 = CARTESIAN_POINT('',(2.4,2.4,2.));
#811 = DIRECTION('',(1.,0.,-0.));
#812 = DIRECTION('',(0.,0.,1.));
#813 = ADVANCED_FACE('',(#814,#834),#868,.T.);
#814 = FACE_BOUND('',#815,.T.);
#815 = EDGE_LOOP('',(#816,#817,#818,#819,#827,#833));
#816 = ORIENTED_EDGE('',*,*,#198,.F.);
#817 = ORIENTED_EDGE('',*,*,#742,.T.);
#818 = ORIENTED_EDGE('',*,*,#717,.F.);
#819 = ORIENTED_EDGE('',*,*,#820,.F.);
#820 = EDGE_CURVE('',#821,#710,#823,.T.);
#821 = VERTEX_POINT('',#822);
#822 = CARTESIAN_POINT('',(16.95,2.4,2.));
#823 = LINE('',#824,#825);
#824 = CARTESIAN_POINT('',(16.95,2.4,2.));
#825 = VECTOR('',#826,1.);
#826 = DIRECTION('',(0.,0.,1.));
#827 = ORIENTED_EDGE('',*,*,#828,.F.);
#828 = EDGE_CURVE('',#783,#821,#829,.T.);
#829 = LINE('',#830,#831);
#830 = CARTESIAN_POINT('',(2.4,2.4,2.));
#831 = VECTOR('',#832,1.);
#832 = DIRECTION('',(1.,0.,-0.));
#833 = ORIENTED_EDGE('',*,*,#782,.T.);
#834 = FACE_BOUND('',#835,.T.);
#835 = EDGE_LOOP('',(#836,#846,#854,#862));
#836 = ORIENTED_EDGE('',*,*,#837,.F.);
#837 = EDGE_CURVE('',#838,#840,#842,.T.);
#838 = VERTEX_POINT('',#839);
#839 = CARTESIAN_POINT('',(35.42,2.4,7.4));
#840 = VERTEX_POINT('',#841);
#841 = CARTESIAN_POINT('',(35.42,2.4,9.4));
#842 = LINE('',#843,#844);
#843 = CARTESIAN_POINT('',(35.42,2.4,7.4));
#844 = VECTOR('',#845,1.);
#845 = DIRECTION('',(0.,0.,1.));
#846 = ORIENTED_EDGE('',*,*,#847,.T.);
#847 = EDGE_CURVE('',#838,#848,#850,.T.);
#848 = VERTEX_POINT('',#849);
#849 = CARTESIAN_POINT('',(55.42,2.4,7.4));
#850 = LINE('',#851,#852);
#851 = CARTESIAN_POINT('',(35.42,2.4,7.4));
#852 = VECTOR('',#853,1.);
#853 = DIRECTION('',(1.,0.,0.));
#854 = ORIENTED_EDGE('',*,*,#855,.T.);
#855 = EDGE_CURVE('',#848,#856,#858,.T.);
#856 = VERTEX_POINT('',#857);
#857 = CARTESIAN_POINT('',(55.42,2.4,9.4));
#858 = LINE('',#859,#860);
#859 = CARTESIAN_POINT('',(55.42,2.4,7.4));
#860 = VECTOR('',#861,1.);
#861 = DIRECTION('',(0.,0.,1.));
#862 = ORIENTED_EDGE('',*,*,#863,.F.);
#863 = EDGE_CURVE('',#840,#856,#864,.T.);
#864 = LINE('',#865,#866);
#865 = CARTESIAN_POINT('',(35.42,2.4,9.4));
#866 = VECTOR('',#867,1.);
#867 = DIRECTION('',(1.,0.,0.));
#868 = PLANE('',#869);
#869 = AXIS2_PLACEMENT_3D('',#870,#871,#872);
#870 = CARTESIAN_POINT('',(2.4,2.4,2.));
#871 = DIRECTION('',(-0.,1.,0.));
#872 = DIRECTION('',(0.,0.,1.));
#873 = ADVANCED_FACE('',(#874),#892,.F.);
#874 = FACE_BOUND('',#875,.F.);
#875 = EDGE_LOOP('',(#876,#884,#890,#891));
#876 = ORIENTED_EDGE('',*,*,#877,.F.);
#877 = EDGE_CURVE('',#878,#455,#880,.T.);
#878 = VERTEX_POINT('',#879);
#879 = CARTESIAN_POINT('',(149.,44.90184,2.2));
#880 = LINE('',#881,#882);
#881 = CARTESIAN_POINT('',(148.45,44.90184,2.2));
#882 = VECTOR('',#883,1.);
#883 = DIRECTION('',(1.,0.,-0.));
#884 = ORIENTED_EDGE('',*,*,#885,.T.);
#885 = EDGE_CURVE('',#878,#303,#886,.T.);
#886 = LINE('',#887,#888);
#887 = CARTESIAN_POINT('',(149.,44.90184,2.1));
#888 = VECTOR('',#889,1.);
#889 = DIRECTION('',(0.,0.,1.));
#890 = ORIENTED_EDGE('',*,*,#300,.F.);
#891 = ORIENTED_EDGE('',*,*,#454,.F.);
#892 = PLANE('',#893);
#893 = AXIS2_PLACEMENT_3D('',#894,#895,#896);
#894 = CARTESIAN_POINT('',(148.45,44.90184,2.2));
#895 = DIRECTION('',(-0.,1.,0.));
#896 = DIRECTION('',(0.,0.,1.));
#897 = ADVANCED_FACE('',(#898),#971,.F.);
#898 = FACE_BOUND('',#899,.F.);
#899 = EDGE_LOOP('',(#900,#908,#916,#922,#923,#924,#932,#940,#948,#956,
    #964,#970));
#900 = ORIENTED_EDGE('',*,*,#901,.F.);
#901 = EDGE_CURVE('',#902,#543,#904,.T.);
#902 = VERTEX_POINT('',#903);
#903 = CARTESIAN_POINT('',(149.,2.4,2.));
#904 = LINE('',#905,#906);
#905 = CARTESIAN_POINT('',(149.,2.4,2.));
#906 = VECTOR('',#907,1.);
#907 = DIRECTION('',(0.,0.,1.));
#908 = ORIENTED_EDGE('',*,*,#909,.T.);
#909 = EDGE_CURVE('',#902,#910,#912,.T.);
#910 = VERTEX_POINT('',#911);
#911 = CARTESIAN_POINT('',(149.,47.10184,2.));
#912 = LINE('',#913,#914);
#913 = CARTESIAN_POINT('',(149.,2.4,2.));
#914 = VECTOR('',#915,1.);
#915 = DIRECTION('',(-0.,1.,0.));
#916 = ORIENTED_EDGE('',*,*,#917,.T.);
#917 = EDGE_CURVE('',#910,#335,#918,.T.);
#918 = LINE('',#919,#920);
#919 = CARTESIAN_POINT('',(149.,47.10184,2.));
#920 = VECTOR('',#921,1.);
#921 = DIRECTION('',(0.,0.,1.));
#922 = ORIENTED_EDGE('',*,*,#342,.F.);
#923 = ORIENTED_EDGE('',*,*,#885,.F.);
#924 = ORIENTED_EDGE('',*,*,#925,.T.);
#925 = EDGE_CURVE('',#878,#926,#928,.T.);
#926 = VERTEX_POINT('',#927);
#927 = CARTESIAN_POINT('',(149.,31.72684,2.2));
#928 = LINE('',#929,#930);
#929 = CARTESIAN_POINT('',(149.,17.06342,2.2));
#930 = VECTOR('',#931,1.);
#931 = DIRECTION('',(0.,-1.,0.));
#932 = ORIENTED_EDGE('',*,*,#933,.T.);
#933 = EDGE_CURVE('',#926,#934,#936,.T.);
#934 = VERTEX_POINT('',#935);
#935 = CARTESIAN_POINT('',(149.,31.72684,10.6));
#936 = LINE('',#937,#938);
#937 = CARTESIAN_POINT('',(149.,31.72684,2.1));
#938 = VECTOR('',#939,1.);
#939 = DIRECTION('',(0.,0.,1.));
#940 = ORIENTED_EDGE('',*,*,#941,.F.);
#941 = EDGE_CURVE('',#942,#934,#944,.T.);
#942 = VERTEX_POINT('',#943);
#943 = CARTESIAN_POINT('',(149.,25.271839,10.6));
#944 = LINE('',#945,#946);
#945 = CARTESIAN_POINT('',(149.,1.2,10.6));
#946 = VECTOR('',#947,1.);
#947 = DIRECTION('',(-0.,1.,0.));
#948 = ORIENTED_EDGE('',*,*,#949,.F.);
#949 = EDGE_CURVE('',#950,#942,#952,.T.);
#950 = VERTEX_POINT('',#951);
#951 = CARTESIAN_POINT('',(149.,25.271839,2.2));
#952 = LINE('',#953,#954);
#953 = CARTESIAN_POINT('',(149.,25.271839,2.1));
#954 = VECTOR('',#955,1.);
#955 = DIRECTION('',(0.,0.,1.));
#956 = ORIENTED_EDGE('',*,*,#957,.T.);
#957 = EDGE_CURVE('',#950,#958,#960,.T.);
#958 = VERTEX_POINT('',#959);
#959 = CARTESIAN_POINT('',(149.,4.291839,2.2));
#960 = LINE('',#961,#962);
#961 = CARTESIAN_POINT('',(149.,3.3459195,2.2));
#962 = VECTOR('',#963,1.);
#963 = DIRECTION('',(0.,-1.,0.));
#964 = ORIENTED_EDGE('',*,*,#965,.T.);
#965 = EDGE_CURVE('',#958,#535,#966,.T.);
#966 = LINE('',#967,#968);
#967 = CARTESIAN_POINT('',(149.,4.291839,2.1));
#968 = VECTOR('',#969,1.);
#969 = DIRECTION('',(0.,0.,1.));
#970 = ORIENTED_EDGE('',*,*,#542,.F.);
#971 = PLANE('',#972);
#972 = AXIS2_PLACEMENT_3D('',#973,#974,#975);
#973 = CARTESIAN_POINT('',(149.,2.4,2.));
#974 = DIRECTION('',(1.,0.,-0.));
#975 = DIRECTION('',(0.,0.,1.));
#976 = ADVANCED_FACE('',(#977,#1020,#1054),#1088,.F.);
#977 = FACE_BOUND('',#978,.F.);
#978 = EDGE_LOOP('',(#979,#980,#988,#996,#1004,#1012,#1018,#1019));
#979 = ORIENTED_EDGE('',*,*,#917,.F.);
#980 = ORIENTED_EDGE('',*,*,#981,.F.);
#981 = EDGE_CURVE('',#982,#910,#984,.T.);
#982 = VERTEX_POINT('',#983);
#983 = CARTESIAN_POINT('',(134.45,47.10184,2.));
#984 = LINE('',#985,#986);
#985 = CARTESIAN_POINT('',(2.4,47.10184,2.));
#986 = VECTOR('',#987,1.);
#987 = DIRECTION('',(1.,0.,-0.));
#988 = ORIENTED_EDGE('',*,*,#989,.T.);
#989 = EDGE_CURVE('',#982,#990,#992,.T.);
#990 = VERTEX_POINT('',#991);
#991 = CARTESIAN_POINT('',(134.45,47.10184,4.8));
#992 = LINE('',#993,#994);
#993 = CARTESIAN_POINT('',(134.45,47.10184,2.));
#994 = VECTOR('',#995,1.);
#995 = DIRECTION('',(0.,0.,1.));
#996 = ORIENTED_EDGE('',*,*,#997,.F.);
#997 = EDGE_CURVE('',#998,#990,#1000,.T.);
#998 = VERTEX_POINT('',#999);
#999 = CARTESIAN_POINT('',(16.95,47.10184,4.8));
#1000 = LINE('',#1001,#1002);
#1001 = CARTESIAN_POINT('',(16.95,47.10184,4.8));
#1002 = VECTOR('',#1003,1.);
#1003 = DIRECTION('',(1.,0.,-0.));
#1004 = ORIENTED_EDGE('',*,*,#1005,.F.);
#1005 = EDGE_CURVE('',#1006,#998,#1008,.T.);
#1006 = VERTEX_POINT('',#1007);
#1007 = CARTESIAN_POINT('',(16.95,47.10184,2.));
#1008 = LINE('',#1009,#1010);
#1009 = CARTESIAN_POINT('',(16.95,47.10184,2.));
#1010 = VECTOR('',#1011,1.);
#1011 = DIRECTION('',(0.,0.,1.));
#1012 = ORIENTED_EDGE('',*,*,#1013,.F.);
#1013 = EDGE_CURVE('',#791,#1006,#1014,.T.);
#1014 = LINE('',#1015,#1016);
#1015 = CARTESIAN_POINT('',(2.4,47.10184,2.));
#1016 = VECTOR('',#1017,1.);
#1017 = DIRECTION('',(1.,0.,-0.));
#1018 = ORIENTED_EDGE('',*,*,#798,.T.);
#1019 = ORIENTED_EDGE('',*,*,#334,.F.);
#1020 = FACE_BOUND('',#1021,.F.);
#1021 = EDGE_LOOP('',(#1022,#1032,#1040,#1048));
#1022 = ORIENTED_EDGE('',*,*,#1023,.F.);
#1023 = EDGE_CURVE('',#1024,#1026,#1028,.T.);
#1024 = VERTEX_POINT('',#1025);
#1025 = CARTESIAN_POINT('',(35.42,47.10184,7.4));
#1026 = VERTEX_POINT('',#1027);
#1027 = CARTESIAN_POINT('',(35.42,47.10184,9.4));
#1028 = LINE('',#1029,#1030);
#1029 = CARTESIAN_POINT('',(35.42,47.10184,7.4));
#1030 = VECTOR('',#1031,1.);
#1031 = DIRECTION('',(0.,0.,1.));
#1032 = ORIENTED_EDGE('',*,*,#1033,.T.);
#1033 = EDGE_CURVE('',#1024,#1034,#1036,.T.);
#1034 = VERTEX_POINT('',#1035);
#1035 = CARTESIAN_POINT('',(55.42,47.10184,7.4));
#1036 = LINE('',#1037,#1038);
#1037 = CARTESIAN_POINT('',(35.42,47.10184,7.4));
#1038 = VECTOR('',#1039,1.);
#1039 = DIRECTION('',(1.,0.,0.));
#1040 = ORIENTED_EDGE('',*,*,#1041,.T.);
#1041 = EDGE_CURVE('',#1034,#1042,#1044,.T.);
#1042 = VERTEX_POINT('',#1043);
#1043 = CARTESIAN_POINT('',(55.42,47.10184,9.4));
#1044 = LINE('',#1045,#1046);
#1045 = CARTESIAN_POINT('',(55.42,47.10184,7.4));
#1046 = VECTOR('',#1047,1.);
#1047 = DIRECTION('',(0.,0.,1.));
#1048 = ORIENTED_EDGE('',*,*,#1049,.F.);
#1049 = EDGE_CURVE('',#1026,#1042,#1050,.T.);
#1050 = LINE('',#1051,#1052);
#1051 = CARTESIAN_POINT('',(35.42,47.10184,9.4));
#1052 = VECTOR('',#1053,1.);
#1053 = DIRECTION('',(1.,0.,0.));
#1054 = FACE_BOUND('',#1055,.F.);
#1055 = EDGE_LOOP('',(#1056,#1066,#1074,#1082));
#1056 = ORIENTED_EDGE('',*,*,#1057,.F.);
#1057 = EDGE_CURVE('',#1058,#1060,#1062,.T.);
#1058 = VERTEX_POINT('',#1059);
#1059 = CARTESIAN_POINT('',(95.98,47.10184,7.4));
#1060 = VERTEX_POINT('',#1061);
#1061 = CARTESIAN_POINT('',(95.98,47.10184,9.4));
#1062 = LINE('',#1063,#1064);
#1063 = CARTESIAN_POINT('',(95.98,47.10184,7.4));
#1064 = VECTOR('',#1065,1.);
#1065 = DIRECTION('',(0.,0.,1.));
#1066 = ORIENTED_EDGE('',*,*,#1067,.T.);
#1067 = EDGE_CURVE('',#1058,#1068,#1070,.T.);
#1068 = VERTEX_POINT('',#1069);
#1069 = CARTESIAN_POINT('',(115.98,47.10184,7.4));
#1070 = LINE('',#1071,#1072);
#1071 = CARTESIAN_POINT('',(95.98,47.10184,7.4));
#1072 = VECTOR('',#1073,1.);
#1073 = DIRECTION('',(1.,0.,0.));
#1074 = ORIENTED_EDGE('',*,*,#1075,.T.);
#1075 = EDGE_CURVE('',#1068,#1076,#1078,.T.);
#1076 = VERTEX_POINT('',#1077);
#1077 = CARTESIAN_POINT('',(115.98,47.10184,9.4));
#1078 = LINE('',#1079,#1080);
#1079 = CARTESIAN_POINT('',(115.98,47.10184,7.4));
#1080 = VECTOR('',#1081,1.);
#1081 = DIRECTION('',(0.,0.,1.));
#1082 = ORIENTED_EDGE('',*,*,#1083,.F.);
#1083 = EDGE_CURVE('',#1060,#1076,#1084,.T.);
#1084 = LINE('',#1085,#1086);
#1085 = CARTESIAN_POINT('',(95.98,47.10184,9.4));
#1086 = VECTOR('',#1087,1.);
#1087 = DIRECTION('',(1.,0.,0.));
#1088 = PLANE('',#1089);
#1089 = AXIS2_PLACEMENT_3D('',#1090,#1091,#1092);
#1090 = CARTESIAN_POINT('',(2.4,47.10184,2.));
#1091 = DIRECTION('',(-0.,1.,0.));
#1092 = DIRECTION('',(0.,0.,1.));
#1093 = ADVANCED_FACE('',(#1094),#1113,.T.);
#1094 = FACE_BOUND('',#1095,.F.);
#1095 = EDGE_LOOP('',(#1096,#1097,#1098,#1106));
#1096 = ORIENTED_EDGE('',*,*,#396,.F.);
#1097 = ORIENTED_EDGE('',*,*,#429,.T.);
#1098 = ORIENTED_EDGE('',*,*,#1099,.T.);
#1099 = EDGE_CURVE('',#422,#1100,#1102,.T.);
#1100 = VERTEX_POINT('',#1101);
#1101 = CARTESIAN_POINT('',(18.,48.20184,-1.110223024625E-16));
#1102 = LINE('',#1103,#1104);
#1103 = CARTESIAN_POINT('',(0.,48.20184,-2.22044604925E-16));
#1104 = VECTOR('',#1105,1.);
#1105 = DIRECTION('',(1.,0.,-0.));
#1106 = ORIENTED_EDGE('',*,*,#1107,.T.);
#1107 = EDGE_CURVE('',#1100,#389,#1108,.T.);
#1108 = CIRCLE('',#1109,1.3);
#1109 = AXIS2_PLACEMENT_3D('',#1110,#1111,#1112);
#1110 = CARTESIAN_POINT('',(18.,48.20184,1.3));
#1111 = DIRECTION('',(1.,0.,-0.));
#1112 = DIRECTION('',(0.,1.,0.));
#1113 = CYLINDRICAL_SURFACE('',#1114,1.3);
#1114 = AXIS2_PLACEMENT_3D('',#1115,#1116,#1117);
#1115 = CARTESIAN_POINT('',(0.,48.20184,1.3));
#1116 = DIRECTION('',(1.,0.,-0.));
#1117 = DIRECTION('',(0.,1.,0.));
#1118 = ADVANCED_FACE('',(#1119),#1162,.F.);
#1119 = FACE_BOUND('',#1120,.F.);
#1120 = EDGE_LOOP('',(#1121,#1131,#1139,#1148,#1154,#1155,#1156));
#1121 = ORIENTED_EDGE('',*,*,#1122,.T.);
#1122 = EDGE_CURVE('',#1123,#1125,#1127,.T.);
#1123 = VERTEX_POINT('',#1124);
#1124 = CARTESIAN_POINT('',(18.,49.50184,-0.));
#1125 = VERTEX_POINT('',#1126);
#1126 = CARTESIAN_POINT('',(18.,51.25184,2.7125));
#1127 = LINE('',#1128,#1129);
#1128 = CARTESIAN_POINT('',(18.,49.50184,-0.));
#1129 = VECTOR('',#1130,1.);
#1130 = DIRECTION('',(0.,0.542126869822,0.840296648224));
#1131 = ORIENTED_EDGE('',*,*,#1132,.T.);
#1132 = EDGE_CURVE('',#1125,#1133,#1135,.T.);
#1133 = VERTEX_POINT('',#1134);
#1134 = CARTESIAN_POINT('',(18.,51.25184,9.146446609408));
#1135 = LINE('',#1136,#1137);
#1136 = CARTESIAN_POINT('',(18.,51.25184,3.1));
#1137 = VECTOR('',#1138,1.);
#1138 = DIRECTION('',(0.,0.,1.));
#1139 = ORIENTED_EDGE('',*,*,#1140,.T.);
#1140 = EDGE_CURVE('',#1133,#1141,#1143,.T.);
#1141 = VERTEX_POINT('',#1142);
#1142 = CARTESIAN_POINT('',(18.,51.075063304703,9.073223304703));
#1143 = CIRCLE('',#1144,0.25);
#1144 = AXIS2_PLACEMENT_3D('',#1145,#1146,#1147);
#1145 = CARTESIAN_POINT('',(18.,51.25184,8.896446609407));
#1146 = DIRECTION('',(1.,0.,0.));
#1147 = DIRECTION('',(-0.,0.,1.));
#1148 = ORIENTED_EDGE('',*,*,#1149,.T.);
#1149 = EDGE_CURVE('',#1141,#381,#1150,.T.);
#1150 = LINE('',#1151,#1152);
#1151 = CARTESIAN_POINT('',(18.,51.50184,9.5));
#1152 = VECTOR('',#1153,1.);
#1153 = DIRECTION('',(0.,-0.707106781187,-0.707106781187));
#1154 = ORIENTED_EDGE('',*,*,#388,.T.);
#1155 = ORIENTED_EDGE('',*,*,#1107,.F.);
#1156 = ORIENTED_EDGE('',*,*,#1157,.T.);
#1157 = EDGE_CURVE('',#1100,#1123,#1158,.T.);
#1158 = LINE('',#1159,#1160);
#1159 = CARTESIAN_POINT('',(18.,48.15184,-0.));
#1160 = VECTOR('',#1161,1.);
#1161 = DIRECTION('',(0.,1.,0.));
#1162 = PLANE('',#1163);
#1163 = AXIS2_PLACEMENT_3D('',#1164,#1165,#1166);
#1164 = CARTESIAN_POINT('',(18.,50.178643209698,4.463634173329));
#1165 = DIRECTION('',(1.,0.,0.));
#1166 = DIRECTION('',(-0.,0.,1.));
#1167 = ADVANCED_FACE('',(#1168),#1186,.F.);
#1168 = FACE_BOUND('',#1169,.F.);
#1169 = EDGE_LOOP('',(#1170,#1171,#1179,#1185));
#1170 = ORIENTED_EDGE('',*,*,#1149,.F.);
#1171 = ORIENTED_EDGE('',*,*,#1172,.T.);
#1172 = EDGE_CURVE('',#1141,#1173,#1175,.T.);
#1173 = VERTEX_POINT('',#1174);
#1174 = CARTESIAN_POINT('',(133.4,51.075063304703,9.073223304703));
#1175 = LINE('',#1176,#1177);
#1176 = CARTESIAN_POINT('',(18.,51.075063304703,9.073223304703));
#1177 = VECTOR('',#1178,1.);
#1178 = DIRECTION('',(1.,0.,0.));
#1179 = ORIENTED_EDGE('',*,*,#1180,.T.);
#1180 = EDGE_CURVE('',#1173,#373,#1181,.T.);
#1181 = LINE('',#1182,#1183);
#1182 = CARTESIAN_POINT('',(133.4,51.50184,9.5));
#1183 = VECTOR('',#1184,1.);
#1184 = DIRECTION('',(0.,-0.707106781187,-0.707106781187));
#1185 = ORIENTED_EDGE('',*,*,#380,.F.);
#1186 = PLANE('',#1187);
#1187 = AXIS2_PLACEMENT_3D('',#1188,#1189,#1190);
#1188 = CARTESIAN_POINT('',(18.,51.50184,9.5));
#1189 = DIRECTION('',(0.,0.707106781187,-0.707106781187));
#1190 = DIRECTION('',(0.,-0.707106781187,-0.707106781187));
#1191 = ADVANCED_FACE('',(#1192),#1236,.T.);
#1192 = FACE_BOUND('',#1193,.T.);
#1193 = EDGE_LOOP('',(#1194,#1204,#1212,#1219,#1220,#1221,#1230));
#1194 = ORIENTED_EDGE('',*,*,#1195,.T.);
#1195 = EDGE_CURVE('',#1196,#1198,#1200,.T.);
#1196 = VERTEX_POINT('',#1197);
#1197 = CARTESIAN_POINT('',(133.4,49.50184,0.));
#1198 = VERTEX_POINT('',#1199);
#1199 = CARTESIAN_POINT('',(133.4,51.25184,2.7125));
#1200 = LINE('',#1201,#1202);
#1201 = CARTESIAN_POINT('',(133.4,49.50184,0.));
#1202 = VECTOR('',#1203,1.);
#1203 = DIRECTION('',(0.,0.542126869822,0.840296648224));
#1204 = ORIENTED_EDGE('',*,*,#1205,.T.);
#1205 = EDGE_CURVE('',#1198,#1206,#1208,.T.);
#1206 = VERTEX_POINT('',#1207);
#1207 = CARTESIAN_POINT('',(133.4,51.25184,9.146446609408));
#1208 = LINE('',#1209,#1210);
#1209 = CARTESIAN_POINT('',(133.4,51.25184,3.1));
#1210 = VECTOR('',#1211,1.);
#1211 = DIRECTION('',(0.,0.,1.));
#1212 = ORIENTED_EDGE('',*,*,#1213,.T.);
#1213 = EDGE_CURVE('',#1206,#1173,#1214,.T.);
#1214 = CIRCLE('',#1215,0.25);
#1215 = AXIS2_PLACEMENT_3D('',#1216,#1217,#1218);
#1216 = CARTESIAN_POINT('',(133.4,51.25184,8.896446609407));
#1217 = DIRECTION('',(1.,0.,0.));
#1218 = DIRECTION('',(-0.,0.,1.));
#1219 = ORIENTED_EDGE('',*,*,#1180,.T.);
#1220 = ORIENTED_EDGE('',*,*,#372,.T.);
#1221 = ORIENTED_EDGE('',*,*,#1222,.F.);
#1222 = EDGE_CURVE('',#1223,#365,#1225,.T.);
#1223 = VERTEX_POINT('',#1224);
#1224 = CARTESIAN_POINT('',(133.4,48.20184,-1.110223024625E-16));
#1225 = CIRCLE('',#1226,1.3);
#1226 = AXIS2_PLACEMENT_3D('',#1227,#1228,#1229);
#1227 = CARTESIAN_POINT('',(133.4,48.20184,1.3));
#1228 = DIRECTION('',(1.,0.,-0.));
#1229 = DIRECTION('',(0.,1.,0.));
#1230 = ORIENTED_EDGE('',*,*,#1231,.T.);
#1231 = EDGE_CURVE('',#1223,#1196,#1232,.T.);
#1232 = LINE('',#1233,#1234);
#1233 = CARTESIAN_POINT('',(133.4,48.15184,0.));
#1234 = VECTOR('',#1235,1.);
#1235 = DIRECTION('',(0.,1.,0.));
#1236 = PLANE('',#1237);
#1237 = AXIS2_PLACEMENT_3D('',#1238,#1239,#1240);
#1238 = CARTESIAN_POINT('',(133.4,50.178643209698,4.463634173329));
#1239 = DIRECTION('',(1.,0.,0.));
#1240 = DIRECTION('',(-0.,0.,1.));
#1241 = ADVANCED_FACE('',(#1242),#1261,.T.);
#1242 = FACE_BOUND('',#1243,.F.);
#1243 = EDGE_LOOP('',(#1244,#1245,#1246,#1254));
#1244 = ORIENTED_EDGE('',*,*,#364,.F.);
#1245 = ORIENTED_EDGE('',*,*,#1222,.F.);
#1246 = ORIENTED_EDGE('',*,*,#1247,.T.);
#1247 = EDGE_CURVE('',#1223,#1248,#1250,.T.);
#1248 = VERTEX_POINT('',#1249);
#1249 = CARTESIAN_POINT('',(150.1,48.20184,-2.22044604925E-16));
#1250 = LINE('',#1251,#1252);
#1251 = CARTESIAN_POINT('',(0.,48.20184,-2.22044604925E-16));
#1252 = VECTOR('',#1253,1.);
#1253 = DIRECTION('',(1.,0.,-0.));
#1254 = ORIENTED_EDGE('',*,*,#1255,.F.);
#1255 = EDGE_CURVE('',#357,#1248,#1256,.T.);
#1256 = ELLIPSE('',#1257,1.838477631085,1.3);
#1257 = AXIS2_PLACEMENT_3D('',#1258,#1259,#1260);
#1258 = CARTESIAN_POINT('',(150.1,48.20184,1.3));
#1259 = DIRECTION('',(-0.707106781187,0.707106781187,0.));
#1260 = DIRECTION('',(0.707106781187,0.707106781187,0.));
#1261 = CYLINDRICAL_SURFACE('',#1262,1.3);
#1262 = AXIS2_PLACEMENT_3D('',#1263,#1264,#1265);
#1263 = CARTESIAN_POINT('',(0.,48.20184,1.3));
#1264 = DIRECTION('',(1.,0.,-0.));
#1265 = DIRECTION('',(0.,1.,0.));
#1266 = ADVANCED_FACE('',(#1267),#1278,.T.);
#1267 = FACE_BOUND('',#1268,.T.);
#1268 = EDGE_LOOP('',(#1269,#1275,#1276,#1277));
#1269 = ORIENTED_EDGE('',*,*,#1270,.F.);
#1270 = EDGE_CURVE('',#958,#495,#1271,.T.);
#1271 = LINE('',#1272,#1273);
#1272 = CARTESIAN_POINT('',(148.45,4.291839,2.2));
#1273 = VECTOR('',#1274,1.);
#1274 = DIRECTION('',(1.,0.,-0.));
#1275 = ORIENTED_EDGE('',*,*,#965,.T.);
#1276 = ORIENTED_EDGE('',*,*,#534,.F.);
#1277 = ORIENTED_EDGE('',*,*,#502,.F.);
#1278 = PLANE('',#1279);
#1279 = AXIS2_PLACEMENT_3D('',#1280,#1281,#1282);
#1280 = CARTESIAN_POINT('',(148.45,4.291839,2.2));
#1281 = DIRECTION('',(-0.,1.,0.));
#1282 = DIRECTION('',(0.,0.,1.));
#1283 = ADVANCED_FACE('',(#1284),#1295,.T.);
#1284 = FACE_BOUND('',#1285,.T.);
#1285 = EDGE_LOOP('',(#1286,#1292,#1293,#1294));
#1286 = ORIENTED_EDGE('',*,*,#1287,.F.);
#1287 = EDGE_CURVE('',#950,#487,#1288,.T.);
#1288 = LINE('',#1289,#1290);
#1289 = CARTESIAN_POINT('',(148.45,25.271839,2.2));
#1290 = VECTOR('',#1291,1.);
#1291 = DIRECTION('',(1.,0.,-0.));
#1292 = ORIENTED_EDGE('',*,*,#957,.T.);
#1293 = ORIENTED_EDGE('',*,*,#1270,.T.);
#1294 = ORIENTED_EDGE('',*,*,#494,.F.);
#1295 = PLANE('',#1296);
#1296 = AXIS2_PLACEMENT_3D('',#1297,#1298,#1299);
#1297 = CARTESIAN_POINT('',(148.45,4.291839,2.2));
#1298 = DIRECTION('',(0.,0.,1.));
#1299 = DIRECTION('',(1.,0.,-0.));
#1300 = ADVANCED_FACE('',(#1301),#1312,.F.);
#1301 = FACE_BOUND('',#1302,.F.);
#1302 = EDGE_LOOP('',(#1303,#1304,#1305,#1311));
#1303 = ORIENTED_EDGE('',*,*,#1287,.F.);
#1304 = ORIENTED_EDGE('',*,*,#949,.T.);
#1305 = ORIENTED_EDGE('',*,*,#1306,.F.);
#1306 = EDGE_CURVE('',#479,#942,#1307,.T.);
#1307 = LINE('',#1308,#1309);
#1308 = CARTESIAN_POINT('',(74.225,25.271839,10.6));
#1309 = VECTOR('',#1310,1.);
#1310 = DIRECTION('',(-1.,-0.,0.));
#1311 = ORIENTED_EDGE('',*,*,#486,.F.);
#1312 = PLANE('',#1313);
#1313 = AXIS2_PLACEMENT_3D('',#1314,#1315,#1316);
#1314 = CARTESIAN_POINT('',(148.45,25.271839,2.2));
#1315 = DIRECTION('',(-0.,1.,0.));
#1316 = DIRECTION('',(0.,0.,1.));
#1317 = ADVANCED_FACE('',(#1318),#1329,.T.);
#1318 = FACE_BOUND('',#1319,.T.);
#1319 = EDGE_LOOP('',(#1320,#1321,#1322,#1328));
#1320 = ORIENTED_EDGE('',*,*,#1306,.F.);
#1321 = ORIENTED_EDGE('',*,*,#478,.T.);
#1322 = ORIENTED_EDGE('',*,*,#1323,.T.);
#1323 = EDGE_CURVE('',#471,#934,#1324,.T.);
#1324 = LINE('',#1325,#1326);
#1325 = CARTESIAN_POINT('',(74.225,31.72684,10.6));
#1326 = VECTOR('',#1327,1.);
#1327 = DIRECTION('',(-1.,-0.,0.));
#1328 = ORIENTED_EDGE('',*,*,#941,.F.);
#1329 = PLANE('',#1330);
#1330 = AXIS2_PLACEMENT_3D('',#1331,#1332,#1333);
#1331 = CARTESIAN_POINT('',(0.,0.,10.6));
#1332 = DIRECTION('',(0.,0.,1.));
#1333 = DIRECTION('',(1.,0.,-0.));
#1334 = ADVANCED_FACE('',(#1335),#1346,.T.);
#1335 = FACE_BOUND('',#1336,.T.);
#1336 = EDGE_LOOP('',(#1337,#1343,#1344,#1345));
#1337 = ORIENTED_EDGE('',*,*,#1338,.F.);
#1338 = EDGE_CURVE('',#926,#463,#1339,.T.);
#1339 = LINE('',#1340,#1341);
#1340 = CARTESIAN_POINT('',(148.45,31.72684,2.2));
#1341 = VECTOR('',#1342,1.);
#1342 = DIRECTION('',(1.,0.,-0.));
#1343 = ORIENTED_EDGE('',*,*,#933,.T.);
#1344 = ORIENTED_EDGE('',*,*,#1323,.F.);
#1345 = ORIENTED_EDGE('',*,*,#470,.F.);
#1346 = PLANE('',#1347);
#1347 = AXIS2_PLACEMENT_3D('',#1348,#1349,#1350);
#1348 = CARTESIAN_POINT('',(148.45,31.72684,2.2));
#1349 = DIRECTION('',(-0.,1.,0.));
#1350 = DIRECTION('',(0.,0.,1.));
#1351 = ADVANCED_FACE('',(#1352),#1358,.T.);
#1352 = FACE_BOUND('',#1353,.T.);
#1353 = EDGE_LOOP('',(#1354,#1355,#1356,#1357));
#1354 = ORIENTED_EDGE('',*,*,#877,.F.);
#1355 = ORIENTED_EDGE('',*,*,#925,.T.);
#1356 = ORIENTED_EDGE('',*,*,#1338,.T.);
#1357 = ORIENTED_EDGE('',*,*,#462,.F.);
#1358 = PLANE('',#1359);
#1359 = AXIS2_PLACEMENT_3D('',#1360,#1361,#1362);
#1360 = CARTESIAN_POINT('',(148.45,31.72684,2.2));
#1361 = DIRECTION('',(0.,0.,1.));
#1362 = DIRECTION('',(1.,0.,-0.));
#1363 = ADVANCED_FACE('',(#1364),#1375,.T.);
#1364 = FACE_BOUND('',#1365,.T.);
#1365 = EDGE_LOOP('',(#1366,#1367,#1373,#1374));
#1366 = ORIENTED_EDGE('',*,*,#766,.T.);
#1367 = ORIENTED_EDGE('',*,*,#1368,.T.);
#1368 = EDGE_CURVE('',#759,#1248,#1369,.T.);
#1369 = LINE('',#1370,#1371);
#1370 = CARTESIAN_POINT('',(150.1,0.,-2.22044604925E-16));
#1371 = VECTOR('',#1372,1.);
#1372 = DIRECTION('',(-0.,1.,0.));
#1373 = ORIENTED_EDGE('',*,*,#1255,.F.);
#1374 = ORIENTED_EDGE('',*,*,#446,.F.);
#1375 = CYLINDRICAL_SURFACE('',#1376,1.3);
#1376 = AXIS2_PLACEMENT_3D('',#1377,#1378,#1379);
#1377 = CARTESIAN_POINT('',(150.1,0.,1.3));
#1378 = DIRECTION('',(-0.,1.,0.));
#1379 = DIRECTION('',(1.,0.,-0.));
#1380 = ADVANCED_FACE('',(#1381,#1405),#1439,.T.);
#1381 = FACE_BOUND('',#1382,.T.);
#1382 = EDGE_LOOP('',(#1383,#1384,#1392,#1398,#1399,#1400,#1401,#1402,
    #1403,#1404));
#1383 = ORIENTED_EDGE('',*,*,#901,.F.);
#1384 = ORIENTED_EDGE('',*,*,#1385,.F.);
#1385 = EDGE_CURVE('',#1386,#902,#1388,.T.);
#1386 = VERTEX_POINT('',#1387);
#1387 = CARTESIAN_POINT('',(134.45,2.4,2.));
#1388 = LINE('',#1389,#1390);
#1389 = CARTESIAN_POINT('',(2.4,2.4,2.));
#1390 = VECTOR('',#1391,1.);
#1391 = DIRECTION('',(1.,0.,-0.));
#1392 = ORIENTED_EDGE('',*,*,#1393,.T.);
#1393 = EDGE_CURVE('',#1386,#686,#1394,.T.);
#1394 = LINE('',#1395,#1396);
#1395 = CARTESIAN_POINT('',(134.45,2.4,2.));
#1396 = VECTOR('',#1397,1.);
#1397 = DIRECTION('',(0.,0.,1.));
#1398 = ORIENTED_EDGE('',*,*,#685,.F.);
#1399 = ORIENTED_EDGE('',*,*,#669,.F.);
#1400 = ORIENTED_EDGE('',*,*,#646,.F.);
#1401 = ORIENTED_EDGE('',*,*,#614,.T.);
#1402 = ORIENTED_EDGE('',*,*,#598,.T.);
#1403 = ORIENTED_EDGE('',*,*,#573,.F.);
#1404 = ORIENTED_EDGE('',*,*,#550,.F.);
#1405 = FACE_BOUND('',#1406,.T.);
#1406 = EDGE_LOOP('',(#1407,#1417,#1425,#1433));
#1407 = ORIENTED_EDGE('',*,*,#1408,.F.);
#1408 = EDGE_CURVE('',#1409,#1411,#1413,.T.);
#1409 = VERTEX_POINT('',#1410);
#1410 = CARTESIAN_POINT('',(95.98,2.4,7.4));
#1411 = VERTEX_POINT('',#1412);
#1412 = CARTESIAN_POINT('',(95.98,2.4,9.4));
#1413 = LINE('',#1414,#1415);
#1414 = CARTESIAN_POINT('',(95.98,2.4,7.4));
#1415 = VECTOR('',#1416,1.);
#1416 = DIRECTION('',(0.,0.,1.));
#1417 = ORIENTED_EDGE('',*,*,#1418,.T.);
#1418 = EDGE_CURVE('',#1409,#1419,#1421,.T.);
#1419 = VERTEX_POINT('',#1420);
#1420 = CARTESIAN_POINT('',(115.98,2.4,7.4));
#1421 = LINE('',#1422,#1423);
#1422 = CARTESIAN_POINT('',(95.98,2.4,7.4));
#1423 = VECTOR('',#1424,1.);
#1424 = DIRECTION('',(1.,0.,0.));
#1425 = ORIENTED_EDGE('',*,*,#1426,.T.);
#1426 = EDGE_CURVE('',#1419,#1427,#1429,.T.);
#1427 = VERTEX_POINT('',#1428);
#1428 = CARTESIAN_POINT('',(115.98,2.4,9.4));
#1429 = LINE('',#1430,#1431);
#1430 = CARTESIAN_POINT('',(115.98,2.4,7.4));
#1431 = VECTOR('',#1432,1.);
#1432 = DIRECTION('',(0.,0.,1.));
#1433 = ORIENTED_EDGE('',*,*,#1434,.F.);
#1434 = EDGE_CURVE('',#1411,#1427,#1435,.T.);
#1435 = LINE('',#1436,#1437);
#1436 = CARTESIAN_POINT('',(95.98,2.4,9.4));
#1437 = VECTOR('',#1438,1.);
#1438 = DIRECTION('',(1.,0.,0.));
#1439 = PLANE('',#1440);
#1440 = AXIS2_PLACEMENT_3D('',#1441,#1442,#1443);
#1441 = CARTESIAN_POINT('',(2.4,2.4,2.));
#1442 = DIRECTION('',(-0.,1.,0.));
#1443 = DIRECTION('',(0.,0.,1.));
#1444 = ADVANCED_FACE('',(#1445),#1463,.T.);
#1445 = FACE_BOUND('',#1446,.T.);
#1446 = EDGE_LOOP('',(#1447,#1448,#1456,#1462));
#1447 = ORIENTED_EDGE('',*,*,#1393,.F.);
#1448 = ORIENTED_EDGE('',*,*,#1449,.T.);
#1449 = EDGE_CURVE('',#1386,#1450,#1452,.T.);
#1450 = VERTEX_POINT('',#1451);
#1451 = CARTESIAN_POINT('',(134.45,4.35,2.));
#1452 = LINE('',#1453,#1454);
#1453 = CARTESIAN_POINT('',(134.45,2.4,2.));
#1454 = VECTOR('',#1455,1.);
#1455 = DIRECTION('',(-0.,1.,0.));
#1456 = ORIENTED_EDGE('',*,*,#1457,.T.);
#1457 = EDGE_CURVE('',#1450,#694,#1458,.T.);
#1458 = LINE('',#1459,#1460);
#1459 = CARTESIAN_POINT('',(134.45,4.35,2.));
#1460 = VECTOR('',#1461,1.);
#1461 = DIRECTION('',(0.,0.,1.));
#1462 = ORIENTED_EDGE('',*,*,#693,.F.);
#1463 = PLANE('',#1464);
#1464 = AXIS2_PLACEMENT_3D('',#1465,#1466,#1467);
#1465 = CARTESIAN_POINT('',(134.45,2.4,2.));
#1466 = DIRECTION('',(1.,0.,-0.));
#1467 = DIRECTION('',(0.,0.,1.));
#1468 = ADVANCED_FACE('',(#1469),#1487,.T.);
#1469 = FACE_BOUND('',#1470,.T.);
#1470 = EDGE_LOOP('',(#1471,#1479,#1485,#1486));
#1471 = ORIENTED_EDGE('',*,*,#1472,.F.);
#1472 = EDGE_CURVE('',#1473,#1450,#1475,.T.);
#1473 = VERTEX_POINT('',#1474);
#1474 = CARTESIAN_POINT('',(16.95,4.35,2.));
#1475 = LINE('',#1476,#1477);
#1476 = CARTESIAN_POINT('',(16.95,4.35,2.));
#1477 = VECTOR('',#1478,1.);
#1478 = DIRECTION('',(1.,0.,-0.));
#1479 = ORIENTED_EDGE('',*,*,#1480,.T.);
#1480 = EDGE_CURVE('',#1473,#702,#1481,.T.);
#1481 = LINE('',#1482,#1483);
#1482 = CARTESIAN_POINT('',(16.95,4.35,2.));
#1483 = VECTOR('',#1484,1.);
#1484 = DIRECTION('',(0.,0.,1.));
#1485 = ORIENTED_EDGE('',*,*,#701,.T.);
#1486 = ORIENTED_EDGE('',*,*,#1457,.F.);
#1487 = PLANE('',#1488);
#1488 = AXIS2_PLACEMENT_3D('',#1489,#1490,#1491);
#1489 = CARTESIAN_POINT('',(16.95,4.35,2.));
#1490 = DIRECTION('',(-0.,1.,0.));
#1491 = DIRECTION('',(0.,0.,1.));
#1492 = ADVANCED_FACE('',(#1493),#1504,.F.);
#1493 = FACE_BOUND('',#1494,.F.);
#1494 = EDGE_LOOP('',(#1495,#1496,#1502,#1503));
#1495 = ORIENTED_EDGE('',*,*,#820,.F.);
#1496 = ORIENTED_EDGE('',*,*,#1497,.T.);
#1497 = EDGE_CURVE('',#821,#1473,#1498,.T.);
#1498 = LINE('',#1499,#1500);
#1499 = CARTESIAN_POINT('',(16.95,2.4,2.));
#1500 = VECTOR('',#1501,1.);
#1501 = DIRECTION('',(-0.,1.,0.));
#1502 = ORIENTED_EDGE('',*,*,#1480,.T.);
#1503 = ORIENTED_EDGE('',*,*,#709,.F.);
#1504 = PLANE('',#1505);
#1505 = AXIS2_PLACEMENT_3D('',#1506,#1507,#1508);
#1506 = CARTESIAN_POINT('',(16.95,2.4,2.));
#1507 = DIRECTION('',(1.,0.,-0.));
#1508 = DIRECTION('',(0.,0.,1.));
#1509 = ADVANCED_FACE('',(#1510),#1543,.T.);
#1510 = FACE_BOUND('',#1511,.T.);
#1511 = EDGE_LOOP('',(#1512,#1513,#1514,#1515,#1516,#1517,#1518,#1519,
    #1520,#1521,#1529,#1537));
#1512 = ORIENTED_EDGE('',*,*,#1013,.F.);
#1513 = ORIENTED_EDGE('',*,*,#790,.F.);
#1514 = ORIENTED_EDGE('',*,*,#828,.T.);
#1515 = ORIENTED_EDGE('',*,*,#1497,.T.);
#1516 = ORIENTED_EDGE('',*,*,#1472,.T.);
#1517 = ORIENTED_EDGE('',*,*,#1449,.F.);
#1518 = ORIENTED_EDGE('',*,*,#1385,.T.);
#1519 = ORIENTED_EDGE('',*,*,#909,.T.);
#1520 = ORIENTED_EDGE('',*,*,#981,.F.);
#1521 = ORIENTED_EDGE('',*,*,#1522,.F.);
#1522 = EDGE_CURVE('',#1523,#982,#1525,.T.);
#1523 = VERTEX_POINT('',#1524);
#1524 = CARTESIAN_POINT('',(134.45,45.15184,2.));
#1525 = LINE('',#1526,#1527);
#1526 = CARTESIAN_POINT('',(134.45,45.15184,2.));
#1527 = VECTOR('',#1528,1.);
#1528 = DIRECTION('',(-0.,1.,0.));
#1529 = ORIENTED_EDGE('',*,*,#1530,.F.);
#1530 = EDGE_CURVE('',#1531,#1523,#1533,.T.);
#1531 = VERTEX_POINT('',#1532);
#1532 = CARTESIAN_POINT('',(16.95,45.15184,2.));
#1533 = LINE('',#1534,#1535);
#1534 = CARTESIAN_POINT('',(16.95,45.15184,2.));
#1535 = VECTOR('',#1536,1.);
#1536 = DIRECTION('',(1.,0.,-0.));
#1537 = ORIENTED_EDGE('',*,*,#1538,.T.);
#1538 = EDGE_CURVE('',#1531,#1006,#1539,.T.);
#1539 = LINE('',#1540,#1541);
#1540 = CARTESIAN_POINT('',(16.95,45.15184,2.));
#1541 = VECTOR('',#1542,1.);
#1542 = DIRECTION('',(-0.,1.,0.));
#1543 = PLANE('',#1544);
#1544 = AXIS2_PLACEMENT_3D('',#1545,#1546,#1547);
#1545 = CARTESIAN_POINT('',(2.4,2.4,2.));
#1546 = DIRECTION('',(0.,0.,1.));
#1547 = DIRECTION('',(1.,0.,-0.));
#1548 = ADVANCED_FACE('',(#1549),#1566,.T.);
#1549 = FACE_BOUND('',#1550,.T.);
#1550 = EDGE_LOOP('',(#1551,#1552,#1560));
#1551 = ORIENTED_EDGE('',*,*,#837,.T.);
#1552 = ORIENTED_EDGE('',*,*,#1553,.T.);
#1553 = EDGE_CURVE('',#840,#1554,#1556,.T.);
#1554 = VERTEX_POINT('',#1555);
#1555 = CARTESIAN_POINT('',(35.42,3.4,8.4));
#1556 = LINE('',#1557,#1558);
#1557 = CARTESIAN_POINT('',(35.42,2.4,9.4));
#1558 = VECTOR('',#1559,1.);
#1559 = DIRECTION('',(0.,0.707106781187,-0.707106781187));
#1560 = ORIENTED_EDGE('',*,*,#1561,.T.);
#1561 = EDGE_CURVE('',#1554,#838,#1562,.T.);
#1562 = LINE('',#1563,#1564);
#1563 = CARTESIAN_POINT('',(35.42,3.4,8.4));
#1564 = VECTOR('',#1565,1.);
#1565 = DIRECTION('',(0.,-0.707106781187,-0.707106781187));
#1566 = PLANE('',#1567);
#1567 = AXIS2_PLACEMENT_3D('',#1568,#1569,#1570);
#1568 = CARTESIAN_POINT('',(35.42,2.692893218813,8.4));
#1569 = DIRECTION('',(-1.,-0.,-0.));
#1570 = DIRECTION('',(0.,0.,-1.));
#1571 = ADVANCED_FACE('',(#1572),#1590,.T.);
#1572 = FACE_BOUND('',#1573,.T.);
#1573 = EDGE_LOOP('',(#1574,#1582,#1588,#1589));
#1574 = ORIENTED_EDGE('',*,*,#1575,.T.);
#1575 = EDGE_CURVE('',#1554,#1576,#1578,.T.);
#1576 = VERTEX_POINT('',#1577);
#1577 = CARTESIAN_POINT('',(55.42,3.4,8.4));
#1578 = LINE('',#1579,#1580);
#1579 = CARTESIAN_POINT('',(35.42,3.4,8.4));
#1580 = VECTOR('',#1581,1.);
#1581 = DIRECTION('',(1.,0.,0.));
#1582 = ORIENTED_EDGE('',*,*,#1583,.T.);
#1583 = EDGE_CURVE('',#1576,#848,#1584,.T.);
#1584 = LINE('',#1585,#1586);
#1585 = CARTESIAN_POINT('',(55.42,3.4,8.4));
#1586 = VECTOR('',#1587,1.);
#1587 = DIRECTION('',(0.,-0.707106781187,-0.707106781187));
#1588 = ORIENTED_EDGE('',*,*,#847,.F.);
#1589 = ORIENTED_EDGE('',*,*,#1561,.F.);
#1590 = PLANE('',#1591);
#1591 = AXIS2_PLACEMENT_3D('',#1592,#1593,#1594);
#1592 = CARTESIAN_POINT('',(35.42,3.4,8.4));
#1593 = DIRECTION('',(0.,0.707106781187,-0.707106781187));
#1594 = DIRECTION('',(0.,-0.707106781187,-0.707106781187));
#1595 = ADVANCED_FACE('',(#1596),#1607,.T.);
#1596 = FACE_BOUND('',#1597,.T.);
#1597 = EDGE_LOOP('',(#1598,#1599,#1605,#1606));
#1598 = ORIENTED_EDGE('',*,*,#863,.T.);
#1599 = ORIENTED_EDGE('',*,*,#1600,.T.);
#1600 = EDGE_CURVE('',#856,#1576,#1601,.T.);
#1601 = LINE('',#1602,#1603);
#1602 = CARTESIAN_POINT('',(55.42,2.4,9.4));
#1603 = VECTOR('',#1604,1.);
#1604 = DIRECTION('',(0.,0.707106781187,-0.707106781187));
#1605 = ORIENTED_EDGE('',*,*,#1575,.F.);
#1606 = ORIENTED_EDGE('',*,*,#1553,.F.);
#1607 = PLANE('',#1608);
#1608 = AXIS2_PLACEMENT_3D('',#1609,#1610,#1611);
#1609 = CARTESIAN_POINT('',(35.42,2.4,9.4));
#1610 = DIRECTION('',(-0.,0.707106781187,0.707106781187));
#1611 = DIRECTION('',(0.,0.707106781187,-0.707106781187));
#1612 = ADVANCED_FACE('',(#1613),#1618,.F.);
#1613 = FACE_BOUND('',#1614,.F.);
#1614 = EDGE_LOOP('',(#1615,#1616,#1617));
#1615 = ORIENTED_EDGE('',*,*,#855,.T.);
#1616 = ORIENTED_EDGE('',*,*,#1600,.T.);
#1617 = ORIENTED_EDGE('',*,*,#1583,.T.);
#1618 = PLANE('',#1619);
#1619 = AXIS2_PLACEMENT_3D('',#1620,#1621,#1622);
#1620 = CARTESIAN_POINT('',(55.42,2.692893218813,8.4));
#1621 = DIRECTION('',(-1.,-0.,-0.));
#1622 = DIRECTION('',(0.,0.,-1.));
#1623 = ADVANCED_FACE('',(#1624),#1642,.T.);
#1624 = FACE_BOUND('',#1625,.T.);
#1625 = EDGE_LOOP('',(#1626,#1634,#1635,#1636));
#1626 = ORIENTED_EDGE('',*,*,#1627,.F.);
#1627 = EDGE_CURVE('',#1523,#1628,#1630,.T.);
#1628 = VERTEX_POINT('',#1629);
#1629 = CARTESIAN_POINT('',(134.45,45.15184,4.8));
#1630 = LINE('',#1631,#1632);
#1631 = CARTESIAN_POINT('',(134.45,45.15184,2.));
#1632 = VECTOR('',#1633,1.);
#1633 = DIRECTION('',(0.,0.,1.));
#1634 = ORIENTED_EDGE('',*,*,#1522,.T.);
#1635 = ORIENTED_EDGE('',*,*,#989,.T.);
#1636 = ORIENTED_EDGE('',*,*,#1637,.F.);
#1637 = EDGE_CURVE('',#1628,#990,#1638,.T.);
#1638 = LINE('',#1639,#1640);
#1639 = CARTESIAN_POINT('',(134.45,45.15184,4.8));
#1640 = VECTOR('',#1641,1.);
#1641 = DIRECTION('',(-0.,1.,0.));
#1642 = PLANE('',#1643);
#1643 = AXIS2_PLACEMENT_3D('',#1644,#1645,#1646);
#1644 = CARTESIAN_POINT('',(134.45,45.15184,2.));
#1645 = DIRECTION('',(1.,0.,-0.));
#1646 = DIRECTION('',(0.,0.,1.));
#1647 = ADVANCED_FACE('',(#1648),#1666,.T.);
#1648 = FACE_BOUND('',#1649,.T.);
#1649 = EDGE_LOOP('',(#1650,#1658,#1664,#1665));
#1650 = ORIENTED_EDGE('',*,*,#1651,.F.);
#1651 = EDGE_CURVE('',#1652,#998,#1654,.T.);
#1652 = VERTEX_POINT('',#1653);
#1653 = CARTESIAN_POINT('',(16.95,45.15184,4.8));
#1654 = LINE('',#1655,#1656);
#1655 = CARTESIAN_POINT('',(16.95,45.15184,4.8));
#1656 = VECTOR('',#1657,1.);
#1657 = DIRECTION('',(-0.,1.,0.));
#1658 = ORIENTED_EDGE('',*,*,#1659,.T.);
#1659 = EDGE_CURVE('',#1652,#1628,#1660,.T.);
#1660 = LINE('',#1661,#1662);
#1661 = CARTESIAN_POINT('',(16.95,45.15184,4.8));
#1662 = VECTOR('',#1663,1.);
#1663 = DIRECTION('',(1.,0.,-0.));
#1664 = ORIENTED_EDGE('',*,*,#1637,.T.);
#1665 = ORIENTED_EDGE('',*,*,#997,.F.);
#1666 = PLANE('',#1667);
#1667 = AXIS2_PLACEMENT_3D('',#1668,#1669,#1670);
#1668 = CARTESIAN_POINT('',(16.95,45.15184,4.8));
#1669 = DIRECTION('',(0.,0.,1.));
#1670 = DIRECTION('',(1.,0.,-0.));
#1671 = ADVANCED_FACE('',(#1672),#1683,.F.);
#1672 = FACE_BOUND('',#1673,.F.);
#1673 = EDGE_LOOP('',(#1674,#1680,#1681,#1682));
#1674 = ORIENTED_EDGE('',*,*,#1675,.F.);
#1675 = EDGE_CURVE('',#1531,#1652,#1676,.T.);
#1676 = LINE('',#1677,#1678);
#1677 = CARTESIAN_POINT('',(16.95,45.15184,2.));
#1678 = VECTOR('',#1679,1.);
#1679 = DIRECTION('',(0.,0.,1.));
#1680 = ORIENTED_EDGE('',*,*,#1538,.T.);
#1681 = ORIENTED_EDGE('',*,*,#1005,.T.);
#1682 = ORIENTED_EDGE('',*,*,#1651,.F.);
#1683 = PLANE('',#1684);
#1684 = AXIS2_PLACEMENT_3D('',#1685,#1686,#1687);
#1685 = CARTESIAN_POINT('',(16.95,45.15184,2.));
#1686 = DIRECTION('',(1.,0.,-0.));
#1687 = DIRECTION('',(0.,0.,1.));
#1688 = ADVANCED_FACE('',(#1689),#1706,.F.);
#1689 = FACE_BOUND('',#1690,.F.);
#1690 = EDGE_LOOP('',(#1691,#1692,#1700));
#1691 = ORIENTED_EDGE('',*,*,#1023,.T.);
#1692 = ORIENTED_EDGE('',*,*,#1693,.T.);
#1693 = EDGE_CURVE('',#1026,#1694,#1696,.T.);
#1694 = VERTEX_POINT('',#1695);
#1695 = CARTESIAN_POINT('',(35.42,46.10184,8.4));
#1696 = LINE('',#1697,#1698);
#1697 = CARTESIAN_POINT('',(35.42,47.10184,9.4));
#1698 = VECTOR('',#1699,1.);
#1699 = DIRECTION('',(0.,-0.707106781187,-0.707106781187));
#1700 = ORIENTED_EDGE('',*,*,#1701,.T.);
#1701 = EDGE_CURVE('',#1694,#1024,#1702,.T.);
#1702 = LINE('',#1703,#1704);
#1703 = CARTESIAN_POINT('',(35.42,46.10184,8.4));
#1704 = VECTOR('',#1705,1.);
#1705 = DIRECTION('',(0.,0.707106781187,-0.707106781187));
#1706 = PLANE('',#1707);
#1707 = AXIS2_PLACEMENT_3D('',#1708,#1709,#1710);
#1708 = CARTESIAN_POINT('',(35.42,46.808946781187,8.4));
#1709 = DIRECTION('',(1.,0.,0.));
#1710 = DIRECTION('',(-0.,0.,1.));
#1711 = ADVANCED_FACE('',(#1712),#1730,.F.);
#1712 = FACE_BOUND('',#1713,.F.);
#1713 = EDGE_LOOP('',(#1714,#1722,#1728,#1729));
#1714 = ORIENTED_EDGE('',*,*,#1715,.T.);
#1715 = EDGE_CURVE('',#1694,#1716,#1718,.T.);
#1716 = VERTEX_POINT('',#1717);
#1717 = CARTESIAN_POINT('',(55.42,46.10184,8.4));
#1718 = LINE('',#1719,#1720);
#1719 = CARTESIAN_POINT('',(35.42,46.10184,8.4));
#1720 = VECTOR('',#1721,1.);
#1721 = DIRECTION('',(1.,0.,0.));
#1722 = ORIENTED_EDGE('',*,*,#1723,.T.);
#1723 = EDGE_CURVE('',#1716,#1034,#1724,.T.);
#1724 = LINE('',#1725,#1726);
#1725 = CARTESIAN_POINT('',(55.42,46.10184,8.4));
#1726 = VECTOR('',#1727,1.);
#1727 = DIRECTION('',(0.,0.707106781187,-0.707106781187));
#1728 = ORIENTED_EDGE('',*,*,#1033,.F.);
#1729 = ORIENTED_EDGE('',*,*,#1701,.F.);
#1730 = PLANE('',#1731);
#1731 = AXIS2_PLACEMENT_3D('',#1732,#1733,#1734);
#1732 = CARTESIAN_POINT('',(35.42,46.10184,8.4));
#1733 = DIRECTION('',(-0.,0.707106781187,0.707106781187));
#1734 = DIRECTION('',(0.,0.707106781187,-0.707106781187));
#1735 = ADVANCED_FACE('',(#1736),#1747,.F.);
#1736 = FACE_BOUND('',#1737,.F.);
#1737 = EDGE_LOOP('',(#1738,#1739,#1745,#1746));
#1738 = ORIENTED_EDGE('',*,*,#1049,.T.);
#1739 = ORIENTED_EDGE('',*,*,#1740,.T.);
#1740 = EDGE_CURVE('',#1042,#1716,#1741,.T.);
#1741 = LINE('',#1742,#1743);
#1742 = CARTESIAN_POINT('',(55.42,47.10184,9.4));
#1743 = VECTOR('',#1744,1.);
#1744 = DIRECTION('',(0.,-0.707106781187,-0.707106781187));
#1745 = ORIENTED_EDGE('',*,*,#1715,.F.);
#1746 = ORIENTED_EDGE('',*,*,#1693,.F.);
#1747 = PLANE('',#1748);
#1748 = AXIS2_PLACEMENT_3D('',#1749,#1750,#1751);
#1749 = CARTESIAN_POINT('',(35.42,47.10184,9.4));
#1750 = DIRECTION('',(0.,0.707106781187,-0.707106781187));
#1751 = DIRECTION('',(0.,-0.707106781187,-0.707106781187));
#1752 = ADVANCED_FACE('',(#1753),#1758,.T.);
#1753 = FACE_BOUND('',#1754,.T.);
#1754 = EDGE_LOOP('',(#1755,#1756,#1757));
#1755 = ORIENTED_EDGE('',*,*,#1041,.T.);
#1756 = ORIENTED_EDGE('',*,*,#1740,.T.);
#1757 = ORIENTED_EDGE('',*,*,#1723,.T.);
#1758 = PLANE('',#1759);
#1759 = AXIS2_PLACEMENT_3D('',#1760,#1761,#1762);
#1760 = CARTESIAN_POINT('',(55.42,46.808946781187,8.4));
#1761 = DIRECTION('',(1.,0.,0.));
#1762 = DIRECTION('',(-0.,0.,1.));
#1763 = ADVANCED_FACE('',(#1764),#1781,.F.);
#1764 = FACE_BOUND('',#1765,.F.);
#1765 = EDGE_LOOP('',(#1766,#1767,#1775));
#1766 = ORIENTED_EDGE('',*,*,#1057,.T.);
#1767 = ORIENTED_EDGE('',*,*,#1768,.T.);
#1768 = EDGE_CURVE('',#1060,#1769,#1771,.T.);
#1769 = VERTEX_POINT('',#1770);
#1770 = CARTESIAN_POINT('',(95.98,46.10184,8.4));
#1771 = LINE('',#1772,#1773);
#1772 = CARTESIAN_POINT('',(95.98,47.10184,9.4));
#1773 = VECTOR('',#1774,1.);
#1774 = DIRECTION('',(0.,-0.707106781187,-0.707106781187));
#1775 = ORIENTED_EDGE('',*,*,#1776,.T.);
#1776 = EDGE_CURVE('',#1769,#1058,#1777,.T.);
#1777 = LINE('',#1778,#1779);
#1778 = CARTESIAN_POINT('',(95.98,46.10184,8.4));
#1779 = VECTOR('',#1780,1.);
#1780 = DIRECTION('',(0.,0.707106781187,-0.707106781187));
#1781 = PLANE('',#1782);
#1782 = AXIS2_PLACEMENT_3D('',#1783,#1784,#1785);
#1783 = CARTESIAN_POINT('',(95.98,46.808946781187,8.4));
#1784 = DIRECTION('',(1.,0.,0.));
#1785 = DIRECTION('',(-0.,0.,1.));
#1786 = ADVANCED_FACE('',(#1787),#1805,.F.);
#1787 = FACE_BOUND('',#1788,.F.);
#1788 = EDGE_LOOP('',(#1789,#1790,#1798,#1804));
#1789 = ORIENTED_EDGE('',*,*,#1083,.T.);
#1790 = ORIENTED_EDGE('',*,*,#1791,.T.);
#1791 = EDGE_CURVE('',#1076,#1792,#1794,.T.);
#1792 = VERTEX_POINT('',#1793);
#1793 = CARTESIAN_POINT('',(115.98,46.10184,8.4));
#1794 = LINE('',#1795,#1796);
#1795 = CARTESIAN_POINT('',(115.98,47.10184,9.4));
#1796 = VECTOR('',#1797,1.);
#1797 = DIRECTION('',(0.,-0.707106781187,-0.707106781187));
#1798 = ORIENTED_EDGE('',*,*,#1799,.F.);
#1799 = EDGE_CURVE('',#1769,#1792,#1800,.T.);
#1800 = LINE('',#1801,#1802);
#1801 = CARTESIAN_POINT('',(95.98,46.10184,8.4));
#1802 = VECTOR('',#1803,1.);
#1803 = DIRECTION('',(1.,0.,0.));
#1804 = ORIENTED_EDGE('',*,*,#1768,.F.);
#1805 = PLANE('',#1806);
#1806 = AXIS2_PLACEMENT_3D('',#1807,#1808,#1809);
#1807 = CARTESIAN_POINT('',(95.98,47.10184,9.4));
#1808 = DIRECTION('',(0.,0.707106781187,-0.707106781187));
#1809 = DIRECTION('',(0.,-0.707106781187,-0.707106781187));
#1810 = ADVANCED_FACE('',(#1811),#1821,.T.);
#1811 = FACE_BOUND('',#1812,.T.);
#1812 = EDGE_LOOP('',(#1813,#1814,#1815));
#1813 = ORIENTED_EDGE('',*,*,#1075,.T.);
#1814 = ORIENTED_EDGE('',*,*,#1791,.T.);
#1815 = ORIENTED_EDGE('',*,*,#1816,.T.);
#1816 = EDGE_CURVE('',#1792,#1068,#1817,.T.);
#1817 = LINE('',#1818,#1819);
#1818 = CARTESIAN_POINT('',(115.98,46.10184,8.4));
#1819 = VECTOR('',#1820,1.);
#1820 = DIRECTION('',(0.,0.707106781187,-0.707106781187));
#1821 = PLANE('',#1822);
#1822 = AXIS2_PLACEMENT_3D('',#1823,#1824,#1825);
#1823 = CARTESIAN_POINT('',(115.98,46.808946781187,8.4));
#1824 = DIRECTION('',(1.,0.,0.));
#1825 = DIRECTION('',(-0.,0.,1.));
#1826 = ADVANCED_FACE('',(#1827),#1833,.F.);
#1827 = FACE_BOUND('',#1828,.F.);
#1828 = EDGE_LOOP('',(#1829,#1830,#1831,#1832));
#1829 = ORIENTED_EDGE('',*,*,#1799,.T.);
#1830 = ORIENTED_EDGE('',*,*,#1816,.T.);
#1831 = ORIENTED_EDGE('',*,*,#1067,.F.);
#1832 = ORIENTED_EDGE('',*,*,#1776,.F.);
#1833 = PLANE('',#1834);
#1834 = AXIS2_PLACEMENT_3D('',#1835,#1836,#1837);
#1835 = CARTESIAN_POINT('',(95.98,46.10184,8.4));
#1836 = DIRECTION('',(-0.,0.707106781187,0.707106781187));
#1837 = DIRECTION('',(0.,0.707106781187,-0.707106781187));
#1838 = ADVANCED_FACE('',(#1839),#1873,.F.);
#1839 = FACE_BOUND('',#1840,.F.);
#1840 = EDGE_LOOP('',(#1841,#1842,#1848,#1849,#1858,#1866));
#1841 = ORIENTED_EDGE('',*,*,#1122,.F.);
#1842 = ORIENTED_EDGE('',*,*,#1843,.T.);
#1843 = EDGE_CURVE('',#1123,#1196,#1844,.T.);
#1844 = LINE('',#1845,#1846);
#1845 = CARTESIAN_POINT('',(18.,49.50184,-0.));
#1846 = VECTOR('',#1847,1.);
#1847 = DIRECTION('',(1.,0.,0.));
#1848 = ORIENTED_EDGE('',*,*,#1195,.T.);
#1849 = ORIENTED_EDGE('',*,*,#1850,.F.);
#1850 = EDGE_CURVE('',#1851,#1198,#1853,.T.);
#1851 = VERTEX_POINT('',#1852);
#1852 = CARTESIAN_POINT('',(133.28553171745,51.461914162056,
    3.038114951187));
#1853 = ELLIPSE('',#1854,0.461146668642,0.25);
#1854 = AXIS2_PLACEMENT_3D('',#1855,#1856,#1857);
#1855 = CARTESIAN_POINT('',(133.15,51.25184,2.7125));
#1856 = DIRECTION('',(-0.,0.840296648224,-0.542126869822));
#1857 = DIRECTION('',(0.,0.542126869822,0.840296648224));
#1858 = ORIENTED_EDGE('',*,*,#1859,.F.);
#1859 = EDGE_CURVE('',#1860,#1851,#1862,.T.);
#1860 = VERTEX_POINT('',#1861);
#1861 = CARTESIAN_POINT('',(18.114468282547,51.461914162056,
    3.038114951187));
#1862 = LINE('',#1863,#1864);
#1863 = CARTESIAN_POINT('',(18.,51.461914162056,3.038114951187));
#1864 = VECTOR('',#1865,1.);
#1865 = DIRECTION('',(1.,0.,0.));
#1866 = ORIENTED_EDGE('',*,*,#1867,.T.);
#1867 = EDGE_CURVE('',#1860,#1125,#1868,.T.);
#1868 = ELLIPSE('',#1869,0.461146668642,0.25);
#1869 = AXIS2_PLACEMENT_3D('',#1870,#1871,#1872);
#1870 = CARTESIAN_POINT('',(18.25,51.25184,2.7125));
#1871 = DIRECTION('',(0.,-0.840296648224,0.542126869822));
#1872 = DIRECTION('',(0.,0.542126869822,0.840296648224));
#1873 = PLANE('',#1874);
#1874 = AXIS2_PLACEMENT_3D('',#1875,#1876,#1877);
#1875 = CARTESIAN_POINT('',(18.,49.50184,0.));
#1876 = DIRECTION('',(0.,-0.840296648224,0.542126869822));
#1877 = DIRECTION('',(0.,0.542126869822,0.840296648224));
#1878 = ADVANCED_FACE('',(#1879),#1908,.T.);
#1879 = FACE_BOUND('',#1880,.T.);
#1880 = EDGE_LOOP('',(#1881,#1890,#1891,#1892,#1893,#1902));
#1881 = ORIENTED_EDGE('',*,*,#1882,.T.);
#1882 = EDGE_CURVE('',#1883,#1133,#1885,.T.);
#1883 = VERTEX_POINT('',#1884);
#1884 = CARTESIAN_POINT('',(18.25,51.50184,8.896446609407));
#1885 = ELLIPSE('',#1886,0.353553390593,0.25);
#1886 = AXIS2_PLACEMENT_3D('',#1887,#1888,#1889);
#1887 = CARTESIAN_POINT('',(18.25,51.25184,8.896446609407));
#1888 = DIRECTION('',(0.707106781187,0.,0.707106781187));
#1889 = DIRECTION('',(-0.707106781187,0.,0.707106781187));
#1890 = ORIENTED_EDGE('',*,*,#1140,.T.);
#1891 = ORIENTED_EDGE('',*,*,#1172,.T.);
#1892 = ORIENTED_EDGE('',*,*,#1213,.F.);
#1893 = ORIENTED_EDGE('',*,*,#1894,.F.);
#1894 = EDGE_CURVE('',#1895,#1206,#1897,.T.);
#1895 = VERTEX_POINT('',#1896);
#1896 = CARTESIAN_POINT('',(133.15,51.50184,8.896446609407));
#1897 = ELLIPSE('',#1898,0.353553390593,0.25);
#1898 = AXIS2_PLACEMENT_3D('',#1899,#1900,#1901);
#1899 = CARTESIAN_POINT('',(133.15,51.25184,8.896446609407));
#1900 = DIRECTION('',(0.707106781187,0.,-0.707106781187));
#1901 = DIRECTION('',(0.707106781187,0.,0.707106781187));
#1902 = ORIENTED_EDGE('',*,*,#1903,.F.);
#1903 = EDGE_CURVE('',#1883,#1895,#1904,.T.);
#1904 = LINE('',#1905,#1906);
#1905 = CARTESIAN_POINT('',(18.,51.50184,8.896446609407));
#1906 = VECTOR('',#1907,1.);
#1907 = DIRECTION('',(1.,0.,0.));
#1908 = CYLINDRICAL_SURFACE('',#1909,0.25);
#1909 = AXIS2_PLACEMENT_3D('',#1910,#1911,#1912);
#1910 = CARTESIAN_POINT('',(18.,51.25184,8.896446609407));
#1911 = DIRECTION('',(1.,0.,0.));
#1912 = DIRECTION('',(-0.,1.,0.));
#1913 = ADVANCED_FACE('',(#1914),#1934,.T.);
#1914 = FACE_BOUND('',#1915,.T.);
#1915 = EDGE_LOOP('',(#1916,#1925,#1926,#1927,#1928));
#1916 = ORIENTED_EDGE('',*,*,#1917,.T.);
#1917 = EDGE_CURVE('',#1918,#1860,#1920,.T.);
#1918 = VERTEX_POINT('',#1919);
#1919 = CARTESIAN_POINT('',(18.25,51.50184,3.173646668642));
#1920 = ELLIPSE('',#1921,0.353553390593,0.25);
#1921 = AXIS2_PLACEMENT_3D('',#1922,#1923,#1924);
#1922 = CARTESIAN_POINT('',(18.25,51.25184,3.173646668642));
#1923 = DIRECTION('',(-0.707106781187,-0.,0.707106781187));
#1924 = DIRECTION('',(0.707106781187,0.,0.707106781187));
#1925 = ORIENTED_EDGE('',*,*,#1867,.T.);
#1926 = ORIENTED_EDGE('',*,*,#1132,.T.);
#1927 = ORIENTED_EDGE('',*,*,#1882,.F.);
#1928 = ORIENTED_EDGE('',*,*,#1929,.F.);
#1929 = EDGE_CURVE('',#1918,#1883,#1930,.T.);
#1930 = LINE('',#1931,#1932);
#1931 = CARTESIAN_POINT('',(18.25,51.50184,3.1));
#1932 = VECTOR('',#1933,1.);
#1933 = DIRECTION('',(0.,0.,1.));
#1934 = CYLINDRICAL_SURFACE('',#1935,0.25);
#1935 = AXIS2_PLACEMENT_3D('',#1936,#1937,#1938);
#1936 = CARTESIAN_POINT('',(18.25,51.25184,3.1));
#1937 = DIRECTION('',(0.,0.,1.));
#1938 = DIRECTION('',(-0.,1.,0.));
#1939 = ADVANCED_FACE('',(#1940),#1960,.T.);
#1940 = FACE_BOUND('',#1941,.F.);
#1941 = EDGE_LOOP('',(#1942,#1951,#1952,#1953,#1954));
#1942 = ORIENTED_EDGE('',*,*,#1943,.T.);
#1943 = EDGE_CURVE('',#1944,#1851,#1946,.T.);
#1944 = VERTEX_POINT('',#1945);
#1945 = CARTESIAN_POINT('',(133.15,51.50184,3.173646668642));
#1946 = ELLIPSE('',#1947,0.353553390593,0.25);
#1947 = AXIS2_PLACEMENT_3D('',#1948,#1949,#1950);
#1948 = CARTESIAN_POINT('',(133.15,51.25184,3.173646668642));
#1949 = DIRECTION('',(-0.707106781187,-0.,-0.707106781187));
#1950 = DIRECTION('',(0.707106781187,0.,-0.707106781187));
#1951 = ORIENTED_EDGE('',*,*,#1850,.T.);
#1952 = ORIENTED_EDGE('',*,*,#1205,.T.);
#1953 = ORIENTED_EDGE('',*,*,#1894,.F.);
#1954 = ORIENTED_EDGE('',*,*,#1955,.F.);
#1955 = EDGE_CURVE('',#1944,#1895,#1956,.T.);
#1956 = LINE('',#1957,#1958);
#1957 = CARTESIAN_POINT('',(133.15,51.50184,3.1));
#1958 = VECTOR('',#1959,1.);
#1959 = DIRECTION('',(0.,0.,1.));
#1960 = CYLINDRICAL_SURFACE('',#1961,0.25);
#1961 = AXIS2_PLACEMENT_3D('',#1962,#1963,#1964);
#1962 = CARTESIAN_POINT('',(133.15,51.25184,3.1));
#1963 = DIRECTION('',(0.,0.,1.));
#1964 = DIRECTION('',(-0.,1.,0.));
#1965 = ADVANCED_FACE('',(#1966),#1983,.T.);
#1966 = FACE_BOUND('',#1967,.T.);
#1967 = EDGE_LOOP('',(#1968,#1969,#1977));
#1968 = ORIENTED_EDGE('',*,*,#1408,.T.);
#1969 = ORIENTED_EDGE('',*,*,#1970,.T.);
#1970 = EDGE_CURVE('',#1411,#1971,#1973,.T.);
#1971 = VERTEX_POINT('',#1972);
#1972 = CARTESIAN_POINT('',(95.98,3.4,8.4));
#1973 = LINE('',#1974,#1975);
#1974 = CARTESIAN_POINT('',(95.98,2.4,9.4));
#1975 = VECTOR('',#1976,1.);
#1976 = DIRECTION('',(0.,0.707106781187,-0.707106781187));
#1977 = ORIENTED_EDGE('',*,*,#1978,.T.);
#1978 = EDGE_CURVE('',#1971,#1409,#1979,.T.);
#1979 = LINE('',#1980,#1981);
#1980 = CARTESIAN_POINT('',(95.98,3.4,8.4));
#1981 = VECTOR('',#1982,1.);
#1982 = DIRECTION('',(0.,-0.707106781187,-0.707106781187));
#1983 = PLANE('',#1984);
#1984 = AXIS2_PLACEMENT_3D('',#1985,#1986,#1987);
#1985 = CARTESIAN_POINT('',(95.98,2.692893218813,8.4));
#1986 = DIRECTION('',(-1.,-0.,-0.));
#1987 = DIRECTION('',(0.,0.,-1.));
#1988 = ADVANCED_FACE('',(#1989),#2007,.T.);
#1989 = FACE_BOUND('',#1990,.T.);
#1990 = EDGE_LOOP('',(#1991,#1999,#2005,#2006));
#1991 = ORIENTED_EDGE('',*,*,#1992,.T.);
#1992 = EDGE_CURVE('',#1971,#1993,#1995,.T.);
#1993 = VERTEX_POINT('',#1994);
#1994 = CARTESIAN_POINT('',(115.98,3.4,8.4));
#1995 = LINE('',#1996,#1997);
#1996 = CARTESIAN_POINT('',(95.98,3.4,8.4));
#1997 = VECTOR('',#1998,1.);
#1998 = DIRECTION('',(1.,0.,0.));
#1999 = ORIENTED_EDGE('',*,*,#2000,.T.);
#2000 = EDGE_CURVE('',#1993,#1419,#2001,.T.);
#2001 = LINE('',#2002,#2003);
#2002 = CARTESIAN_POINT('',(115.98,3.4,8.4));
#2003 = VECTOR('',#2004,1.);
#2004 = DIRECTION('',(0.,-0.707106781187,-0.707106781187));
#2005 = ORIENTED_EDGE('',*,*,#1418,.F.);
#2006 = ORIENTED_EDGE('',*,*,#1978,.F.);
#2007 = PLANE('',#2008);
#2008 = AXIS2_PLACEMENT_3D('',#2009,#2010,#2011);
#2009 = CARTESIAN_POINT('',(95.98,3.4,8.4));
#2010 = DIRECTION('',(0.,0.707106781187,-0.707106781187));
#2011 = DIRECTION('',(0.,-0.707106781187,-0.707106781187));
#2012 = ADVANCED_FACE('',(#2013),#2024,.T.);
#2013 = FACE_BOUND('',#2014,.T.);
#2014 = EDGE_LOOP('',(#2015,#2016,#2022,#2023));
#2015 = ORIENTED_EDGE('',*,*,#1434,.T.);
#2016 = ORIENTED_EDGE('',*,*,#2017,.T.);
#2017 = EDGE_CURVE('',#1427,#1993,#2018,.T.);
#2018 = LINE('',#2019,#2020);
#2019 = CARTESIAN_POINT('',(115.98,2.4,9.4));
#2020 = VECTOR('',#2021,1.);
#2021 = DIRECTION('',(0.,0.707106781187,-0.707106781187));
#2022 = ORIENTED_EDGE('',*,*,#1992,.F.);
#2023 = ORIENTED_EDGE('',*,*,#1970,.F.);
#2024 = PLANE('',#2025);
#2025 = AXIS2_PLACEMENT_3D('',#2026,#2027,#2028);
#2026 = CARTESIAN_POINT('',(95.98,2.4,9.4));
#2027 = DIRECTION('',(-0.,0.707106781187,0.707106781187));
#2028 = DIRECTION('',(0.,0.707106781187,-0.707106781187));
#2029 = ADVANCED_FACE('',(#2030),#2035,.F.);
#2030 = FACE_BOUND('',#2031,.F.);
#2031 = EDGE_LOOP('',(#2032,#2033,#2034));
#2032 = ORIENTED_EDGE('',*,*,#1426,.T.);
#2033 = ORIENTED_EDGE('',*,*,#2017,.T.);
#2034 = ORIENTED_EDGE('',*,*,#2000,.T.);
#2035 = PLANE('',#2036);
#2036 = AXIS2_PLACEMENT_3D('',#2037,#2038,#2039);
#2037 = CARTESIAN_POINT('',(115.98,2.692893218813,8.4));
#2038 = DIRECTION('',(-1.,-0.,-0.));
#2039 = DIRECTION('',(0.,0.,-1.));
#2040 = ADVANCED_FACE('',(#2041),#2047,.F.);
#2041 = FACE_BOUND('',#2042,.F.);
#2042 = EDGE_LOOP('',(#2043,#2044,#2045,#2046));
#2043 = ORIENTED_EDGE('',*,*,#1530,.F.);
#2044 = ORIENTED_EDGE('',*,*,#1675,.T.);
#2045 = ORIENTED_EDGE('',*,*,#1659,.T.);
#2046 = ORIENTED_EDGE('',*,*,#1627,.F.);
#2047 = PLANE('',#2048);
#2048 = AXIS2_PLACEMENT_3D('',#2049,#2050,#2051);
#2049 = CARTESIAN_POINT('',(16.95,45.15184,2.));
#2050 = DIRECTION('',(-0.,1.,0.));
#2051 = DIRECTION('',(0.,0.,1.));
#2052 = ADVANCED_FACE('',(#2053),#2064,.T.);
#2053 = FACE_BOUND('',#2054,.T.);
#2054 = EDGE_LOOP('',(#2055,#2056,#2062,#2063));
#2055 = ORIENTED_EDGE('',*,*,#1917,.F.);
#2056 = ORIENTED_EDGE('',*,*,#2057,.T.);
#2057 = EDGE_CURVE('',#1918,#1944,#2058,.T.);
#2058 = LINE('',#2059,#2060);
#2059 = CARTESIAN_POINT('',(18.,51.50184,3.173646668642));
#2060 = VECTOR('',#2061,1.);
#2061 = DIRECTION('',(1.,0.,0.));
#2062 = ORIENTED_EDGE('',*,*,#1943,.T.);
#2063 = ORIENTED_EDGE('',*,*,#1859,.F.);
#2064 = CYLINDRICAL_SURFACE('',#2065,0.25);
#2065 = AXIS2_PLACEMENT_3D('',#2066,#2067,#2068);
#2066 = CARTESIAN_POINT('',(18.,51.25184,3.173646668642));
#2067 = DIRECTION('',(1.,0.,0.));
#2068 = DIRECTION('',(0.,0.840296648224,-0.542126869822));
#2069 = ADVANCED_FACE('',(#2070),#2076,.F.);
#2070 = FACE_BOUND('',#2071,.F.);
#2071 = EDGE_LOOP('',(#2072,#2073,#2074,#2075));
#2072 = ORIENTED_EDGE('',*,*,#2057,.T.);
#2073 = ORIENTED_EDGE('',*,*,#1955,.T.);
#2074 = ORIENTED_EDGE('',*,*,#1903,.F.);
#2075 = ORIENTED_EDGE('',*,*,#1929,.F.);
#2076 = PLANE('',#2077);
#2077 = AXIS2_PLACEMENT_3D('',#2078,#2079,#2080);
#2078 = CARTESIAN_POINT('',(18.,51.50184,3.1));
#2079 = DIRECTION('',(0.,-1.,0.));
#2080 = DIRECTION('',(0.,0.,1.));
#2081 = ADVANCED_FACE('',(#2082),#2092,.T.);
#2082 = FACE_BOUND('',#2083,.T.);
#2083 = EDGE_LOOP('',(#2084,#2085,#2086,#2087,#2088,#2089,#2090,#2091));
#2084 = ORIENTED_EDGE('',*,*,#421,.T.);
#2085 = ORIENTED_EDGE('',*,*,#1099,.T.);
#2086 = ORIENTED_EDGE('',*,*,#1157,.T.);
#2087 = ORIENTED_EDGE('',*,*,#1843,.T.);
#2088 = ORIENTED_EDGE('',*,*,#1231,.F.);
#2089 = ORIENTED_EDGE('',*,*,#1247,.T.);
#2090 = ORIENTED_EDGE('',*,*,#1368,.F.);
#2091 = ORIENTED_EDGE('',*,*,#758,.F.);
#2092 = PLANE('',#2093);
#2093 = AXIS2_PLACEMENT_3D('',#2094,#2095,#2096);
#2094 = CARTESIAN_POINT('',(75.7,25.290717983613,-1.555445575621E-16));
#2095 = DIRECTION('',(-0.,-0.,-1.));
#2096 = DIRECTION('',(-1.,0.,0.));
#2097 = ( GEOMETRIC_REPRESENTATION_CONTEXT(3) 
GLOBAL_UNCERTAINTY_ASSIGNED_CONTEXT((#2101)) 
GLOBAL_UNIT_ASSIGNED_CONTEXT((#2098,#2099,#2100)) REPRESENTATION_CONTEXT
('Context #1','3D Context with UNIT and UNCERTAINTY') );
#2098 = ( LENGTH_UNIT() NAMED_UNIT(*) SI_UNIT(.MILLI.,.METRE.) );
#2099 = ( NAMED_UNIT(*) PLANE_ANGLE_UNIT() SI_UNIT($,.RADIAN.) );
#2100 = ( NAMED_UNIT(*) SI_UNIT($,.STERADIAN.) SOLID_ANGLE_UNIT() );
#2101 = UNCERTAINTY_MEASURE_WITH_UNIT(LENGTH_MEASURE(2.E-07),#2098,
  'distance_accuracy_value','confusion accuracy');
#2102 = PRODUCT_RELATED_PRODUCT_CATEGORY('part',$,(#7));
ENDSEC;
END-ISO-10303-21;
